<svg width="214" height="340" viewBox="0 0 214 340" fill="none" xmlns="http://www.w3.org/2000/svg">
<g filter="url(#filter0_d_2098_2988)">
<g clip-path="url(#clip0_2098_2988)">
<rect x="13" y="7" width="188" height="314" rx="24" fill="white"/>
<g filter="url(#filter1_d_2098_2988)">
<path d="M13 23C13 14.1634 20.1634 7 29 7H185C193.837 7 201 14.1634 201 23V47H13V23Z" fill="#D9EBCD"/>
<path d="M63.9991 33V21.8H66.1751L70.9271 28.856V21.8H73.2951V33H71.1031L66.3511 25.944V33H63.9991ZM75.2182 26.68C75.5702 26.04 76.0502 25.56 76.6742 25.208C77.2982 24.856 78.0182 24.68 78.8502 24.68C79.6822 24.68 80.4022 24.856 81.0422 25.176C81.6822 25.496 82.1782 25.96 82.5302 26.552C82.8822 27.144 83.0742 27.832 83.0902 28.632C83.0902 28.92 83.0582 29.176 83.0262 29.4H77.0582V29.464C77.1062 30.072 77.2982 30.536 77.6342 30.872C77.9542 31.224 78.4182 31.384 78.9942 31.384C79.4422 31.384 79.8262 31.288 80.1302 31.096C80.4342 30.904 80.6422 30.6 80.7382 30.216H82.9622C82.8662 30.76 82.6582 31.256 82.3382 31.688C82.0022 32.136 81.5702 32.472 81.0262 32.728C80.4822 32.984 79.8582 33.096 79.1542 33.096C78.2262 33.096 77.4422 32.936 76.7702 32.584C76.0982 32.248 75.5862 31.768 75.2342 31.128C74.8822 30.488 74.7062 29.752 74.7062 28.904C74.7062 28.056 74.8662 27.32 75.2182 26.68ZM80.8342 27.928C80.7542 27.432 80.5462 27.048 80.2102 26.776C79.8742 26.504 79.4582 26.36 78.9462 26.36C78.4502 26.36 78.0342 26.504 77.6982 26.792C77.3622 27.08 77.1702 27.448 77.1062 27.928H80.8342ZM86.2681 28.808L83.3561 24.776H85.9321L87.6441 27.208L89.3881 24.776H91.8041L88.9081 28.808L91.9641 33H89.3881L87.5001 30.424L85.6281 33H83.2121L86.2681 28.808ZM92.7137 22.472H94.9697V24.776H96.8417V26.68H94.9697V30.28C94.9697 30.568 95.0177 30.776 95.1457 30.904C95.2737 31.032 95.4817 31.096 95.7697 31.096H96.9377V33H95.0657C93.4977 33 92.7137 32.216 92.7137 30.648V22.472ZM106.59 21.8C107.39 21.8 108.094 21.96 108.702 22.264C109.31 22.568 109.79 23 110.126 23.56C110.462 24.136 110.638 24.792 110.638 25.528C110.638 26.28 110.462 26.936 110.126 27.496C109.79 28.056 109.31 28.488 108.702 28.792C108.094 29.096 107.39 29.24 106.59 29.24H104.43V33H102.03V21.8H106.59ZM104.43 27.24H106.366C106.926 27.24 107.374 27.096 107.71 26.776C108.03 26.472 108.206 26.056 108.206 25.528C108.206 25 108.03 24.584 107.71 24.264C107.374 23.96 106.926 23.8 106.366 23.8H104.43V27.24ZM119.419 31.096V33H118.267C117.227 33 116.715 32.552 116.747 31.656C116.443 32.136 116.075 32.488 115.643 32.728C115.195 32.984 114.667 33.096 114.059 33.096C113.131 33.096 112.395 32.888 111.835 32.472C111.275 32.056 111.003 31.448 111.003 30.68C111.003 29.816 111.323 29.144 111.963 28.664C112.603 28.184 113.547 27.944 114.779 27.944H116.411V27.544C116.411 27.176 116.267 26.888 115.995 26.664C115.707 26.44 115.339 26.328 114.875 26.328C114.459 26.328 114.107 26.424 113.851 26.6C113.579 26.792 113.419 27.032 113.371 27.336H111.195C111.259 26.504 111.643 25.848 112.315 25.384C112.987 24.92 113.867 24.68 114.987 24.68C116.139 24.68 117.035 24.936 117.675 25.448C118.315 25.96 118.635 26.712 118.635 27.672V30.568C118.635 30.776 118.667 30.92 118.763 30.984C118.843 31.064 118.971 31.096 119.163 31.096H119.419ZM116.411 29.448H114.763C114.283 29.448 113.915 29.544 113.659 29.736C113.403 29.928 113.275 30.184 113.275 30.52C113.275 30.808 113.371 31.048 113.595 31.208C113.819 31.384 114.107 31.464 114.491 31.464C115.067 31.464 115.531 31.304 115.883 30.968C116.219 30.632 116.395 30.184 116.411 29.608V29.448ZM121.611 24.776L123.611 30.68L125.563 24.776H127.979L124.331 34.168C124.139 34.68 123.947 35.064 123.787 35.352C123.611 35.64 123.387 35.848 123.131 35.992C122.875 36.136 122.539 36.2 122.123 36.2H119.931V34.296H121.179C121.467 34.296 121.675 34.248 121.803 34.152C121.931 34.056 122.043 33.88 122.171 33.592L122.379 33.048L119.211 24.776H121.611ZM133.753 24.776V26.824H132.857C132.217 26.824 131.737 27.016 131.449 27.4C131.145 27.784 131.001 28.312 131.001 28.968V33H128.745V24.776H130.793L131.001 26.008C131.241 25.608 131.545 25.304 131.913 25.096C132.265 24.888 132.761 24.776 133.369 24.776H133.753ZM136.223 32.584C135.567 32.232 135.055 31.736 134.703 31.096C134.351 30.456 134.175 29.72 134.175 28.888C134.175 28.056 134.351 27.32 134.703 26.68C135.055 26.04 135.567 25.56 136.223 25.208C136.879 24.856 137.647 24.68 138.511 24.68C139.375 24.68 140.127 24.856 140.783 25.208C141.439 25.56 141.951 26.04 142.303 26.68C142.655 27.32 142.847 28.056 142.847 28.888C142.847 29.736 142.655 30.472 142.303 31.112C141.951 31.752 141.439 32.232 140.783 32.584C140.127 32.936 139.375 33.096 138.511 33.096C137.647 33.096 136.879 32.936 136.223 32.584ZM139.999 30.6C140.367 30.168 140.559 29.592 140.559 28.888C140.559 28.184 140.367 27.624 139.999 27.176C139.631 26.744 139.135 26.52 138.511 26.52C137.887 26.52 137.391 26.744 137.023 27.176C136.655 27.624 136.479 28.184 136.479 28.888C136.479 29.592 136.655 30.168 137.023 30.6C137.391 31.048 137.887 31.256 138.511 31.256C139.135 31.256 139.631 31.048 139.999 30.6ZM144.089 21.8H146.345V33H144.089V21.8ZM147.917 21.8H150.173V33H147.917V21.8Z" fill="#515251"/>
</g>
<path d="M89 82.5C89.1978 82.5 89.3911 82.4414 89.5556 82.3315C89.72 82.2216 89.8482 82.0654 89.9239 81.8827C89.9996 81.7 90.0194 81.4989 89.9808 81.3049C89.9422 81.1109 89.847 80.9327 89.7071 80.7929C89.5673 80.653 89.3891 80.5578 89.1951 80.5192C89.0011 80.4806 88.8 80.5004 88.6173 80.5761C88.4346 80.6518 88.2784 80.78 88.1685 80.9444C88.0586 81.1089 88 81.3022 88 81.5C88 81.7652 88.1054 82.0196 88.2929 82.2071C88.4804 82.3946 88.7348 82.5 89 82.5ZM94 82.5C94.1978 82.5 94.3911 82.4414 94.5556 82.3315C94.72 82.2216 94.8482 82.0654 94.9239 81.8827C94.9996 81.7 95.0194 81.4989 94.9808 81.3049C94.9422 81.1109 94.847 80.9327 94.7071 80.7929C94.5673 80.653 94.3891 80.5578 94.1951 80.5192C94.0011 80.4806 93.8 80.5004 93.6173 80.5761C93.4346 80.6518 93.2784 80.78 93.1685 80.9444C93.0586 81.1089 93 81.3022 93 81.5C93 81.7652 93.1054 82.0196 93.2929 82.2071C93.4804 82.3946 93.7348 82.5 94 82.5ZM94 78.5C94.1978 78.5 94.3911 78.4414 94.5556 78.3315C94.72 78.2216 94.8482 78.0654 94.9239 77.8827C94.9996 77.7 95.0194 77.4989 94.9808 77.3049C94.9422 77.1109 94.847 76.9327 94.7071 76.7929C94.5673 76.653 94.3891 76.5578 94.1951 76.5192C94.0011 76.4806 93.8 76.5004 93.6173 76.5761C93.4346 76.6518 93.2784 76.78 93.1685 76.9444C93.0586 77.1089 93 77.3022 93 77.5C93 77.7652 93.1054 78.0196 93.2929 78.2071C93.4804 78.3946 93.7348 78.5 94 78.5ZM89 78.5C89.1978 78.5 89.3911 78.4414 89.5556 78.3315C89.72 78.2216 89.8482 78.0654 89.9239 77.8827C89.9996 77.7 90.0194 77.4989 89.9808 77.3049C89.9422 77.1109 89.847 76.9327 89.7071 76.7929C89.5673 76.653 89.3891 76.5578 89.1951 76.5192C89.0011 76.4806 88.8 76.5004 88.6173 76.5761C88.4346 76.6518 88.2784 76.78 88.1685 76.9444C88.0586 77.1089 88 77.3022 88 77.5C88 77.7652 88.1054 78.0196 88.2929 78.2071C88.4804 78.3946 88.7348 78.5 89 78.5ZM96 66.5H95V65.5C95 65.2348 94.8946 64.9804 94.7071 64.7929C94.5196 64.6054 94.2652 64.5 94 64.5C93.7348 64.5 93.4804 64.6054 93.2929 64.7929C93.1054 64.9804 93 65.2348 93 65.5V66.5H85V65.5C85 65.2348 84.8946 64.9804 84.7071 64.7929C84.5196 64.6054 84.2652 64.5 84 64.5C83.7348 64.5 83.4804 64.6054 83.2929 64.7929C83.1054 64.9804 83 65.2348 83 65.5V66.5H82C81.2044 66.5 80.4413 66.8161 79.8787 67.3787C79.3161 67.9413 79 68.7044 79 69.5V83.5C79 84.2956 79.3161 85.0587 79.8787 85.6213C80.4413 86.1839 81.2044 86.5 82 86.5H96C96.7956 86.5 97.5587 86.1839 98.1213 85.6213C98.6839 85.0587 99 84.2956 99 83.5V69.5C99 68.7044 98.6839 67.9413 98.1213 67.3787C97.5587 66.8161 96.7956 66.5 96 66.5ZM97 83.5C97 83.7652 96.8946 84.0196 96.7071 84.2071C96.5196 84.3946 96.2652 84.5 96 84.5H82C81.7348 84.5 81.4804 84.3946 81.2929 84.2071C81.1054 84.0196 81 83.7652 81 83.5V74.5H97V83.5ZM97 72.5H81V69.5C81 69.2348 81.1054 68.9804 81.2929 68.7929C81.4804 68.6054 81.7348 68.5 82 68.5H83V69.5C83 69.7652 83.1054 70.0196 83.2929 70.2071C83.4804 70.3946 83.7348 70.5 84 70.5C84.2652 70.5 84.5196 70.3946 84.7071 70.2071C84.8946 70.0196 85 69.7652 85 69.5V68.5H93V69.5C93 69.7652 93.1054 70.0196 93.2929 70.2071C93.4804 70.3946 93.7348 70.5 94 70.5C94.2652 70.5 94.5196 70.3946 94.7071 70.2071C94.8946 70.0196 95 69.7652 95 69.5V68.5H96C96.2652 68.5 96.5196 68.6054 96.7071 68.7929C96.8946 68.9804 97 69.2348 97 69.5V72.5ZM84 78.5C84.1978 78.5 84.3911 78.4414 84.5556 78.3315C84.72 78.2216 84.8482 78.0654 84.9239 77.8827C84.9996 77.7 85.0194 77.4989 84.9808 77.3049C84.9422 77.1109 84.847 76.9327 84.7071 76.7929C84.5673 76.653 84.3891 76.5578 84.1951 76.5192C84.0011 76.4806 83.8 76.5004 83.6173 76.5761C83.4346 76.6518 83.2784 76.78 83.1685 76.9444C83.0586 77.1089 83 77.3022 83 77.5C83 77.7652 83.1054 78.0196 83.2929 78.2071C83.4804 78.3946 83.7348 78.5 84 78.5ZM84 82.5C84.1978 82.5 84.3911 82.4414 84.5556 82.3315C84.72 82.2216 84.8482 82.0654 84.9239 81.8827C84.9996 81.7 85.0194 81.4989 84.9808 81.3049C84.9422 81.1109 84.847 80.9327 84.7071 80.7929C84.5673 80.653 84.3891 80.5578 84.1951 80.5192C84.0011 80.4806 83.8 80.5004 83.6173 80.5761C83.4346 80.6518 83.2784 80.78 83.1685 80.9444C83.0586 81.1089 83 81.3022 83 81.5C83 81.7652 83.1054 82.0196 83.2929 82.2071C83.4804 82.3946 83.7348 82.5 84 82.5Z" fill="#8D8E8D"/>
<path d="M105.816 72.1H111.036V73.06H106.86V75.868H110.316V76.828H106.86V80.5H105.816V72.1ZM114.757 74.38V75.34H114.265C113.677 75.34 113.257 75.544 113.005 75.928C112.753 76.324 112.633 76.804 112.633 77.38V80.5H111.649V74.38H112.501L112.633 75.304C112.801 75.028 113.029 74.8 113.317 74.632C113.593 74.464 113.977 74.38 114.481 74.38H114.757ZM116.604 72.196C116.724 72.316 116.784 72.472 116.784 72.652C116.784 72.844 116.724 72.988 116.604 73.108C116.484 73.228 116.328 73.288 116.148 73.288C115.956 73.288 115.812 73.228 115.692 73.108C115.572 72.988 115.512 72.844 115.512 72.652C115.512 72.472 115.572 72.316 115.692 72.196C115.812 72.076 115.956 72.016 116.148 72.016C116.328 72.016 116.484 72.076 116.604 72.196ZM115.656 74.38H116.64V80.5H115.656V74.38ZM123.796 72.1V80.5H122.944L122.812 79.516C122.296 80.224 121.6 80.572 120.712 80.572C120.136 80.572 119.632 80.452 119.188 80.2C118.744 79.96 118.396 79.6 118.144 79.12C117.892 78.652 117.772 78.088 117.772 77.44C117.772 76.828 117.892 76.288 118.144 75.808C118.396 75.34 118.744 74.968 119.2 74.704C119.644 74.44 120.148 74.308 120.712 74.308C121.204 74.308 121.624 74.404 121.984 74.584C122.332 74.764 122.608 75.004 122.812 75.316V72.1H123.796ZM121.852 79.42C122.164 79.228 122.404 78.964 122.572 78.628C122.74 78.292 122.824 77.896 122.824 77.464C122.824 77.032 122.74 76.636 122.572 76.288C122.404 75.94 122.164 75.664 121.852 75.472C121.54 75.28 121.192 75.184 120.808 75.184C120.196 75.184 119.704 75.4 119.332 75.82C118.96 76.24 118.78 76.78 118.78 77.44C118.78 78.112 118.96 78.652 119.332 79.072C119.704 79.492 120.196 79.696 120.808 79.696C121.192 79.696 121.54 79.612 121.852 79.42ZM130.861 79.6V80.5H130.321C129.925 80.5 129.649 80.428 129.481 80.26C129.313 80.104 129.217 79.864 129.217 79.552C128.737 80.236 128.053 80.572 127.165 80.572C126.481 80.572 125.929 80.416 125.521 80.092C125.113 79.78 124.909 79.336 124.909 78.784C124.909 78.172 125.113 77.704 125.533 77.368C125.953 77.044 126.565 76.876 127.369 76.876H129.169V76.456C129.169 76.06 129.025 75.748 128.761 75.52C128.497 75.304 128.125 75.184 127.645 75.184C127.213 75.184 126.865 75.28 126.589 75.472C126.313 75.664 126.145 75.904 126.085 76.216H125.101C125.173 75.616 125.437 75.148 125.893 74.812C126.349 74.476 126.949 74.308 127.693 74.308C128.473 74.308 129.073 74.5 129.505 74.884C129.937 75.268 130.153 75.808 130.153 76.516V79.156C130.153 79.456 130.285 79.6 130.561 79.6H130.861ZM129.169 77.704H127.273C126.361 77.704 125.905 78.052 125.905 78.724C125.905 79.036 126.025 79.276 126.265 79.456C126.505 79.648 126.829 79.732 127.237 79.732C127.837 79.732 128.305 79.576 128.653 79.264C128.989 78.952 129.169 78.532 129.169 78.004V77.704ZM131.874 74.38L133.758 79.372L135.582 74.38H136.626L133.806 81.532C133.662 81.904 133.53 82.18 133.422 82.36C133.302 82.552 133.17 82.684 133.002 82.768C132.834 82.864 132.606 82.9 132.33 82.9H131.154V82H132.03C132.222 82 132.366 81.988 132.462 81.94C132.558 81.904 132.63 81.844 132.69 81.748C132.75 81.652 132.822 81.496 132.918 81.28L133.23 80.548L130.83 74.38H131.874Z" fill="#515251"/>
<path d="M62.13 107.912C62.13 106.688 62.346 105.608 62.778 104.672C63.21 103.754 63.822 103.052 64.614 102.548C65.406 102.044 66.306 101.792 67.314 101.792C68.322 101.792 69.222 102.044 70.014 102.548C70.806 103.052 71.418 103.754 71.85 104.672C72.282 105.608 72.516 106.688 72.516 107.912V108.488C72.516 109.748 72.282 110.846 71.85 111.764C71.418 112.682 70.806 113.384 70.014 113.87C69.222 114.374 68.322 114.608 67.314 114.608C66.288 114.608 65.388 114.374 64.614 113.87C63.822 113.384 63.21 112.682 62.778 111.764C62.346 110.846 62.13 109.748 62.13 108.488V107.912ZM69.204 105.05C68.736 104.348 68.106 103.988 67.314 103.988C66.522 103.988 65.892 104.348 65.424 105.05C64.956 105.752 64.722 106.742 64.722 108.002V108.398C64.722 109.676 64.956 110.666 65.424 111.368C65.892 112.07 66.522 112.412 67.314 112.412C68.106 112.412 68.736 112.07 69.204 111.368C69.672 110.666 69.924 109.676 69.924 108.398V108.002C69.924 106.742 69.672 105.752 69.204 105.05ZM83.2887 105.572C83.5047 106.328 83.6127 107.156 83.6127 108.056C83.6127 110.144 83.1627 111.764 82.2627 112.898C81.3627 114.05 80.0847 114.608 78.4287 114.608C77.1327 114.608 76.0707 114.302 75.2787 113.654C74.4867 113.006 74.0187 112.106 73.8747 110.936H76.4127C76.5207 111.44 76.7727 111.836 77.1327 112.106C77.4927 112.394 77.9787 112.52 78.5547 112.52C79.3827 112.52 80.0307 112.214 80.4627 111.566C80.8947 110.936 81.1287 110.036 81.1287 108.884V108.56C80.9487 108.812 80.8587 108.938 80.8407 108.956C80.5347 109.388 80.1387 109.712 79.6527 109.946C79.1667 110.18 78.6267 110.288 78.0327 110.288C77.1867 110.288 76.4487 110.126 75.8007 109.766C75.1527 109.424 74.6487 108.938 74.2887 108.29C73.9287 107.66 73.7667 106.922 73.7667 106.076C73.7667 105.248 73.9467 104.51 74.3427 103.862C74.7387 103.214 75.2787 102.692 75.9987 102.332C76.7187 101.972 77.5287 101.774 78.4647 101.774C79.2927 101.774 80.0487 101.936 80.6967 102.26C81.3447 102.584 81.9027 103.034 82.3527 103.61C82.7487 104.15 83.0727 104.816 83.2887 105.572ZM76.9167 107.642C77.2947 108.074 77.7987 108.272 78.4467 108.272C79.0767 108.272 79.5987 108.074 79.9947 107.642C80.3907 107.228 80.6067 106.688 80.6067 106.04C80.6067 105.392 80.4087 104.87 80.0127 104.438C79.6167 104.024 79.1127 103.808 78.4827 103.808C77.8347 103.808 77.3307 104.024 76.9347 104.438C76.5387 104.87 76.3407 105.392 76.3407 106.04C76.3407 106.688 76.5207 107.228 76.9167 107.642ZM82.5756 118.1L87.8496 101.9H90.2436L84.9516 118.1H82.5756ZM95.5026 101.9V114.5H92.9106V106.454C92.7486 106.526 92.5146 106.544 92.2266 106.544H90.1206V104.402H92.0106C92.3166 104.402 92.5506 104.294 92.7126 104.042C92.8746 103.79 92.9646 103.484 92.9646 103.124V101.9H95.5026ZM102.147 101.9V114.5H99.5551V106.454C99.3931 106.526 99.1591 106.544 98.8711 106.544H96.7651V104.402H98.6551C98.9611 104.402 99.1951 104.294 99.3571 104.042C99.5191 103.79 99.6091 103.484 99.6091 103.124V101.9H102.147ZM102.492 118.1L107.766 101.9H110.16L104.868 118.1H102.492ZM114.693 108.542C115.305 108.056 115.755 107.606 116.043 107.192C116.331 106.796 116.475 106.346 116.475 105.86C116.475 105.248 116.277 104.78 115.917 104.456C115.557 104.132 115.071 103.952 114.459 103.952C113.865 103.952 113.379 104.15 113.019 104.546C112.659 104.942 112.479 105.482 112.479 106.148V106.346H109.869V106.004C109.869 105.212 110.049 104.492 110.427 103.844C110.805 103.196 111.345 102.692 112.047 102.332C112.731 101.972 113.541 101.774 114.459 101.774C115.935 101.774 117.069 102.134 117.879 102.854C118.689 103.574 119.103 104.546 119.103 105.752C119.103 106.616 118.887 107.372 118.455 108.002C118.023 108.632 117.375 109.298 116.493 110.018L113.667 112.322H119.157V114.5H109.923V112.502L114.693 108.542ZM120.366 107.912C120.366 106.688 120.582 105.608 121.014 104.672C121.446 103.754 122.058 103.052 122.85 102.548C123.642 102.044 124.542 101.792 125.55 101.792C126.558 101.792 127.458 102.044 128.25 102.548C129.042 103.052 129.654 103.754 130.086 104.672C130.518 105.608 130.752 106.688 130.752 107.912V108.488C130.752 109.748 130.518 110.846 130.086 111.764C129.654 112.682 129.042 113.384 128.25 113.87C127.458 114.374 126.558 114.608 125.55 114.608C124.524 114.608 123.624 114.374 122.85 113.87C122.058 113.384 121.446 112.682 121.014 111.764C120.582 110.846 120.366 109.748 120.366 108.488V107.912ZM127.44 105.05C126.972 104.348 126.342 103.988 125.55 103.988C124.758 103.988 124.128 104.348 123.66 105.05C123.192 105.752 122.958 106.742 122.958 108.002V108.398C122.958 109.676 123.192 110.666 123.66 111.368C124.128 112.07 124.758 112.412 125.55 112.412C126.342 112.412 126.972 112.07 127.44 111.368C127.908 110.666 128.16 109.676 128.16 108.398V108.002C128.16 106.742 127.908 105.752 127.44 105.05ZM136.701 108.542C137.313 108.056 137.763 107.606 138.051 107.192C138.339 106.796 138.483 106.346 138.483 105.86C138.483 105.248 138.285 104.78 137.925 104.456C137.565 104.132 137.079 103.952 136.467 103.952C135.873 103.952 135.387 104.15 135.027 104.546C134.667 104.942 134.487 105.482 134.487 106.148V106.346H131.877V106.004C131.877 105.212 132.057 104.492 132.435 103.844C132.813 103.196 133.353 102.692 134.055 102.332C134.739 101.972 135.549 101.774 136.467 101.774C137.943 101.774 139.077 102.134 139.887 102.854C140.697 103.574 141.111 104.546 141.111 105.752C141.111 106.616 140.895 107.372 140.463 108.002C140.031 108.632 139.383 109.298 138.501 110.018L135.675 112.322H141.165V114.5H131.931V112.502L136.701 108.542ZM147.055 108.542C147.667 108.056 148.117 107.606 148.405 107.192C148.693 106.796 148.837 106.346 148.837 105.86C148.837 105.248 148.639 104.78 148.279 104.456C147.919 104.132 147.433 103.952 146.821 103.952C146.227 103.952 145.741 104.15 145.381 104.546C145.021 104.942 144.841 105.482 144.841 106.148V106.346H142.231V106.004C142.231 105.212 142.411 104.492 142.789 103.844C143.167 103.196 143.707 102.692 144.409 102.332C145.093 101.972 145.903 101.774 146.821 101.774C148.297 101.774 149.431 102.134 150.241 102.854C151.051 103.574 151.465 104.546 151.465 105.752C151.465 106.616 151.249 107.372 150.817 108.002C150.385 108.632 149.737 109.298 148.855 110.018L146.029 112.322H151.519V114.5H142.285V112.502L147.055 108.542Z" fill="#515251"/>
<line x1="13" y1="162" x2="201" y2="162" stroke="#E7E8E7"/>
<path d="M29.384 195.8H38.136V197.432H34.68V207H32.84V197.432H29.384V195.8ZM39.5905 206.584C38.9505 206.232 38.4705 205.752 38.1185 205.112C37.7665 204.472 37.6065 203.736 37.6065 202.904C37.6065 202.088 37.7665 201.368 38.1185 200.728C38.4705 200.088 38.9505 199.592 39.5905 199.24C40.2305 198.888 40.9505 198.712 41.7825 198.712C42.5985 198.712 43.3185 198.888 43.9585 199.24C44.5985 199.592 45.0785 200.088 45.4305 200.728C45.7825 201.368 45.9585 202.088 45.9585 202.904C45.9585 203.736 45.7825 204.472 45.4305 205.112C45.0785 205.752 44.5985 206.232 43.9585 206.584C43.3185 206.936 42.5985 207.096 41.7825 207.096C40.9505 207.096 40.2305 206.936 39.5905 206.584ZM43.5265 204.872C43.9745 204.36 44.1985 203.704 44.1985 202.904C44.1985 202.104 43.9745 201.464 43.5265 200.952C43.0785 200.44 42.5025 200.184 41.7825 200.184C41.0465 200.184 40.4705 200.44 40.0385 200.952C39.5905 201.464 39.3825 202.104 39.3825 202.904C39.3825 203.704 39.5905 204.36 40.0385 204.872C40.4705 205.384 41.0465 205.624 41.7825 205.624C42.5025 205.624 43.0785 205.384 43.5265 204.872ZM47.8135 200.328H46.3895V198.808H47.8135V196.52H49.5575V198.808H51.5255V200.328H49.5575V204.6C49.5575 204.92 49.6215 205.16 49.7495 205.288C49.8775 205.416 50.0855 205.48 50.4055 205.48H51.7175V207H50.0535C49.2695 207 48.6935 206.824 48.3415 206.456C47.9895 206.104 47.8135 205.544 47.8135 204.776V200.328ZM60.3911 205.496V207H59.4791C58.9351 207 58.5511 206.888 58.3271 206.664C58.0871 206.44 57.9751 206.12 57.9751 205.688C57.3511 206.632 56.4551 207.096 55.2711 207.096C54.3431 207.096 53.6071 206.888 53.0631 206.456C52.5031 206.04 52.2311 205.448 52.2311 204.696C52.2311 203.864 52.5191 203.208 53.1271 202.76C53.7191 202.312 54.5831 202.072 55.7351 202.072H57.7991V201.576C57.7991 201.128 57.6391 200.76 57.3191 200.504C56.9991 200.248 56.5511 200.104 55.9911 200.104C55.4791 200.104 55.0631 200.216 54.7431 200.44C54.4231 200.664 54.2311 200.952 54.1671 201.304H52.4711C52.5511 200.488 52.9191 199.848 53.5591 199.4C54.1991 198.952 55.0311 198.712 56.0711 198.712C57.1591 198.712 58.0071 198.968 58.6151 199.48C59.2071 199.992 59.5111 200.728 59.5111 201.688V204.92C59.5111 205.304 59.6871 205.496 60.0551 205.496H60.3911ZM57.7991 203.352H55.6551C55.1111 203.352 54.7111 203.464 54.4231 203.672C54.1351 203.88 53.9911 204.184 53.9911 204.584C53.9911 204.936 54.1191 205.224 54.3911 205.432C54.6631 205.656 55.0311 205.752 55.5111 205.752C56.2151 205.752 56.7751 205.56 57.1751 205.176C57.5751 204.792 57.7831 204.28 57.7991 203.64V203.352ZM61.3324 195.8H63.0604V207H61.3324V195.8ZM69.024 195.8H76.336V197.432H70.864V200.536H75.376V202.12H70.864V205.368H76.528V207H69.024V195.8ZM89.5116 199.592C90.0716 200.168 90.3596 201.096 90.3596 202.376V207H88.6316V202.392C88.6316 201.688 88.4876 201.144 88.1996 200.76C87.9116 200.392 87.4796 200.2 86.9196 200.2C86.3116 200.2 85.8476 200.424 85.4956 200.84C85.1436 201.256 84.9836 201.832 84.9836 202.568V207H83.2396V202.392C83.2396 201.672 83.0796 201.128 82.7916 200.76C82.5036 200.392 82.0716 200.2 81.5116 200.2C80.9196 200.2 80.4556 200.424 80.1036 200.856C79.7516 201.304 79.5916 201.88 79.5916 202.616V207H77.8636V198.808H79.3676L79.5596 199.88C80.1356 199.112 80.9356 198.728 81.9596 198.712C82.5356 198.712 83.0316 198.84 83.4796 199.08C83.9116 199.336 84.2476 199.704 84.4876 200.2C84.7756 199.736 85.1436 199.368 85.6236 199.112C86.0876 198.856 86.6476 198.712 87.3196 198.712C88.2156 198.712 88.9356 199.016 89.5116 199.592ZM98.3101 199.224C98.8861 199.56 99.3501 200.04 99.6861 200.68C100.006 201.32 100.182 202.056 100.182 202.904C100.182 203.736 100.006 204.472 99.6861 205.112C99.3501 205.752 98.8861 206.232 98.3101 206.584C97.7181 206.936 97.0461 207.096 96.3101 207.096C95.7021 207.096 95.1741 206.984 94.7261 206.76C94.2781 206.536 93.9101 206.232 93.6541 205.848V210.2H91.9261V198.808H93.4301L93.6381 200.024C94.2941 199.16 95.1901 198.712 96.3101 198.712C97.0461 198.712 97.7181 198.888 98.3101 199.224ZM97.7501 204.872C98.1981 204.36 98.4221 203.704 98.4221 202.904C98.4221 202.104 98.1981 201.448 97.7501 200.936C97.3021 200.44 96.7261 200.184 96.0221 200.184C95.3021 200.184 94.7261 200.44 94.2941 200.936C93.8461 201.432 93.6381 202.072 93.6381 202.872C93.6381 203.704 93.8461 204.36 94.2941 204.872C94.7261 205.384 95.3021 205.64 96.0221 205.64C96.7261 205.64 97.3021 205.384 97.7501 204.872ZM101.567 195.8H103.295V207H101.567V195.8ZM106.669 206.584C106.029 206.232 105.549 205.752 105.197 205.112C104.845 204.472 104.685 203.736 104.685 202.904C104.685 202.088 104.845 201.368 105.197 200.728C105.549 200.088 106.029 199.592 106.669 199.24C107.309 198.888 108.029 198.712 108.861 198.712C109.677 198.712 110.397 198.888 111.037 199.24C111.677 199.592 112.157 200.088 112.509 200.728C112.861 201.368 113.037 202.088 113.037 202.904C113.037 203.736 112.861 204.472 112.509 205.112C112.157 205.752 111.677 206.232 111.037 206.584C110.397 206.936 109.677 207.096 108.861 207.096C108.029 207.096 107.309 206.936 106.669 206.584ZM110.605 204.872C111.053 204.36 111.277 203.704 111.277 202.904C111.277 202.104 111.053 201.464 110.605 200.952C110.157 200.44 109.581 200.184 108.861 200.184C108.125 200.184 107.549 200.44 107.117 200.952C106.669 201.464 106.461 202.104 106.461 202.904C106.461 203.704 106.669 204.36 107.117 204.872C107.549 205.384 108.125 205.624 108.861 205.624C109.581 205.624 110.157 205.384 110.605 204.872ZM115.138 198.808L117.426 205.128L119.65 198.808H121.49L117.778 208.28C117.586 208.776 117.41 209.16 117.25 209.416C117.09 209.672 116.882 209.88 116.658 210.008C116.418 210.136 116.098 210.2 115.714 210.2H113.858V208.68H115.074C115.394 208.68 115.634 208.632 115.762 208.536C115.89 208.44 116.018 208.2 116.162 207.848L116.498 207.064L113.298 198.808H115.138ZM122.243 200.712C122.579 200.072 123.043 199.592 123.651 199.24C124.259 198.888 124.947 198.712 125.731 198.712C126.515 198.712 127.203 198.872 127.811 199.192C128.419 199.512 128.883 199.976 129.235 200.552C129.587 201.144 129.763 201.832 129.779 202.616C129.779 202.84 129.763 203.048 129.731 203.272H123.555V203.368C123.587 204.088 123.811 204.648 124.227 205.064C124.627 205.48 125.171 205.688 125.843 205.688C126.371 205.688 126.819 205.576 127.187 205.32C127.539 205.064 127.779 204.712 127.907 204.248H129.635C129.475 205.08 129.075 205.768 128.419 206.296C127.763 206.84 126.947 207.096 125.971 207.096C125.107 207.096 124.371 206.936 123.731 206.584C123.091 206.232 122.611 205.752 122.259 205.112C121.907 204.488 121.747 203.752 121.747 202.92C121.747 202.088 121.907 201.352 122.243 200.712ZM128.019 202.008C127.939 201.416 127.699 200.952 127.299 200.616C126.899 200.28 126.403 200.104 125.795 200.104C125.219 200.104 124.739 200.28 124.323 200.632C123.907 200.984 123.683 201.432 123.619 202.008H128.019ZM131.368 200.712C131.704 200.072 132.168 199.592 132.776 199.24C133.384 198.888 134.072 198.712 134.856 198.712C135.64 198.712 136.328 198.872 136.936 199.192C137.544 199.512 138.008 199.976 138.36 200.552C138.712 201.144 138.888 201.832 138.904 202.616C138.904 202.84 138.888 203.048 138.856 203.272H132.68V203.368C132.712 204.088 132.936 204.648 133.352 205.064C133.752 205.48 134.296 205.688 134.968 205.688C135.496 205.688 135.944 205.576 136.312 205.32C136.664 205.064 136.904 204.712 137.032 204.248H138.76C138.6 205.08 138.2 205.768 137.544 206.296C136.888 206.84 136.072 207.096 135.096 207.096C134.232 207.096 133.496 206.936 132.856 206.584C132.216 206.232 131.736 205.752 131.384 205.112C131.032 204.488 130.872 203.752 130.872 202.92C130.872 202.088 131.032 201.352 131.368 200.712ZM137.144 202.008C137.064 201.416 136.824 200.952 136.424 200.616C136.024 200.28 135.528 200.104 134.92 200.104C134.344 200.104 133.864 200.28 133.448 200.632C133.032 200.984 132.808 201.432 132.744 202.008H137.144Z" fill="#515251"/>
<path d="M30.632 247.28C30.28 246 30.12 244.56 30.12 243.024C30.12 240.592 30.472 238.48 31.24 236.72C31.976 234.992 33.032 233.648 34.44 232.752C35.816 231.856 37.448 231.376 39.336 231.376C41.448 231.376 43.272 231.984 44.744 233.136C46.216 234.32 47.08 235.92 47.336 237.904H42.792C42.568 237.008 42.12 236.336 41.48 235.824C40.808 235.344 39.976 235.088 38.984 235.088C37.512 235.088 36.392 235.664 35.624 236.784C34.856 237.904 34.472 239.504 34.472 241.552V242.096L34.76 241.616C35.272 240.816 36.008 240.176 36.936 239.696C37.864 239.248 38.888 238.992 40.04 238.992C41.512 238.992 42.824 239.312 43.976 239.952C45.128 240.592 46.024 241.488 46.664 242.64C47.304 243.792 47.624 245.104 47.624 246.576C47.624 248.112 47.272 249.424 46.568 250.576C45.864 251.728 44.904 252.624 43.624 253.264C42.344 253.904 40.904 254.192 39.272 254.192C37.736 254.192 36.36 253.904 35.144 253.296C33.928 252.688 32.936 251.824 32.168 250.672C31.496 249.712 30.984 248.592 30.632 247.28ZM42.024 243.696C41.32 242.96 40.424 242.576 39.304 242.576C38.152 242.576 37.224 242.96 36.52 243.696C35.816 244.464 35.464 245.424 35.464 246.576C35.464 247.76 35.784 248.72 36.488 249.456C37.192 250.224 38.088 250.576 39.24 250.576C40.36 250.576 41.288 250.224 41.992 249.456C42.696 248.688 43.048 247.728 43.048 246.576C43.048 245.424 42.696 244.464 42.024 243.696ZM49.422 245.392L59.31 231.6H65.006V245.36H68.11V249.2H65.006V254H60.494V249.2H49.422V245.392ZM53.806 245.36H60.494V236.08L53.806 245.36Z" fill="#292A29"/>
<rect width="156" height="8" transform="translate(29 269)" fill="#8D8E8D"/>
<rect x="29" y="269" width="78" height="8" fill="#11453B"/>
<rect x="107" y="269" width="78" height="8" fill="#EA4E4B"/>
<path d="M29.6 284H31.57L33.51 289.14L35.39 284H37.32V291H35.89V286.31L34.07 291H32.85L31.03 286.31V291H29.6V284ZM43.466 289.81V291H42.746C42.096 291 41.776 290.72 41.796 290.16C41.606 290.46 41.376 290.68 41.106 290.83C40.826 290.99 40.496 291.06 40.116 291.06C39.536 291.06 39.076 290.93 38.726 290.67C38.376 290.41 38.206 290.03 38.206 289.55C38.206 289.01 38.406 288.59 38.806 288.29C39.206 287.99 39.796 287.84 40.566 287.84H41.586V287.59C41.586 287.36 41.496 287.18 41.326 287.04C41.146 286.9 40.916 286.83 40.626 286.83C40.366 286.83 40.146 286.89 39.986 287C39.816 287.12 39.716 287.27 39.686 287.46H38.326C38.366 286.94 38.606 286.53 39.026 286.24C39.446 285.95 39.996 285.8 40.696 285.8C41.416 285.8 41.976 285.96 42.376 286.28C42.776 286.6 42.976 287.07 42.976 287.67V289.48C42.976 289.61 42.996 289.7 43.056 289.74C43.106 289.79 43.186 289.81 43.306 289.81H43.466ZM41.586 288.78H40.556C40.256 288.78 40.026 288.84 39.866 288.96C39.706 289.08 39.626 289.24 39.626 289.45C39.626 289.63 39.686 289.78 39.826 289.88C39.966 289.99 40.146 290.04 40.386 290.04C40.746 290.04 41.036 289.94 41.256 289.73C41.466 289.52 41.576 289.24 41.586 288.88V288.78ZM44.0115 284H45.4215V291H44.0115V284ZM46.5241 287.05C46.7441 286.65 47.0441 286.35 47.4341 286.13C47.8241 285.91 48.2741 285.8 48.7941 285.8C49.3141 285.8 49.7641 285.91 50.1641 286.11C50.5641 286.31 50.8741 286.6 51.0941 286.97C51.3141 287.34 51.4341 287.77 51.4441 288.27C51.4441 288.45 51.4241 288.61 51.4041 288.75H47.6741V288.79C47.7041 289.17 47.8241 289.46 48.0341 289.67C48.2341 289.89 48.5241 289.99 48.8841 289.99C49.1641 289.99 49.4041 289.93 49.5941 289.81C49.7841 289.69 49.9141 289.5 49.9741 289.26H51.3641C51.3041 289.6 51.1741 289.91 50.9741 290.18C50.7641 290.46 50.4941 290.67 50.1541 290.83C49.8141 290.99 49.4241 291.06 48.9841 291.06C48.4041 291.06 47.9141 290.96 47.4941 290.74C47.0741 290.53 46.7541 290.23 46.5341 289.83C46.3141 289.43 46.2041 288.97 46.2041 288.44C46.2041 287.91 46.3041 287.45 46.5241 287.05ZM50.0341 287.83C49.9841 287.52 49.8541 287.28 49.6441 287.11C49.4341 286.94 49.1741 286.85 48.8541 286.85C48.5441 286.85 48.2841 286.94 48.0741 287.12C47.8641 287.3 47.7441 287.53 47.7041 287.83H50.0341Z" fill="#8D8E8D"/>
<path d="M34.33 299.94C34.61 300.22 34.76 300.59 34.76 301.05C34.76 301.45 34.64 301.81 34.42 302.11C34.2 302.41 33.88 302.65 33.47 302.81C33.05 302.98 32.57 303.06 32.03 303.06C31.19 303.06 30.53 302.85 30.05 302.43C29.56 302.01 29.32 301.42 29.32 300.67H30.75C30.75 301.06 30.88 301.37 31.14 301.59C31.39 301.82 31.71 301.93 32.11 301.93C32.45 301.93 32.73 301.84 32.95 301.66C33.17 301.48 33.29 301.24 33.29 300.93C33.29 300.65 33.18 300.43 32.96 300.27C32.74 300.11 32.42 300.03 32.01 300.03H31.32V298.88H31.93C32.31 298.88 32.61 298.8 32.82 298.63C33.03 298.46 33.14 298.23 33.14 297.94C33.14 297.67 33.04 297.46 32.85 297.3C32.65 297.15 32.4 297.07 32.09 297.07C31.75 297.07 31.47 297.17 31.25 297.35C31.03 297.54 30.91 297.79 30.91 298.11H29.5C29.5 297.44 29.73 296.91 30.19 296.52C30.65 296.14 31.26 295.94 32.03 295.94C32.83 295.94 33.46 296.11 33.91 296.45C34.36 296.79 34.59 297.25 34.59 297.81C34.59 298.23 34.46 298.56 34.21 298.82C33.96 299.08 33.63 299.26 33.22 299.36C33.67 299.47 34.04 299.66 34.33 299.94ZM38.0635 299.69C38.4035 299.42 38.6535 299.17 38.8135 298.94C38.9735 298.72 39.0535 298.47 39.0535 298.2C39.0535 297.86 38.9435 297.6 38.7435 297.42C38.5435 297.24 38.2735 297.14 37.9335 297.14C37.6035 297.14 37.3335 297.25 37.1335 297.47C36.9335 297.69 36.8335 297.99 36.8335 298.36V298.47H35.3835V298.28C35.3835 297.84 35.4835 297.44 35.6935 297.08C35.9035 296.72 36.2035 296.44 36.5935 296.24C36.9735 296.04 37.4235 295.93 37.9335 295.93C38.7535 295.93 39.3835 296.13 39.8335 296.53C40.2835 296.93 40.5135 297.47 40.5135 298.14C40.5135 298.62 40.3935 299.04 40.1535 299.39C39.9135 299.74 39.5535 300.11 39.0635 300.51L37.4935 301.79H40.5435V303H35.4135V301.89L38.0635 299.69Z" fill="#8D8E8D"/>
<path d="M107.6 284H112.22V285.29H109.1V286.93H111.66V288.16H109.1V291H107.6V284ZM112.688 287.05C112.908 286.65 113.208 286.35 113.598 286.13C113.988 285.91 114.438 285.8 114.958 285.8C115.478 285.8 115.928 285.91 116.328 286.11C116.728 286.31 117.038 286.6 117.258 286.97C117.478 287.34 117.598 287.77 117.608 288.27C117.608 288.45 117.588 288.61 117.568 288.75H113.838V288.79C113.868 289.17 113.988 289.46 114.198 289.67C114.398 289.89 114.688 289.99 115.048 289.99C115.328 289.99 115.568 289.93 115.758 289.81C115.948 289.69 116.078 289.5 116.138 289.26H117.528C117.468 289.6 117.338 289.91 117.138 290.18C116.928 290.46 116.658 290.67 116.318 290.83C115.978 290.99 115.588 291.06 115.148 291.06C114.568 291.06 114.078 290.96 113.658 290.74C113.238 290.53 112.918 290.23 112.698 289.83C112.478 289.43 112.368 288.97 112.368 288.44C112.368 287.91 112.468 287.45 112.688 287.05ZM116.198 287.83C116.148 287.52 116.018 287.28 115.808 287.11C115.598 286.94 115.338 286.85 115.018 286.85C114.708 286.85 114.448 286.94 114.238 287.12C114.028 287.3 113.908 287.53 113.868 287.83H116.198ZM125.909 286.35C126.249 286.72 126.429 287.33 126.429 288.18V291.01H125.019V288.13C125.019 287.35 124.719 286.96 124.129 286.96C123.819 286.96 123.569 287.07 123.389 287.29C123.199 287.51 123.109 287.81 123.109 288.19V291.01H121.699V288.13C121.699 287.35 121.399 286.96 120.799 286.96C120.489 286.96 120.239 287.08 120.059 287.3C119.879 287.52 119.789 287.82 119.789 288.2V291.01H118.379V285.86H119.609L119.739 286.5C119.909 286.28 120.119 286.11 120.359 285.99C120.599 285.87 120.899 285.81 121.259 285.8C121.989 285.8 122.499 286.09 122.789 286.67C122.969 286.39 123.219 286.18 123.519 286.03C123.819 285.88 124.169 285.8 124.559 285.8C125.109 285.8 125.559 285.99 125.909 286.35ZM132.374 289.81V291H131.654C131.004 291 130.684 290.72 130.704 290.16C130.514 290.46 130.284 290.68 130.014 290.83C129.734 290.99 129.404 291.06 129.024 291.06C128.444 291.06 127.984 290.93 127.634 290.67C127.284 290.41 127.114 290.03 127.114 289.55C127.114 289.01 127.314 288.59 127.714 288.29C128.114 287.99 128.704 287.84 129.474 287.84H130.494V287.59C130.494 287.36 130.404 287.18 130.234 287.04C130.054 286.9 129.824 286.83 129.534 286.83C129.274 286.83 129.054 286.89 128.894 287C128.724 287.12 128.624 287.27 128.594 287.46H127.234C127.274 286.94 127.514 286.53 127.934 286.24C128.354 285.95 128.904 285.8 129.604 285.8C130.324 285.8 130.884 285.96 131.284 286.28C131.684 286.6 131.884 287.07 131.884 287.67V289.48C131.884 289.61 131.904 289.7 131.964 289.74C132.014 289.79 132.094 289.81 132.214 289.81H132.374ZM130.494 288.78H129.464C129.164 288.78 128.934 288.84 128.774 288.96C128.614 289.08 128.534 289.24 128.534 289.45C128.534 289.63 128.594 289.78 128.734 289.88C128.874 289.99 129.054 290.04 129.294 290.04C129.654 290.04 129.944 289.94 130.164 289.73C130.374 289.52 130.484 289.24 130.494 288.88V288.78ZM132.92 284H134.33V291H132.92V284ZM135.432 287.05C135.652 286.65 135.952 286.35 136.342 286.13C136.732 285.91 137.182 285.8 137.702 285.8C138.222 285.8 138.672 285.91 139.072 286.11C139.472 286.31 139.782 286.6 140.002 286.97C140.222 287.34 140.342 287.77 140.352 288.27C140.352 288.45 140.332 288.61 140.312 288.75H136.582V288.79C136.612 289.17 136.732 289.46 136.942 289.67C137.142 289.89 137.432 289.99 137.792 289.99C138.072 289.99 138.312 289.93 138.502 289.81C138.692 289.69 138.822 289.5 138.882 289.26H140.272C140.212 289.6 140.082 289.91 139.882 290.18C139.672 290.46 139.402 290.67 139.062 290.83C138.722 290.99 138.332 291.06 137.892 291.06C137.312 291.06 136.822 290.96 136.402 290.74C135.982 290.53 135.662 290.23 135.442 289.83C135.222 289.43 135.112 288.97 135.112 288.44C135.112 287.91 135.212 287.45 135.432 287.05ZM138.942 287.83C138.892 287.52 138.762 287.28 138.552 287.11C138.342 286.94 138.082 286.85 137.762 286.85C137.452 286.85 137.192 286.94 136.982 287.12C136.772 287.3 136.652 287.53 136.612 287.83H138.942Z" fill="#8D8E8D"/>
<path d="M112.33 299.94C112.61 300.22 112.76 300.59 112.76 301.05C112.76 301.45 112.64 301.81 112.42 302.11C112.2 302.41 111.88 302.65 111.47 302.81C111.05 302.98 110.57 303.06 110.03 303.06C109.19 303.06 108.53 302.85 108.05 302.43C107.56 302.01 107.32 301.42 107.32 300.67H108.75C108.75 301.06 108.88 301.37 109.14 301.59C109.39 301.82 109.71 301.93 110.11 301.93C110.45 301.93 110.73 301.84 110.95 301.66C111.17 301.48 111.29 301.24 111.29 300.93C111.29 300.65 111.18 300.43 110.96 300.27C110.74 300.11 110.42 300.03 110.01 300.03H109.32V298.88H109.93C110.31 298.88 110.61 298.8 110.82 298.63C111.03 298.46 111.14 298.23 111.14 297.94C111.14 297.67 111.04 297.46 110.85 297.3C110.65 297.15 110.4 297.07 110.09 297.07C109.75 297.07 109.47 297.17 109.25 297.35C109.03 297.54 108.91 297.79 108.91 298.11H107.5C107.5 297.44 107.73 296.91 108.19 296.52C108.65 296.14 109.26 295.94 110.03 295.94C110.83 295.94 111.46 296.11 111.91 296.45C112.36 296.79 112.59 297.25 112.59 297.81C112.59 298.23 112.46 298.56 112.21 298.82C111.96 299.08 111.63 299.26 111.22 299.36C111.67 299.47 112.04 299.66 112.33 299.94ZM116.064 299.69C116.404 299.42 116.654 299.17 116.814 298.94C116.974 298.72 117.054 298.47 117.054 298.2C117.054 297.86 116.944 297.6 116.744 297.42C116.544 297.24 116.274 297.14 115.934 297.14C115.604 297.14 115.334 297.25 115.134 297.47C114.934 297.69 114.834 297.99 114.834 298.36V298.47H113.384V298.28C113.384 297.84 113.484 297.44 113.694 297.08C113.904 296.72 114.204 296.44 114.594 296.24C114.974 296.04 115.424 295.93 115.934 295.93C116.754 295.93 117.384 296.13 117.834 296.53C118.284 296.93 118.514 297.47 118.514 298.14C118.514 298.62 118.394 299.04 118.154 299.39C117.914 299.74 117.554 300.11 117.064 300.51L115.494 301.79H118.544V303H113.414V301.89L116.064 299.69Z" fill="#8D8E8D"/>
</g>
<rect x="12.5" y="6.5" width="189" height="315" rx="24.5" stroke="#E7E8E7"/>
</g>
<defs>
<filter id="filter0_d_2098_2988" x="0" y="0" width="214" height="340" filterUnits="userSpaceOnUse" color-interpolation-filters="sRGB">
<feFlood flood-opacity="0" result="BackgroundImageFix"/>
<feColorMatrix in="SourceAlpha" type="matrix" values="0 0 0 0 0 0 0 0 0 0 0 0 0 0 0 0 0 0 127 0" result="hardAlpha"/>
<feOffset dy="6"/>
<feGaussianBlur stdDeviation="6"/>
<feColorMatrix type="matrix" values="0 0 0 0 0.666667 0 0 0 0 0.666667 0 0 0 0 0.666667 0 0 0 0.11 0"/>
<feBlend mode="normal" in2="BackgroundImageFix" result="effect1_dropShadow_2098_2988"/>
<feBlend mode="normal" in="SourceGraphic" in2="effect1_dropShadow_2098_2988" result="shape"/>
</filter>
<filter id="filter1_d_2098_2988" x="-5" y="-2" width="224" height="76" filterUnits="userSpaceOnUse" color-interpolation-filters="sRGB">
<feFlood flood-opacity="0" result="BackgroundImageFix"/>
<feColorMatrix in="SourceAlpha" type="matrix" values="0 0 0 0 0 0 0 0 0 0 0 0 0 0 0 0 0 0 127 0" result="hardAlpha"/>
<feOffset dy="9"/>
<feGaussianBlur stdDeviation="9"/>
<feColorMatrix type="matrix" values="0 0 0 0 0.666667 0 0 0 0 0.666667 0 0 0 0 0.666667 0 0 0 0.15 0"/>
<feBlend mode="normal" in2="BackgroundImageFix" result="effect1_dropShadow_2098_2988"/>
<feBlend mode="normal" in="SourceGraphic" in2="effect1_dropShadow_2098_2988" result="shape"/>
</filter>
<clipPath id="clip0_2098_2988">
<rect x="13" y="7" width="188" height="314" rx="24" fill="white"/>
</clipPath>
</defs>
</svg>
