<svg width="34" height="42" viewBox="0 0 34 42" fill="none" xmlns="http://www.w3.org/2000/svg">
<g clip-path="url(#clip0_2098_3282)">
<path d="M17.3917 2C17.8308 2.08611 18.2786 2.14207 18.7091 2.26693C21.2708 2.99022 23.1866 5.25479 23.5009 7.89824C23.9056 11.3252 21.7702 14.4595 18.4637 15.2904C14.7612 16.2204 10.9639 13.7577 10.3009 9.99491C9.72398 6.74012 11.4246 3.64892 14.477 2.46067C15.0238 2.24971 15.6222 2.17652 16.1991 2.03875C16.2551 2.02583 16.3111 2.01292 16.3627 2C16.7028 2 17.0473 2 17.3917 2ZM22.2653 8.73777C22.2567 5.71546 19.8328 3.27867 16.8449 3.29159C13.8743 3.3002 11.459 5.76282 11.4676 8.7636C11.4762 11.7644 13.913 14.2098 16.8837 14.2012C19.85 14.1926 22.2739 11.7342 22.2653 8.73777Z" fill="#8D8E8D" stroke="#8D8E8D" stroke-width="0.4"/>
<path d="M7.8426 17.671C7.88565 17.4945 7.91149 17.3395 7.96315 17.1932C8.26021 16.3536 8.89309 15.9403 9.73693 15.7509C11.1749 15.428 12.544 15.5744 13.8657 16.2503C14.3393 16.4914 14.8387 16.7024 15.3467 16.8746C15.6524 16.9779 15.9882 17.0166 16.3154 17.0296C16.9655 17.0511 17.6199 17.0339 18.27 17.0382C18.7436 17.0382 18.9976 17.3008 18.9847 17.7744C18.9675 18.4159 18.7651 18.9928 18.3776 19.5568C18.6962 19.5568 18.9847 19.5654 19.2688 19.5525C19.3248 19.5481 19.3808 19.4706 19.4324 19.419C20.0352 18.8162 20.6336 18.2092 21.2406 17.6151C22.416 16.4656 24.263 16.4311 25.4857 17.529C25.8731 17.8777 25.886 18.2523 25.5201 18.6182C24.0132 20.1294 22.5021 21.6362 20.9952 23.1431C20.414 23.7243 19.7123 24.0084 18.8943 24.0084C14.5631 24.0084 10.232 24.0084 5.90092 24.0084C5.38859 23.9998 5.14319 23.7544 5.14319 23.2464C5.14319 21.6362 5.14319 20.026 5.14319 18.4116C5.14319 17.9078 5.38428 17.671 5.89661 17.671C6.5381 17.6667 7.18389 17.671 7.8426 17.671ZM9.1428 22.7125C9.24612 22.7125 9.32362 22.7125 9.40111 22.7125C12.5354 22.7125 15.6739 22.7082 18.8082 22.7168C19.3334 22.7168 19.7639 22.5446 20.1342 22.1701C21.4172 20.8785 22.7044 19.5955 23.9917 18.3082C24.0348 18.2652 24.0692 18.2178 24.1209 18.1618C24.0692 18.1403 24.0391 18.1188 24.0046 18.1102C23.277 17.882 22.6356 18.0327 22.0888 18.5708C21.4387 19.2166 20.7843 19.8581 20.1471 20.5168C19.9189 20.7493 19.6735 20.8526 19.3506 20.8483C17.3401 20.8397 15.3252 20.8397 13.3146 20.8397C13.0477 20.8397 12.7851 20.844 12.5181 20.8311C12.2684 20.8182 12.0876 20.6804 11.9843 20.4566C11.8853 20.237 11.9068 20.0217 12.0489 19.8237C12.1995 19.6084 12.4191 19.5438 12.6688 19.5438C13.6203 19.5481 14.5718 19.5481 15.5275 19.5481C15.7127 19.5481 15.9021 19.5481 16.0829 19.5309C16.7416 19.4577 17.3917 18.9239 17.5553 18.3168C17.1635 18.3168 16.7804 18.3125 16.3972 18.3168C15.7902 18.3254 15.196 18.2307 14.6363 17.9982C14.1197 17.7873 13.6074 17.5677 13.108 17.318C12.0359 16.7885 10.9381 16.754 9.80581 17.064C9.34084 17.1888 9.1428 17.4558 9.1428 17.9337C9.1428 19.0703 9.1428 20.2112 9.1428 21.3478C9.1428 21.7955 9.1428 22.2389 9.1428 22.7125ZM7.8426 22.6996C7.8426 21.4468 7.8426 20.2112 7.8426 18.9712C7.36902 18.9712 6.91266 18.9712 6.44338 18.9712C6.44338 20.2198 6.44338 21.4554 6.44338 22.6996C6.91266 22.6996 7.36902 22.6996 7.8426 22.6996Z" fill="#8D8E8D" stroke="#8D8E8D" stroke-width="0.4"/>
<g clip-path="url(#clip1_2098_3282)">
<path d="M17.9272 6.81472C17.9272 6.64857 17.9313 6.48201 17.9272 6.31586C17.924 6.22794 17.9571 6.20415 18.0406 6.20536C18.2773 6.2098 18.5144 6.21141 18.7507 6.20536C18.8516 6.20254 18.8802 6.23641 18.8786 6.33441C18.8733 6.64655 18.8814 6.95909 18.8745 7.27163C18.8721 7.38616 18.8991 7.43294 19.0238 7.4281C19.2956 7.42165 19.296 7.4281 19.296 7.70798C19.296 7.87413 19.2923 8.04069 19.296 8.20684C19.2984 8.28749 19.277 8.31975 19.1879 8.32137C18.8758 8.32782 18.8758 8.33185 18.8758 8.65165C18.8758 8.80772 18.8798 8.96419 18.8758 9.12026C18.8729 9.20576 18.902 9.23157 18.9875 9.23439C19.296 9.24326 19.296 9.24649 19.296 9.55258C19.296 9.70865 19.2923 9.86512 19.296 10.0212C19.2988 10.1059 19.2706 10.1321 19.1843 10.1337C18.8753 10.1402 18.8758 10.1438 18.8758 10.4519C18.8758 10.6886 18.8721 10.9257 18.8758 11.1621C18.8758 11.2556 18.8447 11.283 18.7548 11.281C18.493 11.2758 18.2305 11.2754 17.9688 11.281C17.9319 11.2846 17.8949 11.2768 17.8626 11.2587C17.8303 11.2406 17.8043 11.2131 17.7881 11.1798C17.601 10.8693 17.4058 10.5636 17.2203 10.2523C17.1687 10.1652 17.1134 10.126 17.007 10.1281C16.6492 10.1357 16.2915 10.1341 15.9338 10.1281C15.8346 10.1281 15.8056 10.1567 15.8076 10.2551C15.8137 10.5523 15.8052 10.8495 15.812 11.1467C15.8145 11.2548 15.7794 11.2839 15.6749 11.2802C15.4483 11.273 15.2212 11.2714 14.995 11.2802C14.876 11.2855 14.8514 11.2399 14.8534 11.133C14.8599 10.8459 14.8506 10.5588 14.8579 10.2716C14.8607 10.1611 14.8329 10.1236 14.7163 10.1264C14.4482 10.1329 14.4477 10.1264 14.4477 9.86149C14.4477 9.68526 14.451 9.50862 14.4477 9.33239C14.4477 9.25173 14.4756 9.23116 14.5526 9.22834C14.8571 9.21624 14.8571 9.21342 14.8571 8.90572C14.8571 8.74965 14.8526 8.59318 14.8571 8.43711C14.8603 8.34677 14.8325 8.31612 14.7385 8.31612C14.4477 8.3133 14.4477 8.30927 14.4477 8.01286C14.4477 7.85679 14.4526 7.70032 14.4477 7.54425C14.4437 7.4523 14.4728 7.42326 14.5663 7.42326C14.8579 7.41883 14.8579 7.41439 14.8579 7.11516C14.8579 6.85303 14.8607 6.5909 14.8579 6.32917C14.8579 6.24085 14.8797 6.20334 14.9764 6.20576C15.2333 6.21181 15.4902 6.21101 15.7471 6.20576C15.7817 6.203 15.8163 6.21086 15.8463 6.2283C15.8763 6.24574 15.9002 6.27193 15.9149 6.30336C16.1165 6.63969 16.327 6.972 16.5287 7.30914C16.5779 7.38979 16.6299 7.43012 16.7303 7.43012C17.088 7.42367 17.4457 7.42447 17.8034 7.43012C17.9018 7.43012 17.9361 7.40149 17.9317 7.30147C17.924 7.14016 17.9317 6.97885 17.9317 6.81754L17.9272 6.81472ZM17.1469 8.31895C17.3344 8.62504 17.5062 8.90693 17.6804 9.18761C17.7284 9.26464 17.8087 9.23036 17.8744 9.22794C17.9551 9.22471 17.9252 9.15374 17.9256 9.10978C17.9285 8.88313 17.9256 8.65649 17.9256 8.42985C17.9256 8.375 17.9361 8.31693 17.8478 8.31814C17.6248 8.32096 17.4002 8.31895 17.1469 8.31895ZM16.5851 9.23116L16.0512 8.36573C16.0028 8.28709 15.9242 8.31935 15.8592 8.32217C15.7786 8.32621 15.8116 8.39759 15.8112 8.44033C15.808 8.66657 15.8112 8.89281 15.8112 9.11905C15.8112 9.17229 15.7967 9.23318 15.8866 9.23197C16.1093 9.22955 16.3331 9.23116 16.5851 9.23116Z" fill="#8D8E8D"/>
</g>
</g>
<path d="M6.776 35.8823H1.58V27.3743H2.756V34.7783H6.776V35.8823ZM9.16363 34.5143C9.51563 34.8743 9.94363 35.0543 10.4476 35.0543C10.9516 35.0543 11.3756 34.8743 11.7196 34.5143C12.0716 34.1463 12.2476 33.6383 12.2476 32.9903C12.2476 32.3503 12.0716 31.8503 11.7196 31.4903C11.3756 31.1223 10.9516 30.9383 10.4476 30.9383C9.94363 30.9383 9.51563 31.1223 9.16363 31.4903C8.81963 31.8503 8.64763 32.3503 8.64763 32.9903C8.64763 33.6383 8.81963 34.1463 9.16363 34.5143ZM8.32363 30.8063C8.88363 30.2223 9.59163 29.9303 10.4476 29.9303C11.3036 29.9303 12.0076 30.2223 12.5596 30.8063C13.1196 31.3823 13.3996 32.1103 13.3996 32.9903C13.3996 33.8783 13.1236 34.6143 12.5716 35.1983C12.0196 35.7743 11.3116 36.0623 10.4476 36.0623C9.58363 36.0623 8.87563 35.7743 8.32363 35.1983C7.77163 34.6143 7.49563 33.8783 7.49563 32.9903C7.49563 32.1103 7.77163 31.3823 8.32363 30.8063ZM14.4828 34.3343C14.4828 33.8383 14.6428 33.4423 14.9628 33.1463C15.2828 32.8423 15.7068 32.6543 16.2348 32.5823L17.7948 32.3543C18.0908 32.3143 18.2388 32.1703 18.2388 31.9223C18.2388 31.6183 18.1348 31.3703 17.9268 31.1783C17.7188 30.9863 17.4068 30.8903 16.9908 30.8903C16.6068 30.8903 16.3028 30.9983 16.0788 31.2143C15.8548 31.4223 15.7228 31.7023 15.6828 32.0543L14.6028 31.8023C14.6588 31.2503 14.9108 30.8023 15.3588 30.4583C15.8068 30.1063 16.3428 29.9303 16.9668 29.9303C17.7828 29.9303 18.3868 30.1303 18.7788 30.5303C19.1708 30.9223 19.3668 31.4263 19.3668 32.0423V34.9343C19.3668 35.2783 19.3908 35.5943 19.4388 35.8823H18.3348C18.2948 35.6423 18.2748 35.3823 18.2748 35.1023C18.1148 35.3583 17.8788 35.5823 17.5668 35.7743C17.2628 35.9663 16.8788 36.0623 16.4148 36.0623C15.8468 36.0623 15.3828 35.8943 15.0228 35.5583C14.6628 35.2143 14.4828 34.8063 14.4828 34.3343ZM16.5708 35.1143C17.0748 35.1143 17.4788 34.9783 17.7828 34.7063C18.0868 34.4343 18.2388 34.0023 18.2388 33.4103V33.1463L16.4748 33.4103C16.2188 33.4503 16.0148 33.5423 15.8628 33.6863C15.7108 33.8303 15.6348 34.0263 15.6348 34.2743C15.6348 34.4983 15.7188 34.6943 15.8868 34.8623C16.0628 35.0303 16.2908 35.1143 16.5708 35.1143ZM22.2521 32.5463V35.8823H21.1241V30.1103H22.2281V30.9383C22.6121 30.2743 23.2041 29.9423 24.0041 29.9423C24.6681 29.9423 25.1761 30.1543 25.5281 30.5783C25.8881 31.0023 26.0681 31.5503 26.0681 32.2223V35.8823H24.9401V32.4143C24.9401 31.4463 24.4921 30.9623 23.5961 30.9623C23.1721 30.9623 22.8401 31.1143 22.6001 31.4183C22.3681 31.7143 22.2521 32.0903 22.2521 32.5463ZM27.3223 34.3823L28.3423 34.0223C28.3823 34.3343 28.5183 34.5943 28.7503 34.8023C28.9823 35.0023 29.2943 35.1023 29.6863 35.1023C29.9903 35.1023 30.2303 35.0303 30.4063 34.8863C30.5823 34.7343 30.6703 34.5503 30.6703 34.3343C30.6703 33.9503 30.4223 33.7023 29.9263 33.5903L28.9423 33.3743C28.4943 33.2783 28.1423 33.0863 27.8863 32.7983C27.6303 32.5103 27.5023 32.1623 27.5023 31.7543C27.5023 31.2583 27.7023 30.8303 28.1023 30.4703C28.5103 30.1103 28.9943 29.9303 29.5543 29.9303C29.9223 29.9303 30.2503 29.9863 30.5383 30.0983C30.8263 30.2023 31.0503 30.3423 31.2103 30.5183C31.3703 30.6943 31.4903 30.8583 31.5703 31.0103C31.6503 31.1623 31.7103 31.3183 31.7503 31.4783L30.7543 31.8503C30.7383 31.7543 30.7103 31.6623 30.6703 31.5743C30.6303 31.4783 30.5663 31.3743 30.4783 31.2623C30.3983 31.1503 30.2783 31.0623 30.1183 30.9983C29.9583 30.9263 29.7703 30.8903 29.5543 30.8903C29.2743 30.8903 29.0423 30.9663 28.8583 31.1183C28.6823 31.2703 28.5943 31.4503 28.5943 31.6583C28.5943 32.0263 28.8143 32.2583 29.2543 32.3543L30.1903 32.5583C30.7023 32.6703 31.0943 32.8783 31.3663 33.1823C31.6463 33.4783 31.7863 33.8423 31.7863 34.2743C31.7863 34.7303 31.5983 35.1423 31.2223 35.5103C30.8543 35.8783 30.3383 36.0623 29.6743 36.0623C28.9623 36.0623 28.4063 35.8863 28.0063 35.5343C27.6063 35.1743 27.3783 34.7903 27.3223 34.3823Z" fill="#8D8E8D"/>
<defs>
<clipPath id="clip0_2098_3282">
<rect width="20.6352" height="22" fill="white" transform="translate(5.14319 2)"/>
</clipPath>
<clipPath id="clip1_2098_3282">
<rect width="4.84984" height="5.07769" fill="white" transform="translate(14.4448 6.20467)"/>
</clipPath>
</defs>
</svg>
