<svg width="359" height="120" viewBox="0 0 359 120" fill="none" xmlns="http://www.w3.org/2000/svg">
<g filter="url(#filter0_d_6_1404)">
<g clip-path="url(#clip0_6_1404)">
<rect x="0.189941" width="358" height="120" rx="24" fill="#11453B"/>
<g opacity="0.1">
<path d="M67.3462 6.30893V110.791C-12.5906 65.0322 -60.7747 70.8998 -149.732 110.586C-239.658 153.682 -287.262 154.153 -366.81 110.381V6.30893C-285.101 50.2121 -237.999 49.9435 -151.782 6.30893C-60.444 -34.4357 -11.9879 -38.1687 67.3462 6.30893Z" fill="#D9EBCD" fill-opacity="0.7"/>
<path d="M501.503 6.30893V110.791C421.566 65.0322 373.382 70.8998 284.425 110.586C194.499 153.682 146.895 154.153 67.3465 110.381V6.30893C149.056 50.2121 196.157 49.9435 282.374 6.30893C373.713 -34.4357 422.169 -38.1687 501.503 6.30893Z" fill="#D9EBCD" fill-opacity="0.7"/>
</g>
<path d="M24.5399 32.2V33.32H27.7179V42H28.9359V33.32H32.1139V32.2H24.5399ZM33.6796 41.622C34.2116 41.93 34.8276 42.084 35.5276 42.084C36.2136 42.084 36.8296 41.93 37.3616 41.622C37.8936 41.314 38.3136 40.894 38.6216 40.334C38.9156 39.788 39.0696 39.158 39.0696 38.43C39.0696 37.716 38.9156 37.086 38.6216 36.526C38.3136 35.98 37.8936 35.546 37.3616 35.238C36.8296 34.93 36.2136 34.776 35.5276 34.776C34.8276 34.776 34.2116 34.93 33.6796 35.238C33.1476 35.546 32.7276 35.98 32.4336 36.526C32.1256 37.086 31.9856 37.716 31.9856 38.43C31.9856 39.158 32.1256 39.788 32.4336 40.334C32.7276 40.894 33.1476 41.314 33.6796 41.622ZM36.7596 40.726C36.3956 40.95 35.9896 41.062 35.5276 41.062C35.0516 41.062 34.6456 40.95 34.2816 40.726C33.9176 40.502 33.6516 40.194 33.4556 39.788C33.2596 39.396 33.1616 38.934 33.1616 38.43C33.1616 37.926 33.2596 37.478 33.4556 37.072C33.6516 36.68 33.9176 36.358 34.2816 36.134C34.6456 35.91 35.0516 35.798 35.5276 35.798C35.9896 35.798 36.3956 35.91 36.7596 36.134C37.1236 36.358 37.4036 36.68 37.5996 37.072C37.7956 37.478 37.8936 37.926 37.8936 38.43C37.8936 38.934 37.7956 39.396 37.5996 39.788C37.4036 40.194 37.1236 40.502 36.7596 40.726ZM41.03 35.91V40.138C41.03 40.782 41.17 41.258 41.45 41.552C41.73 41.86 42.22 42 42.892 42H44.208V40.95H42.962C42.668 40.95 42.458 40.894 42.346 40.768C42.234 40.642 42.178 40.432 42.178 40.124V35.91H43.984V34.86H42.178V32.858H41.03V34.86H39.742V35.91H41.03ZM51.8433 40.95H51.4933C51.1713 40.95 51.0173 40.782 51.0173 40.432V37.352C51.0173 36.526 50.7653 35.896 50.2613 35.448C49.7573 35 49.0573 34.776 48.1473 34.776C47.2793 34.776 46.5793 34.972 46.0473 35.364C45.5153 35.756 45.2073 36.302 45.1233 37.002H46.2713C46.3413 36.638 46.5373 36.358 46.8593 36.134C47.1813 35.91 47.5873 35.798 48.0913 35.798C48.6513 35.798 49.0853 35.938 49.3933 36.19C49.7013 36.456 49.8693 36.82 49.8693 37.282V37.772H47.7693C46.8313 37.772 46.1173 37.968 45.6273 38.346C45.1373 38.738 44.8993 39.284 44.8993 39.998C44.8993 40.642 45.1373 41.16 45.6133 41.524C46.0893 41.902 46.7333 42.084 47.5313 42.084C48.5673 42.084 49.3653 41.692 49.9253 40.894C49.9253 41.258 50.0373 41.538 50.2333 41.72C50.4293 41.916 50.7513 42 51.2133 42H51.8433V40.95ZM49.8693 38.738V39.088C49.8693 39.704 49.6593 40.194 49.2673 40.558C48.8613 40.922 48.3153 41.104 47.6153 41.104C47.1393 41.104 46.7613 41.006 46.4813 40.782C46.2013 40.572 46.0613 40.292 46.0613 39.928C46.0613 39.144 46.5933 38.738 47.6573 38.738H49.8693ZM52.9759 32.2V42H54.1239V32.2H52.9759ZM60.0287 32.2V42H66.4547V40.88H61.2467V37.576H65.4327V36.456H61.2467V33.32H66.2727V32.2H60.0287ZM77.8156 35.532C77.3116 35.028 76.6676 34.776 75.8696 34.776C74.7216 34.776 73.8956 35.238 73.3916 36.134C73.1956 35.686 72.8876 35.35 72.4956 35.126C72.1036 34.902 71.6416 34.776 71.1376 34.776C70.2556 34.776 69.5556 35.14 69.0516 35.84L68.8976 34.86H67.9036V42H69.0516V38.234C69.0516 37.52 69.2196 36.946 69.5556 36.498C69.8916 36.05 70.3536 35.826 70.9416 35.826C71.4876 35.826 71.9076 36.008 72.2156 36.372C72.5096 36.736 72.6636 37.268 72.6636 37.954V42H73.8116V38.178C73.8116 37.45 73.9796 36.876 74.3156 36.456C74.6516 36.036 75.1276 35.826 75.7296 35.826C76.2616 35.826 76.6816 36.008 76.9756 36.372C77.2696 36.736 77.4236 37.268 77.4236 37.954V42H78.5716V37.884C78.5716 36.82 78.3196 36.036 77.8156 35.532ZM85.6563 35.21C85.1383 34.93 84.5503 34.776 83.8923 34.776C82.8563 34.776 82.0303 35.196 81.4423 36.008L81.2883 34.86H80.2943V44.8H81.4423V40.908C81.6663 41.272 81.9883 41.566 82.4083 41.776C82.8143 41.986 83.3043 42.084 83.8923 42.084C84.5363 42.084 85.1243 41.93 85.6563 41.622C86.1743 41.314 86.5803 40.894 86.8743 40.334C87.1683 39.788 87.3223 39.158 87.3223 38.43C87.3223 37.674 87.1683 37.03 86.8743 36.47C86.5803 35.924 86.1743 35.504 85.6563 35.21ZM85.4883 40.334C85.0543 40.824 84.4803 41.062 83.7803 41.062C83.3183 41.062 82.9123 40.95 82.5483 40.726C82.1843 40.502 81.9183 40.194 81.7223 39.788C81.5263 39.382 81.4283 38.92 81.4283 38.402C81.4283 37.898 81.5263 37.45 81.7223 37.058C81.9183 36.666 82.1843 36.358 82.5483 36.134C82.9123 35.91 83.3183 35.798 83.7803 35.798C84.4803 35.798 85.0543 36.05 85.4883 36.54C85.9223 37.03 86.1463 37.66 86.1463 38.43C86.1463 39.214 85.9223 39.844 85.4883 40.334ZM88.8841 32.2V42H90.0321V32.2H88.8841ZM93.2968 41.622C93.8288 41.93 94.4448 42.084 95.1448 42.084C95.8308 42.084 96.4468 41.93 96.9788 41.622C97.5108 41.314 97.9308 40.894 98.2388 40.334C98.5328 39.788 98.6868 39.158 98.6868 38.43C98.6868 37.716 98.5328 37.086 98.2388 36.526C97.9308 35.98 97.5108 35.546 96.9788 35.238C96.4468 34.93 95.8308 34.776 95.1448 34.776C94.4448 34.776 93.8288 34.93 93.2968 35.238C92.7648 35.546 92.3448 35.98 92.0508 36.526C91.7428 37.086 91.6028 37.716 91.6028 38.43C91.6028 39.158 91.7428 39.788 92.0508 40.334C92.3448 40.894 92.7648 41.314 93.2968 41.622ZM96.3768 40.726C96.0128 40.95 95.6068 41.062 95.1448 41.062C94.6688 41.062 94.2628 40.95 93.8988 40.726C93.5348 40.502 93.2688 40.194 93.0728 39.788C92.8768 39.396 92.7788 38.934 92.7788 38.43C92.7788 37.926 92.8768 37.478 93.0728 37.072C93.2688 36.68 93.5348 36.358 93.8988 36.134C94.2628 35.91 94.6688 35.798 95.1448 35.798C95.6068 35.798 96.0128 35.91 96.3768 36.134C96.7408 36.358 97.0208 36.68 97.2168 37.072C97.4128 37.478 97.5108 37.926 97.5108 38.43C97.5108 38.934 97.4128 39.396 97.2168 39.788C97.0208 40.194 96.7408 40.502 96.3768 40.726ZM100.484 34.86H99.2658L102.066 42.056L101.702 42.91C101.59 43.162 101.506 43.344 101.436 43.456C101.366 43.568 101.282 43.638 101.17 43.68C101.058 43.736 100.89 43.75 100.666 43.75H99.6438V44.8H101.016C101.338 44.8 101.604 44.758 101.8 44.646C101.996 44.548 102.15 44.394 102.29 44.17C102.416 43.96 102.57 43.638 102.738 43.204L106.028 34.86H104.81L102.682 40.684L100.484 34.86ZM107.029 36.512C106.749 37.072 106.609 37.702 106.609 38.43C106.609 39.158 106.749 39.788 107.043 40.348C107.337 40.908 107.757 41.328 108.289 41.636C108.821 41.944 109.437 42.084 110.151 42.084C110.963 42.084 111.649 41.86 112.209 41.398C112.769 40.936 113.119 40.334 113.259 39.606H112.097C111.971 40.068 111.733 40.432 111.369 40.684C111.005 40.936 110.571 41.062 110.067 41.062C109.395 41.062 108.863 40.852 108.457 40.432C108.037 40.012 107.827 39.452 107.813 38.752V38.654H113.357C113.371 38.43 113.385 38.276 113.385 38.164C113.357 37.478 113.203 36.876 112.923 36.358C112.629 35.854 112.237 35.462 111.733 35.182C111.229 34.916 110.641 34.776 109.997 34.776C109.325 34.776 108.737 34.93 108.233 35.238C107.715 35.546 107.309 35.966 107.029 36.512ZM112.195 37.702H107.883C107.939 37.142 108.163 36.68 108.583 36.316C108.989 35.966 109.465 35.784 110.011 35.784C110.613 35.784 111.117 35.952 111.509 36.288C111.901 36.624 112.139 37.1 112.195 37.702ZM115.113 36.512C114.833 37.072 114.693 37.702 114.693 38.43C114.693 39.158 114.833 39.788 115.127 40.348C115.421 40.908 115.841 41.328 116.373 41.636C116.905 41.944 117.521 42.084 118.235 42.084C119.047 42.084 119.733 41.86 120.293 41.398C120.853 40.936 121.203 40.334 121.343 39.606H120.181C120.055 40.068 119.817 40.432 119.453 40.684C119.089 40.936 118.655 41.062 118.151 41.062C117.479 41.062 116.947 40.852 116.541 40.432C116.121 40.012 115.911 39.452 115.897 38.752V38.654H121.441C121.455 38.43 121.469 38.276 121.469 38.164C121.441 37.478 121.287 36.876 121.007 36.358C120.713 35.854 120.321 35.462 119.817 35.182C119.313 34.916 118.725 34.776 118.081 34.776C117.409 34.776 116.821 34.93 116.317 35.238C115.799 35.546 115.393 35.966 115.113 36.512ZM120.279 37.702H115.967C116.023 37.142 116.247 36.68 116.667 36.316C117.073 35.966 117.549 35.784 118.095 35.784C118.697 35.784 119.201 35.952 119.593 36.288C119.985 36.624 120.223 37.1 120.279 37.702Z" fill="white"/>
<path d="M32.7859 65.4H28.8379V67.304C28.8379 67.864 28.6979 68.34 28.4459 68.732C28.1939 69.124 27.8299 69.292 27.3539 69.292H24.4139V72.624H27.6899C28.1379 72.624 28.5019 72.596 28.7539 72.484V85H32.7859V65.4ZM43.1219 65.4H39.1739V67.304C39.1739 67.864 39.0339 68.34 38.7819 68.732C38.5299 69.124 38.1659 69.292 37.6899 69.292H34.7499V72.624H38.0259C38.4739 72.624 38.8379 72.596 39.0899 72.484V85H43.1219V65.4ZM53.1498 75.732L45.7298 81.892V85H60.0938V81.612H51.5538L55.9498 78.028C57.3218 76.908 58.3298 75.872 59.0018 74.892C59.6738 73.912 60.0098 72.736 60.0098 71.392C60.0098 69.516 59.3658 68.004 58.1058 66.884C56.8458 65.764 55.0818 65.204 52.7858 65.204C51.3578 65.204 50.0978 65.512 49.0338 66.072C47.9418 66.632 47.1018 67.416 46.5138 68.424C45.9258 69.432 45.6458 70.552 45.6458 71.784V72.316H49.7058V72.008C49.7058 70.972 49.9858 70.132 50.5458 69.516C51.1058 68.9 51.8618 68.592 52.7858 68.592C53.7378 68.592 54.4938 68.872 55.0538 69.376C55.6138 69.88 55.9218 70.608 55.9218 71.56C55.9218 72.316 55.6978 73.016 55.2498 73.632C54.8018 74.276 54.1018 74.976 53.1498 75.732ZM62.4226 79.12C62.7306 80.268 63.1786 81.248 63.7666 82.088C64.4386 83.096 65.3066 83.852 66.3706 84.384C67.4346 84.916 68.6386 85.168 69.9826 85.168C71.4106 85.168 72.6706 84.916 73.7906 84.356C74.9106 83.796 75.7506 83.012 76.3666 82.004C76.9826 80.996 77.2906 79.848 77.2906 78.504C77.2906 77.216 77.0106 76.068 76.4506 75.06C75.8906 74.052 75.1066 73.268 74.0986 72.708C73.0906 72.148 71.9426 71.868 70.6546 71.868C69.6466 71.868 68.7506 72.092 67.9386 72.484C67.1266 72.904 66.4826 73.464 66.0346 74.164L65.7826 74.584V74.108C65.7826 72.316 66.1186 70.916 66.7906 69.936C67.4626 68.956 68.4426 68.452 69.7306 68.452C70.5986 68.452 71.3266 68.676 71.9146 69.096C72.4746 69.544 72.8666 70.132 73.0626 70.916H77.0386C76.8146 69.18 76.0586 67.78 74.7706 66.744C73.4826 65.736 71.8866 65.204 70.0386 65.204C68.3866 65.204 66.9586 65.624 65.7546 66.408C64.5226 67.192 63.5986 68.368 62.9546 69.88C62.2826 71.42 61.9746 73.268 61.9746 75.396C61.9746 76.74 62.1146 78 62.4226 79.12ZM72.3906 75.984C72.9786 76.656 73.2866 77.496 73.2866 78.504C73.2866 79.512 72.9786 80.352 72.3626 81.024C71.7466 81.696 70.9346 82.004 69.9546 82.004C68.9466 82.004 68.1626 81.696 67.5466 81.024C66.9306 80.38 66.6506 79.54 66.6506 78.504C66.6506 77.496 66.9586 76.656 67.5746 75.984C68.1906 75.34 69.0026 75.004 70.0106 75.004C70.9906 75.004 71.7746 75.34 72.3906 75.984ZM78.8639 77.468V80.8H88.5519V85H92.4999V80.8H95.2159V77.44H92.4999V65.4H87.5159L78.8639 77.468ZM82.6999 77.44L88.5519 69.32V77.44H82.6999Z" fill="white"/>
</g>
</g>
<defs>
<filter id="filter0_d_6_1404" x="-47.8101" y="-28" width="454" height="216" filterUnits="userSpaceOnUse" color-interpolation-filters="sRGB">
<feFlood flood-opacity="0" result="BackgroundImageFix"/>
<feColorMatrix in="SourceAlpha" type="matrix" values="0 0 0 0 0 0 0 0 0 0 0 0 0 0 0 0 0 0 127 0" result="hardAlpha"/>
<feOffset dy="20"/>
<feGaussianBlur stdDeviation="24"/>
<feColorMatrix type="matrix" values="0 0 0 0 0.666667 0 0 0 0 0.666667 0 0 0 0 0.666667 0 0 0 0.29 0"/>
<feBlend mode="normal" in2="BackgroundImageFix" result="effect1_dropShadow_6_1404"/>
<feBlend mode="normal" in="SourceGraphic" in2="effect1_dropShadow_6_1404" result="shape"/>
</filter>
<clipPath id="clip0_6_1404">
<rect x="0.189941" width="358" height="120" rx="24" fill="white"/>
</clipPath>
</defs>
</svg>
