<svg width="19" height="18" viewBox="0 0 19 18" fill="none" xmlns="http://www.w3.org/2000/svg">
<path fill-rule="evenodd" clip-rule="evenodd" d="M15.04 11.25H11.44L11.44 14.85H15.04V11.25ZM11.44 9.89996H15.04C15.7856 9.89996 16.39 10.5044 16.39 11.25V14.85C16.39 15.5955 15.7856 16.2 15.04 16.2H11.44C10.6944 16.2 10.09 15.5955 10.09 14.85V11.25C10.09 10.5044 10.6944 9.89996 11.44 9.89996Z" fill="#B5B6B5"/>
<path fill-rule="evenodd" clip-rule="evenodd" d="M6.93999 3.14999H3.33999L3.33999 6.74999H6.93999V3.14999ZM15.04 3.14999H11.44V6.74999H15.04V3.14999ZM6.93999 11.25H3.33999L3.33999 14.85H6.93999V11.25ZM6.93999 1.79999H3.33999C2.59441 1.79999 1.98999 2.4044 1.98999 3.14999V6.74999C1.98999 7.49557 2.59441 8.09999 3.33999 8.09999H6.93999C7.68558 8.09999 8.28999 7.49557 8.28999 6.74999V3.14999C8.28999 2.4044 7.68557 1.79999 6.93999 1.79999ZM15.04 1.79999H11.44C10.6944 1.79999 10.09 2.4044 10.09 3.14999V6.74999C10.09 7.49557 10.6944 8.09999 11.44 8.09999H15.04C15.7856 8.09999 16.39 7.49557 16.39 6.74999V3.14999C16.39 2.4044 15.7856 1.79999 15.04 1.79999ZM3.33999 9.89999H6.93999C7.68557 9.89999 8.28999 10.5044 8.28999 11.25V14.85C8.28999 15.5956 7.68558 16.2 6.93999 16.2H3.33999C2.59441 16.2 1.98999 15.5956 1.98999 14.85V11.25C1.98999 10.5044 2.59441 9.89999 3.33999 9.89999Z" fill="#B5B6B5"/>
</svg>
