<svg width="34" height="42" viewBox="0 0 34 42" fill="none" xmlns="http://www.w3.org/2000/svg">
<path d="M12.4946 1.90869C12.6587 1.96163 12.8281 2.00399 12.9922 2.06752C13.9717 2.42224 14.6494 3.33815 14.6547 4.38112C14.6652 6.11235 14.6705 7.84888 14.6547 9.58011C14.6388 10.9249 13.5376 12.0314 12.1928 12.042C10.4616 12.0578 8.72505 12.0578 6.99382 12.042C5.64907 12.0261 4.54257 10.9249 4.52668 9.58011C4.5108 7.84888 4.5108 6.11235 4.52668 4.38112C4.53727 3.22697 5.3473 2.25282 6.49086 1.97222C6.5544 1.95634 6.61793 1.92987 6.68675 1.90869C8.61917 1.90869 10.5569 1.90869 12.4946 1.90869ZM9.58802 3.59757C8.76741 3.59757 7.95209 3.59757 7.13147 3.59757C6.55439 3.59757 6.21027 3.9364 6.20497 4.51348C6.20497 6.16 6.20497 7.80652 6.20497 9.45305C6.20497 10.0089 6.55439 10.3584 7.11559 10.3584C8.76211 10.3584 10.4086 10.3584 12.0552 10.3584C12.6164 10.3584 12.9658 10.0142 12.9658 9.45305C12.9711 7.80652 12.9658 6.16 12.9658 4.51348C12.9658 3.9417 12.6164 3.59757 12.0446 3.59757C11.224 3.59757 10.4086 3.59757 9.58802 3.59757Z" fill="#8D8E8D"/>
<path d="M26.4876 9.887C26.4452 10.0299 26.4082 10.1676 26.3605 10.3105C26.027 11.327 25.0846 12.0418 24.0151 12.0471C22.2839 12.0629 20.5474 12.0629 18.8162 12.0471C17.4714 12.0312 16.3649 10.9247 16.3543 9.58522C16.3384 7.85399 16.3384 6.11747 16.3543 4.38623C16.3649 3.23208 17.1749 2.25793 18.3185 1.97734C18.382 1.96145 18.4456 1.93498 18.5144 1.9138C20.4521 1.9138 22.3898 1.9138 24.3222 1.9138C24.3699 1.92969 24.4175 1.95616 24.4652 1.96675C25.4023 2.18911 26.0323 2.75559 26.3605 3.66092C26.4082 3.79857 26.4452 3.94151 26.4876 4.08446C26.4876 6.01158 26.4876 7.94929 26.4876 9.887ZM21.4209 10.3582C22.2469 10.3582 23.0781 10.3635 23.904 10.3582C24.4493 10.3582 24.7987 10.0088 24.7987 9.46875C24.804 7.81164 24.804 6.15982 24.7987 4.50271C24.7987 3.94681 24.444 3.59739 23.8881 3.59739C22.2416 3.59739 20.595 3.59739 18.9485 3.59739C18.3873 3.59739 18.0379 3.94152 18.0379 4.50271C18.0379 6.14923 18.0379 7.79575 18.0379 9.44228C18.0379 10.0141 18.3873 10.3582 18.9644 10.3582C19.785 10.3635 20.6003 10.3582 21.4209 10.3582Z" fill="#8D8E8D"/>
<path d="M26.4877 19.3372C26.4347 19.5649 26.3924 19.7978 26.3341 20.0255C25.7729 22.3338 23.6658 23.9327 21.2622 23.8744C18.9274 23.8215 16.8997 22.1009 16.4497 19.8031C15.8091 16.5472 18.3662 13.5876 21.6804 13.7412C24.0893 13.8524 26.1382 15.7424 26.4347 18.1248C26.4453 18.1937 26.4665 18.2625 26.4824 18.326C26.4876 18.6702 26.4877 19.0037 26.4877 19.3372ZM24.7988 18.8025C24.7988 16.9601 23.2846 15.4353 21.4475 15.4301C19.568 15.4248 18.0433 16.9336 18.0433 18.8025C18.0433 20.6767 19.5574 22.1909 21.4369 22.1909C23.2899 22.1909 24.7988 20.6714 24.7988 18.8025Z" fill="#8D8E8D"/>
<path d="M9.56175 23.8795C8.75173 23.8795 7.9417 23.8795 7.13167 23.8795C5.61751 23.8742 4.52159 22.7783 4.5163 21.2641C4.51101 19.6282 4.51101 17.9923 4.5163 16.3563C4.52159 14.8422 5.61751 13.7463 7.13167 13.741C8.76761 13.7357 10.4035 13.7357 12.0395 13.741C13.5536 13.7463 14.6496 14.8369 14.6549 16.3563C14.6601 17.9923 14.6601 19.6282 14.6549 21.2641C14.6496 22.7836 13.5589 23.8742 12.0395 23.8795C11.2189 23.8848 10.3877 23.8795 9.56175 23.8795ZM9.59881 15.4298C8.7782 15.4298 7.96288 15.4298 7.14226 15.4298C6.5493 15.4298 6.21047 15.7687 6.21047 16.3669C6.21047 17.9976 6.21047 19.6229 6.21047 21.2535C6.21047 21.8465 6.5493 22.1906 7.14226 22.1906C8.7729 22.1906 10.3982 22.1906 12.0289 22.1906C12.6377 22.1906 12.9713 21.8518 12.9766 21.243C12.9766 19.6229 12.9766 18.0029 12.9766 16.3828C12.9766 15.7687 12.643 15.4298 12.0342 15.4298C11.2136 15.4298 10.4035 15.4298 9.59881 15.4298Z" fill="#8D8E8D"/>
<path d="M10.772 36H9.608V29.376L6.704 36H5.624L2.744 29.376V36H1.58V27.492H3.176L6.176 34.416L9.2 27.492H10.772V36ZM14.0035 34.632C14.3555 34.992 14.7835 35.172 15.2875 35.172C15.7915 35.172 16.2155 34.992 16.5595 34.632C16.9115 34.264 17.0875 33.756 17.0875 33.108C17.0875 32.468 16.9115 31.968 16.5595 31.608C16.2155 31.24 15.7915 31.056 15.2875 31.056C14.7835 31.056 14.3555 31.24 14.0035 31.608C13.6595 31.968 13.4875 32.468 13.4875 33.108C13.4875 33.756 13.6595 34.264 14.0035 34.632ZM13.1635 30.924C13.7235 30.34 14.4315 30.048 15.2875 30.048C16.1435 30.048 16.8475 30.34 17.3995 30.924C17.9595 31.5 18.2395 32.228 18.2395 33.108C18.2395 33.996 17.9635 34.732 17.4115 35.316C16.8595 35.892 16.1515 36.18 15.2875 36.18C14.4235 36.18 13.7155 35.892 13.1635 35.316C12.6115 34.732 12.3355 33.996 12.3355 33.108C12.3355 32.228 12.6115 31.5 13.1635 30.924ZM22.8867 30.168V31.368C22.7187 31.344 22.5547 31.332 22.3947 31.332C21.3387 31.332 20.8107 31.924 20.8107 33.108V36H19.6827V30.228H20.7867V31.236C21.1387 30.5 21.7147 30.132 22.5147 30.132C22.6427 30.132 22.7667 30.144 22.8867 30.168ZM24.7623 32.52H27.9183C27.9023 32.088 27.7583 31.736 27.4863 31.464C27.2143 31.184 26.8303 31.044 26.3343 31.044C25.8863 31.044 25.5183 31.192 25.2303 31.488C24.9423 31.776 24.7863 32.12 24.7623 32.52ZM28.0863 34.02L29.0583 34.356C28.8903 34.892 28.5783 35.332 28.1223 35.676C27.6663 36.012 27.1143 36.18 26.4663 36.18C25.6583 36.18 24.9703 35.904 24.4023 35.352C23.8423 34.792 23.5623 34.04 23.5623 33.096C23.5623 32.216 23.8343 31.488 24.3783 30.912C24.9223 30.336 25.5703 30.048 26.3223 30.048C27.1943 30.048 27.8743 30.324 28.3623 30.876C28.8503 31.42 29.0943 32.152 29.0943 33.072C29.0943 33.216 29.0863 33.336 29.0703 33.432H24.7263C24.7343 33.944 24.9023 34.364 25.2303 34.692C25.5663 35.02 25.9783 35.184 26.4663 35.184C27.2903 35.184 27.8303 34.796 28.0863 34.02Z" fill="#8D8E8D"/>
</svg>
