<svg width="54" height="41" viewBox="0 0 54 41" fill="none" xmlns="http://www.w3.org/2000/svg">
<path d="M33 7.7189V10.7189M33 10.7189V13.7189M33 10.7189H36M33 10.7189H30M27.75 6.5939C27.75 8.45786 26.239 9.9689 24.375 9.9689C22.511 9.9689 21 8.45786 21 6.5939C21 4.72994 22.511 3.2189 24.375 3.2189C26.239 3.2189 27.75 4.72994 27.75 6.5939ZM18.0009 19.4532C18.0003 19.4169 18 19.3804 18 19.3439C18 15.8231 20.8542 12.9689 24.375 12.9689C27.8958 12.9689 30.75 15.8231 30.75 19.3439V19.3464C30.75 19.3821 30.7497 19.4177 30.7491 19.4532C28.8874 20.5741 26.7065 21.2189 24.375 21.2189C22.0435 21.2189 19.8626 20.5741 18.0009 19.4532Z" stroke="#8D8E8D" stroke-width="2" stroke-linecap="round" stroke-linejoin="round"/>
<path d="M6.752 34.7069H1.58V26.1989H6.752V27.2909H2.756V29.9069H6.38V31.0109H2.756V33.6149H6.752V34.7069ZM9.37288 34.7069H8.25688V28.9349H9.33688V29.7029C9.51288 29.3989 9.76088 29.1669 10.0809 29.0069C10.4009 28.8469 10.7369 28.7669 11.0889 28.7669C11.4649 28.7669 11.8089 28.8589 12.1209 29.0429C12.4329 29.2269 12.6649 29.4989 12.8169 29.8589C13.2169 29.1309 13.8609 28.7669 14.7489 28.7669C15.3009 28.7669 15.7689 28.9549 16.1529 29.3309C16.5449 29.7069 16.7409 30.2509 16.7409 30.9629V34.7069H15.6249V31.0829C15.6249 30.6829 15.5209 30.3629 15.3129 30.1229C15.1129 29.8829 14.8089 29.7629 14.4009 29.7629C14.0089 29.7629 13.6889 29.9029 13.4409 30.1829C13.1929 30.4549 13.0689 30.7989 13.0689 31.2149V34.7069H11.9409V31.0829C11.9409 30.6829 11.8369 30.3629 11.6289 30.1229C11.4289 29.8829 11.1249 29.7629 10.7169 29.7629C10.3169 29.7629 9.99288 29.8989 9.74488 30.1709C9.49688 30.4429 9.37288 30.7949 9.37288 31.2269V34.7069ZM19.6619 36.9869H18.5459V28.9349H19.6379V29.8349C19.8059 29.5309 20.0579 29.2829 20.3939 29.0909C20.7299 28.8989 21.1219 28.8029 21.5699 28.8029C22.4019 28.8029 23.0499 29.0869 23.5139 29.6549C23.9859 30.2229 24.2219 30.9429 24.2219 31.8149C24.2219 32.6949 23.9779 33.4229 23.4899 33.9989C23.0099 34.5749 22.3579 34.8629 21.5339 34.8629C21.1099 34.8629 20.7339 34.7749 20.4059 34.5989C20.0779 34.4229 19.8299 34.1989 19.6619 33.9269V36.9869ZM23.0699 31.8149C23.0699 31.2309 22.9139 30.7509 22.6019 30.3749C22.2979 29.9909 21.8859 29.7989 21.3659 29.7989C20.8539 29.7989 20.4379 29.9909 20.1179 30.3749C19.8059 30.7509 19.6499 31.2309 19.6499 31.8149C19.6499 32.4149 19.8059 32.9069 20.1179 33.2909C20.4379 33.6669 20.8539 33.8549 21.3659 33.8549C21.8779 33.8549 22.2899 33.6669 22.6019 33.2909C22.9139 32.9069 23.0699 32.4149 23.0699 31.8149ZM26.7872 34.7069H25.6592V26.0189H26.7872V34.7069ZM29.8941 33.3389C30.2461 33.6989 30.6741 33.8789 31.1781 33.8789C31.6821 33.8789 32.1061 33.6989 32.4501 33.3389C32.8021 32.9709 32.9781 32.4629 32.9781 31.8149C32.9781 31.1749 32.8021 30.6749 32.4501 30.3149C32.1061 29.9469 31.6821 29.7629 31.1781 29.7629C30.6741 29.7629 30.2461 29.9469 29.8941 30.3149C29.5501 30.6749 29.3781 31.1749 29.3781 31.8149C29.3781 32.4629 29.5501 32.9709 29.8941 33.3389ZM29.0541 29.6309C29.6141 29.0469 30.3221 28.7549 31.1781 28.7549C32.0341 28.7549 32.7381 29.0469 33.2901 29.6309C33.8501 30.2069 34.1301 30.9349 34.1301 31.8149C34.1301 32.7029 33.8541 33.4389 33.3021 34.0229C32.7501 34.5989 32.0421 34.8869 31.1781 34.8869C30.3141 34.8869 29.6061 34.5989 29.0541 34.0229C28.5021 33.4389 28.2261 32.7029 28.2261 31.8149C28.2261 30.9349 28.5021 30.2069 29.0541 29.6309ZM36.7789 37.1189H35.5429L36.9829 34.0709L34.4989 28.9349H35.7949L37.5949 32.9189L39.3229 28.9349H40.5349L36.7789 37.1189ZM42.1178 31.2269H45.2738C45.2578 30.7949 45.1138 30.4429 44.8418 30.1709C44.5698 29.8909 44.1858 29.7509 43.6898 29.7509C43.2418 29.7509 42.8738 29.8989 42.5858 30.1949C42.2978 30.4829 42.1418 30.8269 42.1178 31.2269ZM45.4418 32.7269L46.4138 33.0629C46.2458 33.5989 45.9338 34.0389 45.4778 34.3829C45.0218 34.7189 44.4698 34.8869 43.8218 34.8869C43.0138 34.8869 42.3258 34.6109 41.7578 34.0589C41.1978 33.4989 40.9178 32.7469 40.9178 31.8029C40.9178 30.9229 41.1898 30.1949 41.7338 29.6189C42.2778 29.0429 42.9258 28.7549 43.6778 28.7549C44.5498 28.7549 45.2298 29.0309 45.7178 29.5829C46.2058 30.1269 46.4498 30.8589 46.4498 31.7789C46.4498 31.9229 46.4418 32.0429 46.4258 32.1389H42.0818C42.0898 32.6509 42.2578 33.0709 42.5858 33.3989C42.9218 33.7269 43.3338 33.8909 43.8218 33.8909C44.6458 33.8909 45.1858 33.5029 45.4418 32.7269ZM48.6217 31.2269H51.7777C51.7617 30.7949 51.6177 30.4429 51.3457 30.1709C51.0737 29.8909 50.6897 29.7509 50.1937 29.7509C49.7457 29.7509 49.3777 29.8989 49.0897 30.1949C48.8017 30.4829 48.6457 30.8269 48.6217 31.2269ZM51.9457 32.7269L52.9177 33.0629C52.7497 33.5989 52.4377 34.0389 51.9817 34.3829C51.5257 34.7189 50.9737 34.8869 50.3257 34.8869C49.5177 34.8869 48.8297 34.6109 48.2617 34.0589C47.7017 33.4989 47.4217 32.7469 47.4217 31.8029C47.4217 30.9229 47.6937 30.1949 48.2377 29.6189C48.7817 29.0429 49.4297 28.7549 50.1817 28.7549C51.0537 28.7549 51.7337 29.0309 52.2217 29.5829C52.7097 30.1269 52.9537 30.8589 52.9537 31.7789C52.9537 31.9229 52.9457 32.0429 52.9297 32.1389H48.5857C48.5937 32.6509 48.7617 33.0709 49.0897 33.3989C49.4257 33.7269 49.8377 33.8909 50.3257 33.8909C51.1497 33.8909 51.6897 33.5029 51.9457 32.7269Z" fill="#8D8E8D"/>
</svg>
