<svg width="358" height="192" viewBox="0 0 358 192" fill="none" xmlns="http://www.w3.org/2000/svg">
<g filter="url(#filter0_d_4_6394)">
<g clip-path="url(#clip0_4_6394)">
<rect width="358" height="192" rx="24" fill="#11453B"/>
<g opacity="0.1">
<path d="M-144.118 200.511V304.992C-64.1811 259.234 -15.9971 265.102 72.9603 304.788C162.886 347.884 210.49 348.355 290.039 304.583V200.511C208.329 244.414 161.228 244.145 75.0105 200.511C-16.3277 159.766 -64.7838 156.033 -144.118 200.511Z" fill="#D9EBCD" fill-opacity="0.7"/>
<path d="M290.039 200.511V304.992C369.976 259.234 418.16 265.101 507.117 304.787C597.043 347.883 644.647 348.354 724.195 304.583V200.511C642.486 244.414 595.385 244.145 509.167 200.511C417.829 159.766 369.373 156.033 290.039 200.511Z" fill="#D9EBCD" fill-opacity="0.7"/>
<path d="M67.1564 42.3089V146.791C-12.7804 101.032 -60.9645 106.9 -149.922 146.586C-239.847 189.682 -287.451 190.153 -367 146.381V42.3089C-285.291 86.2121 -238.189 85.9435 -151.972 42.3089C-60.6339 1.56427 -12.1777 -2.16867 67.1564 42.3089Z" fill="#D9EBCD" fill-opacity="0.7"/>
<path d="M501.313 42.3089V146.791C421.376 101.032 373.192 106.9 284.235 146.586C194.309 189.682 146.705 190.153 67.1566 146.381V42.3089C148.866 86.2121 195.967 85.9435 282.185 42.3089C373.523 1.56427 421.979 -2.16867 501.313 42.3089Z" fill="#D9EBCD" fill-opacity="0.7"/>
<path d="M-144.117 -114.026V-9.54464C-64.1805 -55.303 -15.9965 -49.4355 72.9609 -9.74951C162.886 33.3465 210.49 33.8176 290.039 -9.95439V-114.026C208.33 -70.1231 161.228 -70.3918 75.0112 -114.026C-16.3271 -154.771 -64.7832 -158.504 -144.117 -114.026Z" fill="#D9EBCD" fill-opacity="0.7"/>
<path d="M290.04 -114.026V-9.5447C369.976 -55.3031 418.16 -49.4355 507.118 -9.74957C597.043 33.3465 644.647 33.8175 724.196 -9.95445V-114.026C642.487 -70.1232 595.385 -70.3918 509.168 -114.026C417.83 -154.771 369.374 -158.504 290.04 -114.026Z" fill="#D9EBCD" fill-opacity="0.7"/>
</g>
<path d="M27.52 42H29.184L31.728 33.12L34.288 42H35.952L39.232 30.8H37.792L35.152 40.208L32.496 30.8H31.088L28.336 40.208L25.712 30.8H24.256L27.52 42ZM46.7683 40.8C46.4003 40.8 46.2403 40.688 46.2403 40.256V36.688C46.2403 34.784 45.0403 33.744 42.9603 33.744C40.9923 33.744 39.6963 34.688 39.5043 36.288H40.8163C40.9763 35.456 41.7443 34.912 42.8963 34.912C44.1763 34.912 44.9283 35.552 44.9283 36.608V37.168H42.5283C40.3843 37.168 39.2483 38.08 39.2483 39.712C39.2483 41.2 40.4643 42.096 42.2563 42.096C43.6643 42.096 44.4803 41.472 44.9923 40.736C45.0083 41.536 45.3763 42 46.4643 42H47.1843V40.8H46.7683ZM44.9283 38.672C44.9283 40.032 43.9843 40.976 42.3523 40.976C41.2643 40.976 40.5763 40.432 40.5763 39.632C40.5763 38.704 41.2323 38.272 42.4003 38.272H44.9283V38.672ZM48.1929 42H49.5049V30.8H48.1929V42ZM51.3023 42H52.6143V30.8H51.3023V42ZM58.1716 42.096C60.0596 42.096 61.4036 40.896 61.7236 39.264H60.3956C60.1236 40.32 59.2276 40.928 58.0756 40.928C56.5236 40.928 55.5476 39.84 55.4996 38.288V38.176H61.8356C61.8516 37.984 61.8676 37.792 61.8676 37.616C61.8036 35.2 60.2996 33.744 57.9956 33.744C55.6916 33.744 54.1236 35.44 54.1236 37.92C54.1236 40.416 55.7236 42.096 58.1716 42.096ZM55.5796 37.088C55.7076 35.76 56.8116 34.896 58.0116 34.896C59.3716 34.896 60.3316 35.68 60.4596 37.088H55.5796ZM63.879 39.872C63.879 41.312 64.439 42 66.007 42H67.431V40.8H66.135C65.431 40.8 65.191 40.544 65.191 39.856V35.04H67.303V33.84H65.191V31.552H63.879V33.84H62.407V35.04H63.879V39.872ZM72.9474 42H77.0274C79.6834 42 81.0914 40.784 81.0914 38.8C81.0914 37.184 80.0514 36.416 78.8674 36.192C79.9234 35.824 80.6274 35.04 80.6274 33.76C80.6274 31.952 79.2994 30.8 76.9154 30.8H72.9474V42ZM76.9794 32.064C78.4354 32.064 79.2354 32.736 79.2354 33.856C79.2354 34.992 78.4194 35.664 76.9794 35.664H74.3394V32.064H76.9794ZM77.0274 36.912C78.6914 36.912 79.6674 37.6 79.6674 38.864C79.6674 40.016 78.7554 40.736 77.0274 40.736H74.3394V36.912H77.0274ZM89.862 40.8C89.494 40.8 89.334 40.688 89.334 40.256V36.688C89.334 34.784 88.134 33.744 86.054 33.744C84.086 33.744 82.79 34.688 82.598 36.288H83.91C84.07 35.456 84.838 34.912 85.99 34.912C87.27 34.912 88.022 35.552 88.022 36.608V37.168H85.622C83.478 37.168 82.342 38.08 82.342 39.712C82.342 41.2 83.558 42.096 85.35 42.096C86.758 42.096 87.574 41.472 88.086 40.736C88.102 41.536 88.47 42 89.558 42H90.278V40.8H89.862ZM88.022 38.672C88.022 40.032 87.078 40.976 85.446 40.976C84.358 40.976 83.67 40.432 83.67 39.632C83.67 38.704 84.326 38.272 85.494 38.272H88.022V38.672ZM91.2866 42H92.5986V30.8H91.2866V42ZM101.612 40.8C101.244 40.8 101.084 40.688 101.084 40.256V36.688C101.084 34.784 99.884 33.744 97.804 33.744C95.836 33.744 94.54 34.688 94.348 36.288H95.66C95.82 35.456 96.588 34.912 97.74 34.912C99.02 34.912 99.772 35.552 99.772 36.608V37.168H97.372C95.228 37.168 94.092 38.08 94.092 39.712C94.092 41.2 95.308 42.096 97.1 42.096C98.508 42.096 99.324 41.472 99.836 40.736C99.852 41.536 100.22 42 101.308 42H102.028V40.8H101.612ZM99.772 38.672C99.772 40.032 98.828 40.976 97.196 40.976C96.108 40.976 95.42 40.432 95.42 39.632C95.42 38.704 96.076 38.272 97.244 38.272H99.772V38.672ZM107.037 33.744C105.661 33.744 104.829 34.32 104.349 34.944L104.173 33.84H103.037V42H104.349V37.92C104.349 36.08 105.277 34.944 106.813 34.944C108.237 34.944 109.021 35.84 109.021 37.536V42H110.333V37.456C110.333 34.752 108.877 33.744 107.037 33.744ZM115.576 42.096C117.56 42.096 118.888 40.976 119.208 39.216H117.816C117.56 40.256 116.76 40.928 115.592 40.928C114.024 40.928 112.968 39.712 112.968 37.936C112.968 36.16 114.024 34.912 115.592 34.912C116.792 34.912 117.592 35.568 117.832 36.656H119.208C118.872 34.864 117.608 33.744 115.608 33.744C113.24 33.744 111.624 35.44 111.624 37.936C111.624 40.48 113.192 42.096 115.576 42.096ZM124.406 42.096C126.294 42.096 127.638 40.896 127.958 39.264H126.63C126.358 40.32 125.462 40.928 124.31 40.928C122.758 40.928 121.782 39.84 121.734 38.288V38.176H128.07C128.086 37.984 128.102 37.792 128.102 37.616C128.038 35.2 126.534 33.744 124.23 33.744C121.926 33.744 120.358 35.44 120.358 37.92C120.358 40.416 121.958 42.096 124.406 42.096ZM121.814 37.088C121.942 35.76 123.046 34.896 124.246 34.896C125.606 34.896 126.566 35.68 126.694 37.088H121.814Z" fill="#DAE9D0"/>
<g clip-path="url(#clip1_4_6394)">
<path d="M37.7148 68.4017C37.7148 67.7473 37.7306 67.0913 37.7148 66.4368C37.702 66.0906 37.8323 65.9968 38.1611 66.0016C39.0935 66.0191 40.0275 66.0254 40.9583 66.0016C41.3554 65.9905 41.4682 66.1239 41.4619 66.5099C41.4412 67.7394 41.473 68.9704 41.446 70.2014C41.4365 70.6526 41.5429 70.8368 42.0337 70.8178C43.1043 70.7923 43.1059 70.8177 43.1059 71.9201C43.1059 72.5746 43.0916 73.2306 43.1059 73.885C43.1154 74.2027 43.0312 74.3298 42.6802 74.3361C41.4508 74.3616 41.4508 74.3774 41.4508 75.6371C41.4508 76.2518 41.4666 76.8681 41.4508 77.4828C41.4396 77.8196 41.554 77.9212 41.8908 77.9324C43.1059 77.9673 43.1059 77.98 43.1059 79.1856C43.1059 79.8004 43.0916 80.4167 43.1059 81.0314C43.117 81.365 43.0058 81.4682 42.6659 81.4746C41.4492 81.5 41.4508 81.5143 41.4508 82.7278C41.4508 83.6603 41.4365 84.5943 41.4508 85.5251C41.4508 85.8936 41.3284 86.0016 40.9742 85.9937C39.9433 85.973 38.9093 85.9714 37.8784 85.9937C37.7332 86.0077 37.5873 85.9771 37.4601 85.9058C37.3329 85.8345 37.2305 85.7261 37.1667 85.595C36.4297 84.3719 35.6609 83.1678 34.9302 81.9416C34.7269 81.5985 34.5093 81.4444 34.0899 81.4523C32.681 81.4825 31.2721 81.4762 29.8631 81.4523C29.4724 81.4523 29.358 81.5651 29.3659 81.9527C29.3898 83.1234 29.3564 84.294 29.3834 85.4647C29.3929 85.8904 29.2547 86.0048 28.8433 85.9905C27.9506 85.9619 27.0563 85.9555 26.1652 85.9905C25.6966 86.0111 25.5998 85.8316 25.6077 85.4107C25.6331 84.2797 25.5966 83.1488 25.6252 82.0178C25.6363 81.5826 25.5267 81.4349 25.0676 81.446C24.0113 81.4714 24.0097 81.446 24.0097 80.4024C24.0097 79.7082 24.0224 79.0125 24.0097 78.3183C24.0097 78.0007 24.1193 77.9196 24.4227 77.9085C25.622 77.8609 25.622 77.8498 25.622 76.6378C25.622 76.0231 25.6045 75.4067 25.622 74.792C25.6347 74.4362 25.5251 74.3155 25.155 74.3155C24.0097 74.3044 24.0097 74.2885 24.0097 73.121C24.0097 72.5063 24.0288 71.8899 24.0097 71.2752C23.9938 70.9131 24.1082 70.7987 24.4767 70.7987C25.6252 70.7812 25.6252 70.7637 25.6252 69.5851C25.6252 68.5526 25.6363 67.5202 25.6252 66.4893C25.6252 66.1414 25.7109 65.9937 26.0922 66.0032C27.104 66.027 28.1158 66.0238 29.1277 66.0032C29.2639 65.9923 29.4001 66.0233 29.5182 66.092C29.6363 66.1607 29.7306 66.2638 29.7885 66.3876C30.5827 67.7124 31.4118 69.0212 32.2061 70.3492C32.3998 70.6668 32.6048 70.8257 33.0003 70.8257C34.4092 70.8003 35.8182 70.8035 37.2271 70.8257C37.6147 70.8257 37.7497 70.7129 37.7322 70.319C37.702 69.6836 37.7322 69.0482 37.7322 68.4129L37.7148 68.4017ZM34.6411 74.3266C35.3798 75.5322 36.0564 76.6425 36.7426 77.7481C36.9317 78.0515 37.2478 77.9165 37.5067 77.9069C37.8244 77.8942 37.7068 77.6147 37.7084 77.4415C37.7195 76.5488 37.7084 75.6561 37.7084 74.7634C37.7084 74.5474 37.7497 74.3187 37.4018 74.3234C36.5234 74.3345 35.6387 74.3266 34.6411 74.3266ZM32.4284 77.9196L30.3253 74.5109C30.1347 74.2011 29.825 74.3282 29.5693 74.3393C29.2516 74.3552 29.3818 74.6363 29.3802 74.8047C29.3675 75.6958 29.3802 76.5869 29.3802 77.4781C29.3802 77.6877 29.323 77.9276 29.6773 77.9228C30.5541 77.9133 31.4357 77.9196 32.4284 77.9196Z" fill="white"/>
</g>
<path d="M59.6985 67.4H55.7505V69.304C55.7505 69.864 55.6105 70.34 55.3585 70.732C55.1065 71.124 54.7425 71.292 54.2665 71.292H51.3265V74.624H54.6025C55.0505 74.624 55.4145 74.596 55.6665 74.484V87H59.6985V67.4ZM74.1785 74.512C73.1705 73.952 72.0785 73.644 70.8465 73.644C69.1945 73.644 67.8505 74.148 66.7865 75.156L67.0105 70.788H76.1945V67.4H63.3425L62.7825 78.88H66.6745C66.9265 78.152 67.3745 77.62 68.0185 77.312C68.6345 77.004 69.3065 76.836 69.9785 76.836C70.9865 76.836 71.7985 77.172 72.4145 77.844C73.0305 78.516 73.3385 79.356 73.3385 80.364C73.3385 81.484 73.0025 82.352 72.3305 82.968C71.6585 83.584 70.8745 83.864 69.9785 83.864C69.0265 83.864 68.2425 83.584 67.5985 82.968C66.9545 82.38 66.5905 81.624 66.4785 80.7H62.4745C62.5305 81.932 62.8665 83.024 63.4825 84.004C64.0985 84.984 64.9665 85.768 66.0865 86.328C67.2065 86.888 68.4945 87.168 69.9785 87.168C71.3505 87.168 72.6105 86.916 73.7305 86.384C74.8505 85.88 75.7185 85.096 76.3905 84.088C77.0625 83.08 77.3985 81.82 77.3985 80.364C77.3985 79.076 77.0905 77.9 76.5305 76.892C75.9705 75.884 75.1865 75.072 74.1785 74.512ZM82.9733 83.612C82.4133 82.94 81.7133 82.576 80.8453 82.576C80.1453 82.576 79.5573 82.8 79.0813 83.248C78.6053 83.696 78.3813 84.2 78.3813 84.816C78.3813 85.516 78.5493 86.048 78.9133 86.412C79.2773 86.776 79.7253 86.944 80.2853 86.944C80.5653 86.944 80.8733 86.888 81.1813 86.72C81.1813 86.804 81.2093 86.944 81.2093 87.112C81.2093 87.672 80.9573 88.12 80.5093 88.456C80.0613 88.82 79.3893 89.016 78.5493 89.016V91.06C80.1733 91.06 81.4333 90.64 82.3853 89.8C83.3093 88.988 83.7853 87.812 83.7853 86.244C83.7853 85.18 83.5053 84.284 82.9733 83.612ZM84.1841 76.752V77.648C84.1841 79.608 84.5201 81.316 85.1921 82.744C85.8641 84.172 86.8161 85.264 88.0481 86.02C89.2521 86.804 90.6521 87.168 92.2481 87.168C93.8161 87.168 95.2161 86.804 96.4481 86.02C97.6801 85.264 98.6321 84.172 99.3041 82.744C99.9761 81.316 100.34 79.608 100.34 77.648V76.752C100.34 74.848 99.9761 73.168 99.3041 71.712C98.6321 70.284 97.6801 69.192 96.4481 68.408C95.2161 67.624 93.8161 67.232 92.2481 67.232C90.6801 67.232 89.2801 67.624 88.0481 68.408C86.8161 69.192 85.8641 70.284 85.1921 71.712C84.5201 73.168 84.1841 74.848 84.1841 76.752ZM95.1881 72.3C95.9161 73.392 96.3081 74.932 96.3081 76.892V77.508C96.3081 79.496 95.9161 81.036 95.1881 82.128C94.4601 83.22 93.4801 83.752 92.2481 83.752C91.0161 83.752 90.0361 83.22 89.3081 82.128C88.5801 81.036 88.2161 79.496 88.2161 77.508V76.892C88.2161 74.932 88.5801 73.392 89.3081 72.3C90.0361 71.208 91.0161 70.648 92.2481 70.648C93.4801 70.648 94.4601 71.208 95.1881 72.3ZM102.734 81.12C103.042 82.268 103.49 83.248 104.078 84.088C104.75 85.096 105.618 85.852 106.682 86.384C107.746 86.916 108.95 87.168 110.294 87.168C111.722 87.168 112.982 86.916 114.102 86.356C115.222 85.796 116.062 85.012 116.678 84.004C117.294 82.996 117.602 81.848 117.602 80.504C117.602 79.216 117.322 78.068 116.762 77.06C116.202 76.052 115.418 75.268 114.41 74.708C113.402 74.148 112.254 73.868 110.966 73.868C109.958 73.868 109.062 74.092 108.25 74.484C107.438 74.904 106.794 75.464 106.346 76.164L106.094 76.584V76.108C106.094 74.316 106.43 72.916 107.102 71.936C107.774 70.956 108.754 70.452 110.042 70.452C110.91 70.452 111.638 70.676 112.226 71.096C112.786 71.544 113.178 72.132 113.374 72.916H117.35C117.126 71.18 116.37 69.78 115.082 68.744C113.794 67.736 112.198 67.204 110.35 67.204C108.698 67.204 107.27 67.624 106.066 68.408C104.834 69.192 103.91 70.368 103.266 71.88C102.594 73.42 102.286 75.268 102.286 77.396C102.286 78.74 102.426 80 102.734 81.12ZM112.702 77.984C113.29 78.656 113.598 79.496 113.598 80.504C113.598 81.512 113.29 82.352 112.674 83.024C112.058 83.696 111.246 84.004 110.266 84.004C109.258 84.004 108.474 83.696 107.858 83.024C107.242 82.38 106.962 81.54 106.962 80.504C106.962 79.496 107.27 78.656 107.886 77.984C108.502 77.34 109.314 77.004 110.322 77.004C111.302 77.004 112.086 77.34 112.702 77.984ZM118.786 67.4V70.816H128.726L120.158 87H124.526L133.15 70.004V67.4H118.786ZM136.403 83.612C135.843 82.94 135.143 82.576 134.275 82.576C133.575 82.576 132.987 82.8 132.511 83.248C132.035 83.696 131.811 84.2 131.811 84.816C131.811 85.516 131.979 86.048 132.343 86.412C132.707 86.776 133.155 86.944 133.715 86.944C133.995 86.944 134.303 86.888 134.611 86.72C134.611 86.804 134.639 86.944 134.639 87.112C134.639 87.672 134.387 88.12 133.939 88.456C133.491 88.82 132.819 89.016 131.979 89.016V91.06C133.603 91.06 134.863 90.64 135.815 89.8C136.739 88.988 137.215 87.812 137.215 86.244C137.215 85.18 136.935 84.284 136.403 83.612ZM138.008 67.4V70.816H147.948L139.38 87H143.748L152.372 70.004V67.4H138.008ZM167.525 78.376C166.741 77.564 165.789 77.032 164.613 76.78C165.593 76.528 166.433 75.996 167.105 75.212C167.777 74.428 168.141 73.476 168.141 72.384C168.141 71.376 167.861 70.452 167.301 69.668C166.741 68.884 165.957 68.296 164.893 67.848C163.829 67.428 162.597 67.204 161.169 67.204C159.713 67.204 158.481 67.428 157.417 67.848C156.353 68.296 155.569 68.884 155.009 69.668C154.449 70.452 154.197 71.376 154.197 72.384C154.197 73.56 154.533 74.512 155.205 75.24C155.877 75.996 156.717 76.5 157.725 76.78C156.521 77.06 155.541 77.592 154.785 78.404C154.001 79.244 153.637 80.336 153.637 81.68C153.637 82.772 153.917 83.724 154.505 84.564C155.093 85.404 155.961 86.048 157.081 86.496C158.201 86.944 159.573 87.168 161.169 87.168C162.737 87.168 164.109 86.944 165.229 86.496C166.349 86.048 167.217 85.404 167.805 84.564C168.393 83.724 168.701 82.772 168.701 81.68C168.701 80.308 168.309 79.216 167.525 78.376ZM158.985 70.76C159.545 70.312 160.273 70.06 161.169 70.06C162.037 70.06 162.765 70.312 163.325 70.76C163.885 71.236 164.193 71.852 164.193 72.58C164.193 73.336 163.885 73.952 163.325 74.428C162.765 74.932 162.037 75.156 161.169 75.156C160.273 75.156 159.545 74.932 158.985 74.456C158.425 73.98 158.145 73.364 158.145 72.58C158.145 71.852 158.425 71.236 158.985 70.76ZM163.661 83.528C162.989 84.088 162.149 84.34 161.169 84.34C160.161 84.34 159.321 84.088 158.649 83.528C157.977 82.968 157.641 82.268 157.641 81.428C157.641 80.588 157.977 79.86 158.649 79.3C159.321 78.74 160.161 78.432 161.169 78.432C162.149 78.432 162.989 78.74 163.661 79.3C164.333 79.86 164.669 80.588 164.669 81.428C164.669 82.268 164.333 82.968 163.661 83.528ZM185.484 73.112C185.148 71.936 184.644 70.9 184.028 70.06C183.328 69.164 182.46 68.464 181.452 67.96C180.444 67.456 179.268 67.204 177.98 67.204C176.524 67.204 175.264 67.512 174.144 68.072C173.024 68.632 172.184 69.444 171.568 70.452C170.952 71.46 170.672 72.608 170.672 73.896C170.672 75.212 170.924 76.36 171.484 77.34C172.044 78.348 172.828 79.104 173.836 79.636C174.844 80.196 175.992 80.448 177.308 80.448C178.232 80.448 179.072 80.28 179.828 79.916C180.584 79.552 181.2 79.048 181.676 78.376C181.704 78.348 181.844 78.152 182.124 77.76V78.264C182.124 80.056 181.76 81.456 181.088 82.436C180.416 83.444 179.408 83.92 178.12 83.92C177.224 83.92 176.468 83.724 175.908 83.276C175.348 82.856 174.956 82.24 174.788 81.456H170.84C171.064 83.276 171.792 84.676 173.024 85.684C174.256 86.692 175.908 87.168 177.924 87.168C180.5 87.168 182.488 86.3 183.888 84.508C185.288 82.744 185.988 80.224 185.988 76.976C185.988 75.576 185.82 74.288 185.484 73.112ZM175.572 76.332C174.956 75.688 174.676 74.848 174.676 73.84C174.676 72.832 174.984 72.02 175.6 71.348C176.216 70.704 177 70.368 178.008 70.368C178.988 70.368 179.772 70.704 180.388 71.348C181.004 72.02 181.312 72.832 181.312 73.84C181.312 74.848 180.976 75.688 180.36 76.332C179.744 77.004 178.932 77.312 177.952 77.312C176.944 77.312 176.16 77.004 175.572 76.332ZM187.562 83.164C187.114 83.612 186.89 84.172 186.89 84.844C186.89 85.516 187.114 86.076 187.562 86.524C188.01 86.972 188.57 87.168 189.27 87.168C189.942 87.168 190.502 86.972 190.95 86.524C191.398 86.076 191.65 85.516 191.65 84.844C191.65 84.172 191.398 83.612 190.95 83.164C190.502 82.716 189.942 82.492 189.27 82.492C188.57 82.492 188.01 82.716 187.562 83.164ZM192.329 76.752V77.648C192.329 79.608 192.665 81.316 193.337 82.744C194.009 84.172 194.961 85.264 196.193 86.02C197.397 86.804 198.797 87.168 200.393 87.168C201.961 87.168 203.361 86.804 204.593 86.02C205.825 85.264 206.777 84.172 207.449 82.744C208.121 81.316 208.485 79.608 208.485 77.648V76.752C208.485 74.848 208.121 73.168 207.449 71.712C206.777 70.284 205.825 69.192 204.593 68.408C203.361 67.624 201.961 67.232 200.393 67.232C198.825 67.232 197.425 67.624 196.193 68.408C194.961 69.192 194.009 70.284 193.337 71.712C192.665 73.168 192.329 74.848 192.329 76.752ZM203.333 72.3C204.061 73.392 204.453 74.932 204.453 76.892V77.508C204.453 79.496 204.061 81.036 203.333 82.128C202.605 83.22 201.625 83.752 200.393 83.752C199.161 83.752 198.181 83.22 197.453 82.128C196.725 81.036 196.361 79.496 196.361 77.508V76.892C196.361 74.932 196.725 73.392 197.453 72.3C198.181 71.208 199.161 70.648 200.393 70.648C201.625 70.648 202.605 71.208 203.333 72.3ZM210.43 76.752V77.648C210.43 79.608 210.766 81.316 211.438 82.744C212.11 84.172 213.062 85.264 214.294 86.02C215.498 86.804 216.898 87.168 218.494 87.168C220.062 87.168 221.462 86.804 222.694 86.02C223.926 85.264 224.878 84.172 225.55 82.744C226.222 81.316 226.586 79.608 226.586 77.648V76.752C226.586 74.848 226.222 73.168 225.55 71.712C224.878 70.284 223.926 69.192 222.694 68.408C221.462 67.624 220.062 67.232 218.494 67.232C216.926 67.232 215.526 67.624 214.294 68.408C213.062 69.192 212.11 70.284 211.438 71.712C210.766 73.168 210.43 74.848 210.43 76.752ZM221.434 72.3C222.162 73.392 222.554 74.932 222.554 76.892V77.508C222.554 79.496 222.162 81.036 221.434 82.128C220.706 83.22 219.726 83.752 218.494 83.752C217.262 83.752 216.282 83.22 215.554 82.128C214.826 81.036 214.462 79.496 214.462 77.508V76.892C214.462 74.932 214.826 73.392 215.554 72.3C216.282 71.208 217.262 70.648 218.494 70.648C219.726 70.648 220.706 71.208 221.434 72.3Z" fill="white"/>
<path d="M324.372 71.6358C324.631 71.5962 324.892 71.5765 325.154 71.5768C327.498 71.5768 329.702 73.265 330.985 76C330.789 76.4162 330.567 76.82 330.322 77.209C330.244 77.3297 330.203 77.4707 330.204 77.6144C330.205 77.7753 330.259 77.9313 330.358 78.0584C330.457 78.1856 330.594 78.2771 330.749 78.3188C330.905 78.3606 331.07 78.3504 331.219 78.2898C331.368 78.2291 331.493 78.1214 331.575 77.983C331.918 77.4434 332.217 76.8763 332.467 76.2875C332.506 76.1955 332.527 76.0964 332.527 75.9963C332.527 75.8962 332.506 75.7971 332.467 75.7051C330.978 72.2477 328.176 70.1025 325.154 70.1025C324.808 70.1007 324.462 70.1303 324.122 70.1909C324.025 70.2074 323.932 70.2427 323.849 70.295C323.766 70.3472 323.694 70.4154 323.637 70.4955C323.58 70.5756 323.54 70.666 323.518 70.7618C323.496 70.8575 323.493 70.9566 323.51 71.0534C323.526 71.1502 323.562 71.2429 323.614 71.326C323.666 71.4092 323.734 71.4812 323.814 71.538C323.895 71.5948 323.985 71.6353 324.081 71.6572C324.177 71.679 324.276 71.6818 324.372 71.6653V71.6358ZM319.043 68.8419C318.974 68.7731 318.892 68.7186 318.802 68.6814C318.713 68.6442 318.616 68.6251 318.519 68.6251C318.422 68.6251 318.326 68.6442 318.236 68.6814C318.146 68.7186 318.064 68.7731 317.996 68.8419C317.857 68.9807 317.779 69.169 317.779 69.3653C317.779 69.5616 317.857 69.7499 317.996 69.8887L320.281 72.1666C319.238 73.1703 318.408 74.3737 317.841 75.7051C317.8 75.7981 317.779 75.8985 317.779 76C317.779 76.1015 317.8 76.2019 317.841 76.2949C319.33 79.7523 322.131 81.8975 325.154 81.8975C326.479 81.8884 327.772 81.4939 328.877 80.7622L331.265 83.1581C331.334 83.2272 331.415 83.2821 331.505 83.3195C331.595 83.3569 331.691 83.3762 331.789 83.3762C331.886 83.3762 331.982 83.3569 332.072 83.3195C332.162 83.2821 332.243 83.2272 332.312 83.1581C332.381 83.0896 332.436 83.0081 332.473 82.9182C332.511 82.8284 332.53 82.732 332.53 82.6347C332.53 82.5374 332.511 82.441 332.473 82.3512C332.436 82.2614 332.381 82.1798 332.312 82.1113L319.043 68.8419ZM323.731 75.6167L325.537 77.4228C325.413 77.4585 325.283 77.4759 325.154 77.4744C324.763 77.4744 324.388 77.319 324.111 77.0425C323.835 76.766 323.679 76.391 323.679 76C323.678 75.8704 323.695 75.7412 323.731 75.6167ZM325.154 80.4231C322.81 80.4231 320.605 78.735 319.33 76C319.806 74.9486 320.482 73.9997 321.32 73.206L322.625 74.5256C322.319 75.085 322.202 75.7287 322.292 76.3601C322.383 76.9915 322.675 77.5766 323.126 78.0276C323.577 78.4786 324.162 78.7713 324.794 78.8616C325.425 78.9519 326.069 78.835 326.628 78.5286L327.8 79.6859C326.998 80.1584 326.085 80.4126 325.154 80.4231Z" fill="#DBE8CE"/>
<rect x="24" y="128" width="310" height="40" rx="20" fill="#D9EBCD"/>
<path d="M141.896 144.2V154H143.506V149.856H147.342V148.47H143.506V145.628H148.154V144.2H141.896ZM155.418 146.832H153.906V150.388C153.906 151.13 153.738 151.718 153.416 152.138C153.08 152.558 152.632 152.768 152.058 152.768C151.498 152.768 151.092 152.586 150.812 152.222C150.532 151.858 150.392 151.326 150.392 150.626V146.832H148.88V150.78C148.88 151.942 149.132 152.782 149.664 153.3C150.182 153.832 150.868 154.084 151.708 154.084C152.632 154.084 153.374 153.762 153.92 153.09L154.088 154H155.418V146.832ZM162.86 147.532C162.328 147.014 161.628 146.748 160.788 146.748C159.794 146.748 159.024 147.098 158.492 147.77L158.324 146.832H157.008V154H158.52V150.388C158.52 149.66 158.688 149.1 159.024 148.68C159.36 148.26 159.836 148.05 160.438 148.05C160.998 148.05 161.418 148.232 161.712 148.582C161.992 148.946 162.146 149.464 162.146 150.136V154H163.672V150.052C163.672 148.904 163.392 148.064 162.86 147.532ZM172.105 144.2H170.593V147.826C170.341 147.49 170.033 147.238 169.641 147.042C169.249 146.846 168.787 146.748 168.269 146.748C167.625 146.748 167.037 146.902 166.533 147.21C166.015 147.518 165.609 147.938 165.315 148.498C165.021 149.058 164.881 149.688 164.881 150.416C164.881 151.172 165.021 151.816 165.315 152.376C165.595 152.936 166.001 153.356 166.519 153.65C167.023 153.944 167.611 154.084 168.269 154.084C169.249 154.084 170.033 153.706 170.607 152.922L170.789 154H172.105V144.2ZM170.033 152.152C169.641 152.6 169.137 152.81 168.521 152.81C167.891 152.81 167.387 152.6 167.009 152.152C166.617 151.704 166.435 151.13 166.435 150.416C166.435 149.716 166.617 149.156 167.009 148.708C167.387 148.26 167.891 148.036 168.521 148.036C169.137 148.036 169.641 148.26 170.033 148.708C170.411 149.156 170.607 149.73 170.607 150.444C170.607 151.144 170.411 151.718 170.033 152.152ZM176.889 144.2L179.689 154H181.579L183.539 146.79L185.541 154H187.431L190.231 144.2H188.593L186.479 151.956L184.365 144.2H182.839L180.655 151.956L178.569 144.186L176.889 144.2ZM197.464 152.684H197.17C196.848 152.684 196.694 152.516 196.694 152.18V149.352C196.694 148.512 196.428 147.868 195.91 147.42C195.378 146.972 194.636 146.748 193.684 146.748C192.774 146.748 192.046 146.958 191.486 147.35C190.926 147.742 190.604 148.302 190.534 149.016H192.018C192.074 148.708 192.242 148.456 192.522 148.26C192.802 148.064 193.166 147.966 193.614 147.966C194.104 147.966 194.496 148.092 194.776 148.316C195.056 148.54 195.196 148.862 195.196 149.254V149.688H193.39C192.382 149.688 191.626 149.898 191.108 150.29C190.576 150.682 190.324 151.256 190.324 151.984C190.324 152.642 190.562 153.16 191.052 153.524C191.528 153.902 192.172 154.084 192.984 154.084C194.02 154.084 194.804 153.678 195.35 152.852C195.35 153.23 195.448 153.51 195.658 153.706C195.854 153.902 196.19 154 196.666 154H197.464V152.684ZM195.196 150.808V151.06C195.182 151.62 195 152.068 194.65 152.404C194.3 152.74 193.81 152.908 193.194 152.908C192.774 152.908 192.452 152.824 192.214 152.628C191.976 152.446 191.864 152.194 191.864 151.886C191.864 151.536 191.99 151.27 192.242 151.088C192.494 150.906 192.844 150.808 193.32 150.808H195.196ZM198.387 144.2V154H199.899V144.2H198.387ZM201.481 144.2V154H202.993V144.2H201.481ZM204.744 148.498C204.45 149.058 204.31 149.702 204.31 150.43C204.31 151.158 204.45 151.802 204.758 152.348C205.066 152.908 205.486 153.328 206.046 153.636C206.606 153.944 207.25 154.084 208.006 154.084C208.86 154.084 209.574 153.86 210.148 153.384C210.722 152.922 211.072 152.32 211.212 151.592H209.7C209.588 151.998 209.378 152.306 209.07 152.53C208.748 152.754 208.356 152.852 207.894 152.852C207.306 152.852 206.83 152.67 206.48 152.306C206.116 151.942 205.92 151.452 205.892 150.822V150.738H211.296C211.324 150.542 211.338 150.36 211.338 150.164C211.324 149.478 211.17 148.876 210.862 148.358C210.554 147.854 210.148 147.448 209.616 147.168C209.084 146.888 208.482 146.748 207.796 146.748C207.11 146.748 206.508 146.902 205.976 147.21C205.444 147.518 205.038 147.938 204.744 148.498ZM209.798 149.632H205.948C206.004 149.128 206.2 148.736 206.564 148.428C206.928 148.12 207.348 147.966 207.852 147.966C208.384 147.966 208.818 148.12 209.168 148.414C209.518 148.708 209.728 149.114 209.798 149.632ZM213.067 148.162V152.054C213.067 152.726 213.221 153.216 213.529 153.524C213.837 153.846 214.341 154 215.027 154H216.483V152.67H215.335C215.055 152.67 214.873 152.614 214.761 152.502C214.649 152.39 214.593 152.18 214.593 151.9V148.162H216.315V146.832H214.593V144.83H213.067V146.832H211.821V148.162H213.067Z" fill="#11453B"/>
</g>
</g>
<defs>
<filter id="filter0_d_4_6394" x="-48" y="-28" width="454" height="288" filterUnits="userSpaceOnUse" color-interpolation-filters="sRGB">
<feFlood flood-opacity="0" result="BackgroundImageFix"/>
<feColorMatrix in="SourceAlpha" type="matrix" values="0 0 0 0 0 0 0 0 0 0 0 0 0 0 0 0 0 0 127 0" result="hardAlpha"/>
<feOffset dy="20"/>
<feGaussianBlur stdDeviation="24"/>
<feColorMatrix type="matrix" values="0 0 0 0 0.666667 0 0 0 0 0.666667 0 0 0 0 0.666667 0 0 0 0.29 0"/>
<feBlend mode="normal" in2="BackgroundImageFix" result="effect1_dropShadow_4_6394"/>
<feBlend mode="normal" in="SourceGraphic" in2="effect1_dropShadow_4_6394" result="shape"/>
</filter>
<clipPath id="clip0_4_6394">
<rect width="358" height="192" rx="24" fill="white"/>
</clipPath>
<clipPath id="clip1_4_6394">
<rect width="19.1025" height="20" fill="white" transform="translate(24 66)"/>
</clipPath>
</defs>
</svg>
