<svg width="390" height="288" viewBox="0 0 390 288" fill="none" xmlns="http://www.w3.org/2000/svg">
<g filter="url(#filter0_d_4_6394)">
<g clip-path="url(#clip0_4_6394)">
<rect x="16" y="28" width="358" height="192" rx="24" fill="#11453B"/>
<g opacity="0.1">
<path d="M-128.118 228.511V332.992C-48.1811 287.234 0.00292969 293.102 88.9603 332.788C178.886 375.884 226.49 376.355 306.039 332.583V228.511C224.329 272.414 177.228 272.145 91.0105 228.511C-0.327682 187.766 -48.7838 184.033 -128.118 228.511Z" fill="#D9EBCD" fill-opacity="0.7"/>
<path d="M306.039 228.511V332.992C385.976 287.234 434.16 293.101 523.117 332.787C613.043 375.883 660.647 376.354 740.195 332.583V228.511C658.486 272.414 611.385 272.145 525.167 228.511C433.829 187.766 385.373 184.033 306.039 228.511Z" fill="#D9EBCD" fill-opacity="0.7"/>
<path d="M83.1564 70.3089V174.791C3.21956 129.032 -44.9645 134.9 -133.922 174.586C-223.847 217.682 -271.451 218.153 -351 174.381V70.3089C-269.291 114.212 -222.189 113.943 -135.972 70.3089C-44.6339 29.5643 3.82226 25.8313 83.1564 70.3089Z" fill="#D9EBCD" fill-opacity="0.7"/>
<path d="M517.313 70.3089V174.791C437.376 129.032 389.192 134.9 300.235 174.586C210.309 217.682 162.705 218.153 83.1566 174.381V70.3089C164.866 114.212 211.967 113.943 298.185 70.3089C389.523 29.5643 437.979 25.8313 517.313 70.3089Z" fill="#D9EBCD" fill-opacity="0.7"/>
<path d="M-128.117 -86.0263V18.4554C-48.1805 -27.303 0.00354004 -21.4355 88.9609 18.2505C178.886 61.3465 226.49 61.8176 306.039 18.0456V-86.0263C224.33 -42.1231 177.228 -42.3918 91.0112 -86.0263C-0.327072 -126.771 -48.7832 -130.504 -128.117 -86.0263Z" fill="#D9EBCD" fill-opacity="0.7"/>
<path d="M306.04 -86.0264V18.4553C385.976 -27.3031 434.16 -21.4355 523.118 18.2504C613.043 61.3465 660.647 61.8175 740.196 18.0456V-86.0264C658.487 -42.1232 611.385 -42.3918 525.168 -86.0264C433.83 -126.771 385.374 -130.504 306.04 -86.0264Z" fill="#D9EBCD" fill-opacity="0.7"/>
</g>
<path d="M43.52 70H45.184L47.728 61.12L50.288 70H51.952L55.232 58.8H53.792L51.152 68.208L48.496 58.8H47.088L44.336 68.208L41.712 58.8H40.256L43.52 70ZM62.7683 68.8C62.4003 68.8 62.2403 68.688 62.2403 68.256V64.688C62.2403 62.784 61.0403 61.744 58.9603 61.744C56.9923 61.744 55.6963 62.688 55.5043 64.288H56.8163C56.9763 63.456 57.7443 62.912 58.8963 62.912C60.1763 62.912 60.9283 63.552 60.9283 64.608V65.168H58.5283C56.3843 65.168 55.2483 66.08 55.2483 67.712C55.2483 69.2 56.4643 70.096 58.2563 70.096C59.6643 70.096 60.4803 69.472 60.9923 68.736C61.0083 69.536 61.3763 70 62.4643 70H63.1843V68.8H62.7683ZM60.9283 66.672C60.9283 68.032 59.9843 68.976 58.3523 68.976C57.2643 68.976 56.5763 68.432 56.5763 67.632C56.5763 66.704 57.2323 66.272 58.4003 66.272H60.9283V66.672ZM64.1929 70H65.5049V58.8H64.1929V70ZM67.3023 70H68.6143V58.8H67.3023V70ZM74.1716 70.096C76.0596 70.096 77.4036 68.896 77.7236 67.264H76.3956C76.1236 68.32 75.2276 68.928 74.0756 68.928C72.5236 68.928 71.5476 67.84 71.4996 66.288V66.176H77.8356C77.8516 65.984 77.8676 65.792 77.8676 65.616C77.8036 63.2 76.2996 61.744 73.9956 61.744C71.6916 61.744 70.1236 63.44 70.1236 65.92C70.1236 68.416 71.7236 70.096 74.1716 70.096ZM71.5796 65.088C71.7076 63.76 72.8116 62.896 74.0116 62.896C75.3716 62.896 76.3316 63.68 76.4596 65.088H71.5796ZM79.879 67.872C79.879 69.312 80.439 70 82.007 70H83.431V68.8H82.135C81.431 68.8 81.191 68.544 81.191 67.856V63.04H83.303V61.84H81.191V59.552H79.879V61.84H78.407V63.04H79.879V67.872ZM88.9474 70H93.0274C95.6834 70 97.0914 68.784 97.0914 66.8C97.0914 65.184 96.0514 64.416 94.8674 64.192C95.9234 63.824 96.6274 63.04 96.6274 61.76C96.6274 59.952 95.2994 58.8 92.9154 58.8H88.9474V70ZM92.9794 60.064C94.4354 60.064 95.2354 60.736 95.2354 61.856C95.2354 62.992 94.4194 63.664 92.9794 63.664H90.3394V60.064H92.9794ZM93.0274 64.912C94.6914 64.912 95.6674 65.6 95.6674 66.864C95.6674 68.016 94.7554 68.736 93.0274 68.736H90.3394V64.912H93.0274ZM105.862 68.8C105.494 68.8 105.334 68.688 105.334 68.256V64.688C105.334 62.784 104.134 61.744 102.054 61.744C100.086 61.744 98.79 62.688 98.598 64.288H99.91C100.07 63.456 100.838 62.912 101.99 62.912C103.27 62.912 104.022 63.552 104.022 64.608V65.168H101.622C99.478 65.168 98.342 66.08 98.342 67.712C98.342 69.2 99.558 70.096 101.35 70.096C102.758 70.096 103.574 69.472 104.086 68.736C104.102 69.536 104.47 70 105.558 70H106.278V68.8H105.862ZM104.022 66.672C104.022 68.032 103.078 68.976 101.446 68.976C100.358 68.976 99.67 68.432 99.67 67.632C99.67 66.704 100.326 66.272 101.494 66.272H104.022V66.672ZM107.287 70H108.599V58.8H107.287V70ZM117.612 68.8C117.244 68.8 117.084 68.688 117.084 68.256V64.688C117.084 62.784 115.884 61.744 113.804 61.744C111.836 61.744 110.54 62.688 110.348 64.288H111.66C111.82 63.456 112.588 62.912 113.74 62.912C115.02 62.912 115.772 63.552 115.772 64.608V65.168H113.372C111.228 65.168 110.092 66.08 110.092 67.712C110.092 69.2 111.308 70.096 113.1 70.096C114.508 70.096 115.324 69.472 115.836 68.736C115.852 69.536 116.22 70 117.308 70H118.028V68.8H117.612ZM115.772 66.672C115.772 68.032 114.828 68.976 113.196 68.976C112.108 68.976 111.42 68.432 111.42 67.632C111.42 66.704 112.076 66.272 113.244 66.272H115.772V66.672ZM123.037 61.744C121.661 61.744 120.829 62.32 120.349 62.944L120.173 61.84H119.037V70H120.349V65.92C120.349 64.08 121.277 62.944 122.813 62.944C124.237 62.944 125.021 63.84 125.021 65.536V70H126.333V65.456C126.333 62.752 124.877 61.744 123.037 61.744ZM131.576 70.096C133.56 70.096 134.888 68.976 135.208 67.216H133.816C133.56 68.256 132.76 68.928 131.592 68.928C130.024 68.928 128.968 67.712 128.968 65.936C128.968 64.16 130.024 62.912 131.592 62.912C132.792 62.912 133.592 63.568 133.832 64.656H135.208C134.872 62.864 133.608 61.744 131.608 61.744C129.24 61.744 127.624 63.44 127.624 65.936C127.624 68.48 129.192 70.096 131.576 70.096ZM140.406 70.096C142.294 70.096 143.638 68.896 143.958 67.264H142.63C142.358 68.32 141.462 68.928 140.31 68.928C138.758 68.928 137.782 67.84 137.734 66.288V66.176H144.07C144.086 65.984 144.102 65.792 144.102 65.616C144.038 63.2 142.534 61.744 140.23 61.744C137.926 61.744 136.358 63.44 136.358 65.92C136.358 68.416 137.958 70.096 140.406 70.096ZM137.814 65.088C137.942 63.76 139.046 62.896 140.246 62.896C141.606 62.896 142.566 63.68 142.694 65.088H137.814Z" fill="#DAE9D0"/>
<g clip-path="url(#clip1_4_6394)">
<path d="M53.7148 96.4017C53.7148 95.7473 53.7306 95.0913 53.7148 94.4368C53.702 94.0906 53.8323 93.9968 54.1611 94.0016C55.0935 94.0191 56.0275 94.0254 56.9583 94.0016C57.3554 93.9905 57.4682 94.1239 57.4619 94.5099C57.4412 95.7394 57.473 96.9704 57.446 98.2014C57.4365 98.6526 57.5429 98.8368 58.0337 98.8178C59.1043 98.7923 59.1059 98.8177 59.1059 99.9201C59.1059 100.575 59.0916 101.231 59.1059 101.885C59.1154 102.203 59.0312 102.33 58.6802 102.336C57.4508 102.362 57.4508 102.377 57.4508 103.637C57.4508 104.252 57.4666 104.868 57.4508 105.483C57.4396 105.82 57.554 105.921 57.8908 105.932C59.1059 105.967 59.1059 105.98 59.1059 107.186C59.1059 107.8 59.0916 108.417 59.1059 109.031C59.117 109.365 59.0058 109.468 58.6659 109.475C57.4492 109.5 57.4508 109.514 57.4508 110.728C57.4508 111.66 57.4365 112.594 57.4508 113.525C57.4508 113.894 57.3284 114.002 56.9742 113.994C55.9433 113.973 54.9093 113.971 53.8784 113.994C53.7332 114.008 53.5873 113.977 53.4601 113.906C53.3329 113.835 53.2305 113.726 53.1667 113.595C52.4297 112.372 51.6609 111.168 50.9302 109.942C50.7269 109.598 50.5093 109.444 50.0899 109.452C48.681 109.483 47.2721 109.476 45.8631 109.452C45.4724 109.452 45.358 109.565 45.3659 109.953C45.3898 111.123 45.3564 112.294 45.3834 113.465C45.3929 113.89 45.2547 114.005 44.8433 113.99C43.9506 113.962 43.0563 113.956 42.1652 113.99C41.6966 114.011 41.5998 113.832 41.6077 113.411C41.6331 112.28 41.5966 111.149 41.6252 110.018C41.6363 109.583 41.5267 109.435 41.0676 109.446C40.0113 109.471 40.0097 109.446 40.0097 108.402C40.0097 107.708 40.0224 107.012 40.0097 106.318C40.0097 106.001 40.1193 105.92 40.4227 105.909C41.622 105.861 41.622 105.85 41.622 104.638C41.622 104.023 41.6045 103.407 41.622 102.792C41.6347 102.436 41.5251 102.315 41.155 102.315C40.0097 102.304 40.0097 102.288 40.0097 101.121C40.0097 100.506 40.0288 99.8899 40.0097 99.2752C39.9938 98.9131 40.1082 98.7987 40.4767 98.7987C41.6252 98.7812 41.6252 98.7637 41.6252 97.5851C41.6252 96.5526 41.6363 95.5202 41.6252 94.4893C41.6252 94.1414 41.7109 93.9937 42.0922 94.0032C43.104 94.027 44.1158 94.0238 45.1277 94.0032C45.2639 93.9923 45.4001 94.0233 45.5182 94.092C45.6363 94.1607 45.7306 94.2638 45.7885 94.3876C46.5827 95.7124 47.4118 97.0212 48.2061 98.3492C48.3998 98.6668 48.6048 98.8257 49.0003 98.8257C50.4092 98.8003 51.8182 98.8035 53.2271 98.8257C53.6147 98.8257 53.7497 98.7129 53.7322 98.319C53.702 97.6836 53.7322 97.0482 53.7322 96.4129L53.7148 96.4017ZM50.6411 102.327C51.3798 103.532 52.0564 104.643 52.7426 105.748C52.9317 106.051 53.2478 105.916 53.5067 105.907C53.8244 105.894 53.7068 105.615 53.7084 105.442C53.7195 104.549 53.7084 103.656 53.7084 102.763C53.7084 102.547 53.7497 102.319 53.4018 102.323C52.5234 102.335 51.6387 102.327 50.6411 102.327ZM48.4284 105.92L46.3253 102.511C46.1347 102.201 45.825 102.328 45.5693 102.339C45.2516 102.355 45.3818 102.636 45.3802 102.805C45.3675 103.696 45.3802 104.587 45.3802 105.478C45.3802 105.688 45.323 105.928 45.6773 105.923C46.5541 105.913 47.4357 105.92 48.4284 105.92Z" fill="white"/>
</g>
<path d="M75.6985 95.4H71.7505V97.304C71.7505 97.864 71.6105 98.34 71.3585 98.732C71.1065 99.124 70.7425 99.292 70.2665 99.292H67.3265V102.624H70.6025C71.0505 102.624 71.4145 102.596 71.6665 102.484V115H75.6985V95.4ZM90.1785 102.512C89.1705 101.952 88.0785 101.644 86.8465 101.644C85.1945 101.644 83.8505 102.148 82.7865 103.156L83.0105 98.788H92.1945V95.4H79.3425L78.7825 106.88H82.6745C82.9265 106.152 83.3745 105.62 84.0185 105.312C84.6345 105.004 85.3065 104.836 85.9785 104.836C86.9865 104.836 87.7985 105.172 88.4145 105.844C89.0305 106.516 89.3385 107.356 89.3385 108.364C89.3385 109.484 89.0025 110.352 88.3305 110.968C87.6585 111.584 86.8745 111.864 85.9785 111.864C85.0265 111.864 84.2425 111.584 83.5985 110.968C82.9545 110.38 82.5905 109.624 82.4785 108.7H78.4745C78.5305 109.932 78.8665 111.024 79.4825 112.004C80.0985 112.984 80.9665 113.768 82.0865 114.328C83.2065 114.888 84.4945 115.168 85.9785 115.168C87.3505 115.168 88.6105 114.916 89.7305 114.384C90.8505 113.88 91.7185 113.096 92.3905 112.088C93.0625 111.08 93.3985 109.82 93.3985 108.364C93.3985 107.076 93.0905 105.9 92.5305 104.892C91.9705 103.884 91.1865 103.072 90.1785 102.512ZM98.9733 111.612C98.4133 110.94 97.7133 110.576 96.8453 110.576C96.1453 110.576 95.5573 110.8 95.0813 111.248C94.6053 111.696 94.3813 112.2 94.3813 112.816C94.3813 113.516 94.5493 114.048 94.9133 114.412C95.2773 114.776 95.7253 114.944 96.2853 114.944C96.5653 114.944 96.8733 114.888 97.1813 114.72C97.1813 114.804 97.2093 114.944 97.2093 115.112C97.2093 115.672 96.9573 116.12 96.5093 116.456C96.0613 116.82 95.3893 117.016 94.5493 117.016V119.06C96.1733 119.06 97.4333 118.64 98.3853 117.8C99.3093 116.988 99.7853 115.812 99.7853 114.244C99.7853 113.18 99.5053 112.284 98.9733 111.612ZM100.184 104.752V105.648C100.184 107.608 100.52 109.316 101.192 110.744C101.864 112.172 102.816 113.264 104.048 114.02C105.252 114.804 106.652 115.168 108.248 115.168C109.816 115.168 111.216 114.804 112.448 114.02C113.68 113.264 114.632 112.172 115.304 110.744C115.976 109.316 116.34 107.608 116.34 105.648V104.752C116.34 102.848 115.976 101.168 115.304 99.712C114.632 98.284 113.68 97.192 112.448 96.408C111.216 95.624 109.816 95.232 108.248 95.232C106.68 95.232 105.28 95.624 104.048 96.408C102.816 97.192 101.864 98.284 101.192 99.712C100.52 101.168 100.184 102.848 100.184 104.752ZM111.188 100.3C111.916 101.392 112.308 102.932 112.308 104.892V105.508C112.308 107.496 111.916 109.036 111.188 110.128C110.46 111.22 109.48 111.752 108.248 111.752C107.016 111.752 106.036 111.22 105.308 110.128C104.58 109.036 104.216 107.496 104.216 105.508V104.892C104.216 102.932 104.58 101.392 105.308 100.3C106.036 99.208 107.016 98.648 108.248 98.648C109.48 98.648 110.46 99.208 111.188 100.3ZM118.734 109.12C119.042 110.268 119.49 111.248 120.078 112.088C120.75 113.096 121.618 113.852 122.682 114.384C123.746 114.916 124.95 115.168 126.294 115.168C127.722 115.168 128.982 114.916 130.102 114.356C131.222 113.796 132.062 113.012 132.678 112.004C133.294 110.996 133.602 109.848 133.602 108.504C133.602 107.216 133.322 106.068 132.762 105.06C132.202 104.052 131.418 103.268 130.41 102.708C129.402 102.148 128.254 101.868 126.966 101.868C125.958 101.868 125.062 102.092 124.25 102.484C123.438 102.904 122.794 103.464 122.346 104.164L122.094 104.584V104.108C122.094 102.316 122.43 100.916 123.102 99.936C123.774 98.956 124.754 98.452 126.042 98.452C126.91 98.452 127.638 98.676 128.226 99.096C128.786 99.544 129.178 100.132 129.374 100.916H133.35C133.126 99.18 132.37 97.78 131.082 96.744C129.794 95.736 128.198 95.204 126.35 95.204C124.698 95.204 123.27 95.624 122.066 96.408C120.834 97.192 119.91 98.368 119.266 99.88C118.594 101.42 118.286 103.268 118.286 105.396C118.286 106.74 118.426 108 118.734 109.12ZM128.702 105.984C129.29 106.656 129.598 107.496 129.598 108.504C129.598 109.512 129.29 110.352 128.674 111.024C128.058 111.696 127.246 112.004 126.266 112.004C125.258 112.004 124.474 111.696 123.858 111.024C123.242 110.38 122.962 109.54 122.962 108.504C122.962 107.496 123.27 106.656 123.886 105.984C124.502 105.34 125.314 105.004 126.322 105.004C127.302 105.004 128.086 105.34 128.702 105.984ZM134.786 95.4V98.816H144.726L136.158 115H140.526L149.15 98.004V95.4H134.786ZM152.403 111.612C151.843 110.94 151.143 110.576 150.275 110.576C149.575 110.576 148.987 110.8 148.511 111.248C148.035 111.696 147.811 112.2 147.811 112.816C147.811 113.516 147.979 114.048 148.343 114.412C148.707 114.776 149.155 114.944 149.715 114.944C149.995 114.944 150.303 114.888 150.611 114.72C150.611 114.804 150.639 114.944 150.639 115.112C150.639 115.672 150.387 116.12 149.939 116.456C149.491 116.82 148.819 117.016 147.979 117.016V119.06C149.603 119.06 150.863 118.64 151.815 117.8C152.739 116.988 153.215 115.812 153.215 114.244C153.215 113.18 152.935 112.284 152.403 111.612ZM154.008 95.4V98.816H163.948L155.38 115H159.748L168.372 98.004V95.4H154.008ZM183.525 106.376C182.741 105.564 181.789 105.032 180.613 104.78C181.593 104.528 182.433 103.996 183.105 103.212C183.777 102.428 184.141 101.476 184.141 100.384C184.141 99.376 183.861 98.452 183.301 97.668C182.741 96.884 181.957 96.296 180.893 95.848C179.829 95.428 178.597 95.204 177.169 95.204C175.713 95.204 174.481 95.428 173.417 95.848C172.353 96.296 171.569 96.884 171.009 97.668C170.449 98.452 170.197 99.376 170.197 100.384C170.197 101.56 170.533 102.512 171.205 103.24C171.877 103.996 172.717 104.5 173.725 104.78C172.521 105.06 171.541 105.592 170.785 106.404C170.001 107.244 169.637 108.336 169.637 109.68C169.637 110.772 169.917 111.724 170.505 112.564C171.093 113.404 171.961 114.048 173.081 114.496C174.201 114.944 175.573 115.168 177.169 115.168C178.737 115.168 180.109 114.944 181.229 114.496C182.349 114.048 183.217 113.404 183.805 112.564C184.393 111.724 184.701 110.772 184.701 109.68C184.701 108.308 184.309 107.216 183.525 106.376ZM174.985 98.76C175.545 98.312 176.273 98.06 177.169 98.06C178.037 98.06 178.765 98.312 179.325 98.76C179.885 99.236 180.193 99.852 180.193 100.58C180.193 101.336 179.885 101.952 179.325 102.428C178.765 102.932 178.037 103.156 177.169 103.156C176.273 103.156 175.545 102.932 174.985 102.456C174.425 101.98 174.145 101.364 174.145 100.58C174.145 99.852 174.425 99.236 174.985 98.76ZM179.661 111.528C178.989 112.088 178.149 112.34 177.169 112.34C176.161 112.34 175.321 112.088 174.649 111.528C173.977 110.968 173.641 110.268 173.641 109.428C173.641 108.588 173.977 107.86 174.649 107.3C175.321 106.74 176.161 106.432 177.169 106.432C178.149 106.432 178.989 106.74 179.661 107.3C180.333 107.86 180.669 108.588 180.669 109.428C180.669 110.268 180.333 110.968 179.661 111.528ZM201.484 101.112C201.148 99.936 200.644 98.9 200.028 98.06C199.328 97.164 198.46 96.464 197.452 95.96C196.444 95.456 195.268 95.204 193.98 95.204C192.524 95.204 191.264 95.512 190.144 96.072C189.024 96.632 188.184 97.444 187.568 98.452C186.952 99.46 186.672 100.608 186.672 101.896C186.672 103.212 186.924 104.36 187.484 105.34C188.044 106.348 188.828 107.104 189.836 107.636C190.844 108.196 191.992 108.448 193.308 108.448C194.232 108.448 195.072 108.28 195.828 107.916C196.584 107.552 197.2 107.048 197.676 106.376C197.704 106.348 197.844 106.152 198.124 105.76V106.264C198.124 108.056 197.76 109.456 197.088 110.436C196.416 111.444 195.408 111.92 194.12 111.92C193.224 111.92 192.468 111.724 191.908 111.276C191.348 110.856 190.956 110.24 190.788 109.456H186.84C187.064 111.276 187.792 112.676 189.024 113.684C190.256 114.692 191.908 115.168 193.924 115.168C196.5 115.168 198.488 114.3 199.888 112.508C201.288 110.744 201.988 108.224 201.988 104.976C201.988 103.576 201.82 102.288 201.484 101.112ZM191.572 104.332C190.956 103.688 190.676 102.848 190.676 101.84C190.676 100.832 190.984 100.02 191.6 99.348C192.216 98.704 193 98.368 194.008 98.368C194.988 98.368 195.772 98.704 196.388 99.348C197.004 100.02 197.312 100.832 197.312 101.84C197.312 102.848 196.976 103.688 196.36 104.332C195.744 105.004 194.932 105.312 193.952 105.312C192.944 105.312 192.16 105.004 191.572 104.332ZM203.562 111.164C203.114 111.612 202.89 112.172 202.89 112.844C202.89 113.516 203.114 114.076 203.562 114.524C204.01 114.972 204.57 115.168 205.27 115.168C205.942 115.168 206.502 114.972 206.95 114.524C207.398 114.076 207.65 113.516 207.65 112.844C207.65 112.172 207.398 111.612 206.95 111.164C206.502 110.716 205.942 110.492 205.27 110.492C204.57 110.492 204.01 110.716 203.562 111.164ZM208.329 104.752V105.648C208.329 107.608 208.665 109.316 209.337 110.744C210.009 112.172 210.961 113.264 212.193 114.02C213.397 114.804 214.797 115.168 216.393 115.168C217.961 115.168 219.361 114.804 220.593 114.02C221.825 113.264 222.777 112.172 223.449 110.744C224.121 109.316 224.485 107.608 224.485 105.648V104.752C224.485 102.848 224.121 101.168 223.449 99.712C222.777 98.284 221.825 97.192 220.593 96.408C219.361 95.624 217.961 95.232 216.393 95.232C214.825 95.232 213.425 95.624 212.193 96.408C210.961 97.192 210.009 98.284 209.337 99.712C208.665 101.168 208.329 102.848 208.329 104.752ZM219.333 100.3C220.061 101.392 220.453 102.932 220.453 104.892V105.508C220.453 107.496 220.061 109.036 219.333 110.128C218.605 111.22 217.625 111.752 216.393 111.752C215.161 111.752 214.181 111.22 213.453 110.128C212.725 109.036 212.361 107.496 212.361 105.508V104.892C212.361 102.932 212.725 101.392 213.453 100.3C214.181 99.208 215.161 98.648 216.393 98.648C217.625 98.648 218.605 99.208 219.333 100.3ZM226.43 104.752V105.648C226.43 107.608 226.766 109.316 227.438 110.744C228.11 112.172 229.062 113.264 230.294 114.02C231.498 114.804 232.898 115.168 234.494 115.168C236.062 115.168 237.462 114.804 238.694 114.02C239.926 113.264 240.878 112.172 241.55 110.744C242.222 109.316 242.586 107.608 242.586 105.648V104.752C242.586 102.848 242.222 101.168 241.55 99.712C240.878 98.284 239.926 97.192 238.694 96.408C237.462 95.624 236.062 95.232 234.494 95.232C232.926 95.232 231.526 95.624 230.294 96.408C229.062 97.192 228.11 98.284 227.438 99.712C226.766 101.168 226.43 102.848 226.43 104.752ZM237.434 100.3C238.162 101.392 238.554 102.932 238.554 104.892V105.508C238.554 107.496 238.162 109.036 237.434 110.128C236.706 111.22 235.726 111.752 234.494 111.752C233.262 111.752 232.282 111.22 231.554 110.128C230.826 109.036 230.462 107.496 230.462 105.508V104.892C230.462 102.932 230.826 101.392 231.554 100.3C232.282 99.208 233.262 98.648 234.494 98.648C235.726 98.648 236.706 99.208 237.434 100.3Z" fill="white"/>
<path d="M340.372 99.6358C340.631 99.5962 340.892 99.5765 341.154 99.5768C343.498 99.5768 345.702 101.265 346.985 104C346.789 104.416 346.567 104.82 346.322 105.209C346.244 105.33 346.203 105.471 346.204 105.614C346.205 105.775 346.259 105.931 346.358 106.058C346.457 106.186 346.594 106.277 346.749 106.319C346.905 106.361 347.07 106.35 347.219 106.29C347.368 106.229 347.493 106.121 347.575 105.983C347.918 105.443 348.217 104.876 348.467 104.287C348.506 104.196 348.527 104.096 348.527 103.996C348.527 103.896 348.506 103.797 348.467 103.705C346.978 100.248 344.176 98.1025 341.154 98.1025C340.808 98.1007 340.462 98.1303 340.122 98.1909C340.025 98.2074 339.932 98.2427 339.849 98.295C339.766 98.3472 339.694 98.4154 339.637 98.4955C339.58 98.5756 339.54 98.666 339.518 98.7618C339.496 98.8575 339.493 98.9566 339.51 99.0534C339.526 99.1502 339.562 99.2429 339.614 99.326C339.666 99.4092 339.734 99.4812 339.814 99.538C339.895 99.5948 339.985 99.6353 340.081 99.6572C340.177 99.679 340.276 99.6818 340.372 99.6653V99.6358ZM335.043 96.8419C334.974 96.7731 334.892 96.7186 334.802 96.6814C334.713 96.6442 334.616 96.6251 334.519 96.6251C334.422 96.6251 334.326 96.6442 334.236 96.6814C334.146 96.7186 334.064 96.7731 333.996 96.8419C333.857 96.9807 333.779 97.169 333.779 97.3653C333.779 97.5616 333.857 97.7499 333.996 97.8887L336.281 100.167C335.238 101.17 334.408 102.374 333.841 103.705C333.8 103.798 333.779 103.899 333.779 104C333.779 104.101 333.8 104.202 333.841 104.295C335.33 107.752 338.131 109.898 341.154 109.898C342.479 109.888 343.772 109.494 344.877 108.762L347.265 111.158C347.334 111.227 347.415 111.282 347.505 111.319C347.595 111.357 347.691 111.376 347.789 111.376C347.886 111.376 347.982 111.357 348.072 111.319C348.162 111.282 348.243 111.227 348.312 111.158C348.381 111.09 348.436 111.008 348.473 110.918C348.511 110.828 348.53 110.732 348.53 110.635C348.53 110.537 348.511 110.441 348.473 110.351C348.436 110.261 348.381 110.18 348.312 110.111L335.043 96.8419ZM339.731 103.617L341.537 105.423C341.413 105.459 341.283 105.476 341.154 105.474C340.763 105.474 340.388 105.319 340.111 105.043C339.835 104.766 339.679 104.391 339.679 104C339.678 103.87 339.695 103.741 339.731 103.617ZM341.154 108.423C338.81 108.423 336.605 106.735 335.33 104C335.806 102.949 336.482 102 337.32 101.206L338.625 102.526C338.319 103.085 338.202 103.729 338.292 104.36C338.383 104.991 338.675 105.577 339.126 106.028C339.577 106.479 340.162 106.771 340.794 106.862C341.425 106.952 342.069 106.835 342.628 106.529L343.8 107.686C342.998 108.158 342.085 108.413 341.154 108.423Z" fill="#DBE8CE"/>
<rect x="40" y="156" width="310" height="40" rx="20" fill="#D9EBCD"/>
<path d="M157.896 172.2V182H159.506V177.856H163.342V176.47H159.506V173.628H164.154V172.2H157.896ZM171.418 174.832H169.906V178.388C169.906 179.13 169.738 179.718 169.416 180.138C169.08 180.558 168.632 180.768 168.058 180.768C167.498 180.768 167.092 180.586 166.812 180.222C166.532 179.858 166.392 179.326 166.392 178.626V174.832H164.88V178.78C164.88 179.942 165.132 180.782 165.664 181.3C166.182 181.832 166.868 182.084 167.708 182.084C168.632 182.084 169.374 181.762 169.92 181.09L170.088 182H171.418V174.832ZM178.86 175.532C178.328 175.014 177.628 174.748 176.788 174.748C175.794 174.748 175.024 175.098 174.492 175.77L174.324 174.832H173.008V182H174.52V178.388C174.52 177.66 174.688 177.1 175.024 176.68C175.36 176.26 175.836 176.05 176.438 176.05C176.998 176.05 177.418 176.232 177.712 176.582C177.992 176.946 178.146 177.464 178.146 178.136V182H179.672V178.052C179.672 176.904 179.392 176.064 178.86 175.532ZM188.105 172.2H186.593V175.826C186.341 175.49 186.033 175.238 185.641 175.042C185.249 174.846 184.787 174.748 184.269 174.748C183.625 174.748 183.037 174.902 182.533 175.21C182.015 175.518 181.609 175.938 181.315 176.498C181.021 177.058 180.881 177.688 180.881 178.416C180.881 179.172 181.021 179.816 181.315 180.376C181.595 180.936 182.001 181.356 182.519 181.65C183.023 181.944 183.611 182.084 184.269 182.084C185.249 182.084 186.033 181.706 186.607 180.922L186.789 182H188.105V172.2ZM186.033 180.152C185.641 180.6 185.137 180.81 184.521 180.81C183.891 180.81 183.387 180.6 183.009 180.152C182.617 179.704 182.435 179.13 182.435 178.416C182.435 177.716 182.617 177.156 183.009 176.708C183.387 176.26 183.891 176.036 184.521 176.036C185.137 176.036 185.641 176.26 186.033 176.708C186.411 177.156 186.607 177.73 186.607 178.444C186.607 179.144 186.411 179.718 186.033 180.152ZM192.889 172.2L195.689 182H197.579L199.539 174.79L201.541 182H203.431L206.231 172.2H204.593L202.479 179.956L200.365 172.2H198.839L196.655 179.956L194.569 172.186L192.889 172.2ZM213.464 180.684H213.17C212.848 180.684 212.694 180.516 212.694 180.18V177.352C212.694 176.512 212.428 175.868 211.91 175.42C211.378 174.972 210.636 174.748 209.684 174.748C208.774 174.748 208.046 174.958 207.486 175.35C206.926 175.742 206.604 176.302 206.534 177.016H208.018C208.074 176.708 208.242 176.456 208.522 176.26C208.802 176.064 209.166 175.966 209.614 175.966C210.104 175.966 210.496 176.092 210.776 176.316C211.056 176.54 211.196 176.862 211.196 177.254V177.688H209.39C208.382 177.688 207.626 177.898 207.108 178.29C206.576 178.682 206.324 179.256 206.324 179.984C206.324 180.642 206.562 181.16 207.052 181.524C207.528 181.902 208.172 182.084 208.984 182.084C210.02 182.084 210.804 181.678 211.35 180.852C211.35 181.23 211.448 181.51 211.658 181.706C211.854 181.902 212.19 182 212.666 182H213.464V180.684ZM211.196 178.808V179.06C211.182 179.62 211 180.068 210.65 180.404C210.3 180.74 209.81 180.908 209.194 180.908C208.774 180.908 208.452 180.824 208.214 180.628C207.976 180.446 207.864 180.194 207.864 179.886C207.864 179.536 207.99 179.27 208.242 179.088C208.494 178.906 208.844 178.808 209.32 178.808H211.196ZM214.387 172.2V182H215.899V172.2H214.387ZM217.481 172.2V182H218.993V172.2H217.481ZM220.744 176.498C220.45 177.058 220.31 177.702 220.31 178.43C220.31 179.158 220.45 179.802 220.758 180.348C221.066 180.908 221.486 181.328 222.046 181.636C222.606 181.944 223.25 182.084 224.006 182.084C224.86 182.084 225.574 181.86 226.148 181.384C226.722 180.922 227.072 180.32 227.212 179.592H225.7C225.588 179.998 225.378 180.306 225.07 180.53C224.748 180.754 224.356 180.852 223.894 180.852C223.306 180.852 222.83 180.67 222.48 180.306C222.116 179.942 221.92 179.452 221.892 178.822V178.738H227.296C227.324 178.542 227.338 178.36 227.338 178.164C227.324 177.478 227.17 176.876 226.862 176.358C226.554 175.854 226.148 175.448 225.616 175.168C225.084 174.888 224.482 174.748 223.796 174.748C223.11 174.748 222.508 174.902 221.976 175.21C221.444 175.518 221.038 175.938 220.744 176.498ZM225.798 177.632H221.948C222.004 177.128 222.2 176.736 222.564 176.428C222.928 176.12 223.348 175.966 223.852 175.966C224.384 175.966 224.818 176.12 225.168 176.414C225.518 176.708 225.728 177.114 225.798 177.632ZM229.067 176.162V180.054C229.067 180.726 229.221 181.216 229.529 181.524C229.837 181.846 230.341 182 231.027 182H232.483V180.67H231.335C231.055 180.67 230.873 180.614 230.761 180.502C230.649 180.39 230.593 180.18 230.593 179.9V176.162H232.315V174.832H230.593V172.83H229.067V174.832H227.821V176.162H229.067Z" fill="#11453B"/>
</g>
</g>
<defs>
<filter id="filter0_d_4_6394" x="-32" y="0" width="454" height="288" filterUnits="userSpaceOnUse" color-interpolation-filters="sRGB">
<feFlood flood-opacity="0" result="BackgroundImageFix"/>
<feColorMatrix in="SourceAlpha" type="matrix" values="0 0 0 0 0 0 0 0 0 0 0 0 0 0 0 0 0 0 127 0" result="hardAlpha"/>
<feOffset dy="20"/>
<feGaussianBlur stdDeviation="24"/>
<feColorMatrix type="matrix" values="0 0 0 0 0.666667 0 0 0 0 0.666667 0 0 0 0 0.666667 0 0 0 0.29 0"/>
<feBlend mode="normal" in2="BackgroundImageFix" result="effect1_dropShadow_4_6394"/>
<feBlend mode="normal" in="SourceGraphic" in2="effect1_dropShadow_4_6394" result="shape"/>
</filter>
<clipPath id="clip0_4_6394">
<rect x="16" y="28" width="358" height="192" rx="24" fill="white"/>
</clipPath>
<clipPath id="clip1_4_6394">
<rect width="19.1025" height="20" fill="white" transform="translate(40 94)"/>
</clipPath>
</defs>
</svg>
