<svg width="34" height="38" viewBox="0 0 34 38" fill="none" xmlns="http://www.w3.org/2000/svg">
<path d="M26.7903 18.1569V11.3674C26.7903 10.7135 26.7897 10.3864 26.7102 10.0821C26.6397 9.81243 26.5241 9.55724 26.3675 9.32665C26.1909 9.06644 25.9453 8.85066 25.4532 8.42005L19.579 3.28016C18.6653 2.48068 18.2085 2.08114 17.6943 1.92909C17.2413 1.79512 16.7584 1.79512 16.3054 1.92909C15.7916 2.08103 15.3355 2.48018 14.4231 3.27846L8.54704 8.42005C8.05491 8.85066 7.80942 9.06644 7.63278 9.32665C7.47625 9.55725 7.35969 9.81243 7.28923 10.0821C7.20972 10.3864 7.20972 10.7135 7.20972 11.3674V18.1569C7.20972 19.2973 7.20972 19.8673 7.39603 20.3171C7.64444 20.9168 8.1206 21.3939 8.72033 21.6423C9.17012 21.8286 9.74033 21.8286 10.8808 21.8286C12.0212 21.8286 12.592 21.8286 13.0418 21.6423C13.6415 21.3939 14.1176 20.9169 14.366 20.3172C14.5523 19.8674 14.5524 19.2972 14.5524 18.1568V16.933C14.5524 15.5812 15.6482 14.4854 17 14.4854C18.3517 14.4854 19.4476 15.5812 19.4476 16.933V18.1568C19.4476 19.2972 19.4476 19.8674 19.6339 20.3172C19.8823 20.9169 20.3584 21.3939 20.9582 21.6423C21.408 21.8286 21.9782 21.8286 23.1186 21.8286C24.259 21.8286 24.8299 21.8286 25.2797 21.6423C25.8794 21.3939 26.3554 20.9168 26.6038 20.3171C26.7901 19.8673 26.7903 19.2973 26.7903 18.1569Z" fill="#11453B" stroke="#11453B" stroke-width="2" stroke-linecap="round" stroke-linejoin="round"/>
<path d="M8.408 34.8823H6.956V31.2463H2.96V34.8823H1.52V26.3743H2.96V29.8903H6.956V26.3743H8.408V34.8823ZM12.8743 33.8143C13.7383 33.8143 14.5063 33.1783 14.5063 31.9543C14.5063 30.7423 13.7383 30.1183 12.8743 30.1183C12.0223 30.1183 11.2423 30.7423 11.2423 31.9543C11.2423 33.1663 12.0223 33.8143 12.8743 33.8143ZM12.8743 28.8583C14.6263 28.8583 15.9103 30.1663 15.9103 31.9543C15.9103 33.7543 14.6263 35.0623 12.8743 35.0623C11.1343 35.0623 9.85025 33.7543 9.85025 31.9543C9.85025 30.1663 11.1343 28.8583 12.8743 28.8583ZM18.6355 34.8823H17.2555V29.0383H18.5875V29.7823C18.9235 29.1823 19.6555 28.8703 20.3155 28.8703C21.0835 28.8703 21.7555 29.2183 22.0675 29.9023C22.5235 29.1343 23.2075 28.8703 23.9635 28.8703C25.0195 28.8703 26.0275 29.5423 26.0275 31.0903V34.8823H24.6835V31.3183C24.6835 30.6343 24.3355 30.1183 23.5555 30.1183C22.8235 30.1183 22.3435 30.6943 22.3435 31.4143V34.8823H20.9755V31.3183C20.9755 30.6463 20.6395 30.1183 19.8475 30.1183C19.1035 30.1183 18.6355 30.6703 18.6355 31.4143V34.8823ZM28.704 31.3183H31.572C31.548 30.6343 31.092 30.0223 30.132 30.0223C29.256 30.0223 28.752 30.6943 28.704 31.3183ZM31.728 32.8423L32.904 33.2143C32.592 34.2343 31.668 35.0623 30.264 35.0623C28.68 35.0623 27.276 33.9103 27.276 31.9303C27.276 30.0823 28.644 28.8583 30.12 28.8583C31.92 28.8583 32.976 30.0463 32.976 31.8943C32.976 32.1223 32.952 32.3143 32.94 32.3383H28.668C28.704 33.2263 29.4 33.8623 30.264 33.8623C31.104 33.8623 31.536 33.4183 31.728 32.8423Z" fill="#11453B"/>
</svg>
