<svg width="38" height="38" viewBox="0 0 38 38" fill="none" xmlns="http://www.w3.org/2000/svg">
<g clip-path="url(#clip0_2098_3272)">
<path d="M24.0431 19.9995C19.4882 19.9995 14.9295 19.9995 10.3746 19.9995C10.3511 19.9878 10.3276 19.976 10.3041 19.9682C9.2515 19.7647 8.60583 19.0017 8.60583 17.9451C8.60583 12.6428 8.60583 7.33663 8.60583 2.03434C8.60583 0.833008 9.44716 -0.000488281 10.6485 -0.000488281C13.5833 0.00342485 16.5182 0.0190774 19.453 0.0229905C19.9343 0.0229905 20.3335 0.191255 20.6778 0.527784C22.1883 1.99912 23.7027 3.46654 25.2249 4.92614C25.5888 5.27441 25.7532 5.67355 25.7532 6.17443C25.7453 8.90188 25.7492 11.6293 25.7492 14.3568C25.7492 15.562 25.7532 16.7634 25.7492 17.9686C25.7453 18.8921 25.2288 19.6395 24.4149 19.9017C24.2936 19.9369 24.1683 19.9643 24.0431 19.9995ZM19.0343 1.59607C18.9482 1.59215 18.8856 1.58433 18.823 1.58433C16.1425 1.5765 13.4581 1.56476 10.7776 1.55694C10.2689 1.55694 10.1672 1.65868 10.1672 2.15565C10.1672 7.37185 10.1672 12.5841 10.1672 17.8003C10.1672 17.8669 10.1672 17.9295 10.1672 17.996C10.175 18.2386 10.3354 18.4069 10.582 18.4264C10.6407 18.4303 10.6994 18.4264 10.7581 18.4264C15.0547 18.4264 19.3513 18.4264 23.6479 18.4264C24.0783 18.4264 24.1879 18.313 24.1879 17.8825C24.1879 14.1768 24.1879 10.475 24.1879 6.76922C24.1879 6.69879 24.1879 6.63226 24.1879 6.55009C24.0862 6.55009 24.0157 6.55009 23.9453 6.55009C22.9866 6.55009 22.0318 6.55009 21.0731 6.55009C19.8756 6.54618 19.0343 5.70485 19.0304 4.51135C19.0265 3.61133 19.0304 2.71522 19.0304 1.8152C19.0343 1.75259 19.0343 1.68216 19.0343 1.59607ZM20.5957 2.62131C20.5957 3.28654 20.5957 3.89699 20.5957 4.50744C20.5957 4.84005 20.7483 4.99266 21.0848 4.99266C21.6835 4.99658 22.2822 4.99266 22.8809 4.99266C22.9201 4.99266 22.9592 4.98092 23.0257 4.96918C22.2157 4.18656 21.4292 3.42741 20.5957 2.62131Z" fill="#8D8E8D" stroke="#8D8E8D" stroke-width="0.308277"/>
<path d="M17.1999 14.882C18.593 14.882 19.9822 14.882 21.3752 14.882C21.8722 14.882 22.2166 14.5377 22.2009 14.072C22.1892 13.7355 21.9465 13.4302 21.6178 13.352C21.5239 13.3285 21.4261 13.3207 21.3283 13.3207C18.5773 13.3207 15.8264 13.3207 13.0755 13.3207C12.6216 13.3207 12.3163 13.5476 12.2263 13.9429C12.1246 14.3772 12.4455 14.8272 12.8877 14.8742C12.9777 14.882 13.0677 14.882 13.1616 14.882C14.5077 14.882 15.8538 14.882 17.1999 14.882Z" fill="#8D8E8D" stroke="#8D8E8D" stroke-width="0.308277"/>
<path d="M16.1904 11.7593C17.2508 11.7593 18.3113 11.7632 19.3717 11.7554C19.9587 11.7515 20.3383 11.1919 20.1074 10.6754C19.9548 10.331 19.673 10.1941 19.3091 10.1941C18.3152 10.1941 17.3173 10.1941 16.3234 10.1941C15.2356 10.1941 14.1516 10.1941 13.0638 10.1941C12.6529 10.1941 12.3555 10.3936 12.242 10.7302C12.0737 11.2389 12.4377 11.7476 12.9894 11.7515C13.9129 11.7593 14.8364 11.7554 15.7599 11.7554C15.9047 11.7593 16.0495 11.7593 16.1904 11.7593Z" fill="#8D8E8D" stroke="#8D8E8D" stroke-width="0.308277"/>
<path d="M15.1885 8.63274C15.9242 8.63274 16.6559 8.63666 17.3916 8.62883C17.7438 8.62492 18.0216 8.39013 18.1116 8.04969C18.1977 7.73664 18.0803 7.38837 17.7947 7.21619C17.6616 7.13793 17.4933 7.07532 17.3407 7.07532C15.8968 7.06358 14.4528 7.06749 13.0128 7.0714C12.5863 7.0714 12.2693 7.35315 12.2106 7.75229C12.1558 8.11621 12.3906 8.48404 12.7585 8.59361C12.8602 8.62492 12.9776 8.62883 13.0872 8.62883C13.7876 8.63665 14.4881 8.63274 15.1885 8.63274Z" fill="#8D8E8D" stroke="#8D8E8D" stroke-width="0.308277"/>
</g>
<path d="M2.756 29.3463H4.46C4.964 29.3463 5.364 29.2183 5.66 28.9623C5.956 28.6983 6.104 28.3463 6.104 27.9063C6.104 27.4583 5.956 27.1023 5.66 26.8383C5.364 26.5663 4.964 26.4303 4.46 26.4303H2.756V29.3463ZM4.676 30.4023H2.756V33.8823H1.58V25.3743H4.676C5.452 25.3743 6.084 25.6143 6.572 26.0943C7.06 26.5743 7.304 27.1743 7.304 27.8943C7.304 28.6223 7.06 29.2223 6.572 29.6943C6.084 30.1663 5.452 30.4023 4.676 30.4023ZM7.89688 32.3343C7.89688 31.8383 8.05688 31.4423 8.37688 31.1463C8.69688 30.8423 9.12088 30.6543 9.64888 30.5823L11.2089 30.3543C11.5049 30.3143 11.6529 30.1703 11.6529 29.9223C11.6529 29.6183 11.5489 29.3703 11.3409 29.1783C11.1329 28.9863 10.8209 28.8903 10.4049 28.8903C10.0209 28.8903 9.71688 28.9983 9.49288 29.2143C9.26888 29.4223 9.13688 29.7023 9.09688 30.0543L8.01688 29.8023C8.07288 29.2503 8.32488 28.8023 8.77288 28.4583C9.22088 28.1063 9.75688 27.9303 10.3809 27.9303C11.1969 27.9303 11.8009 28.1303 12.1929 28.5303C12.5849 28.9223 12.7809 29.4263 12.7809 30.0423V32.9343C12.7809 33.2783 12.8049 33.5943 12.8529 33.8823H11.7489C11.7089 33.6423 11.6889 33.3823 11.6889 33.1023C11.5289 33.3583 11.2929 33.5823 10.9809 33.7743C10.6769 33.9663 10.2929 34.0623 9.82888 34.0623C9.26088 34.0623 8.79688 33.8943 8.43688 33.5583C8.07688 33.2143 7.89688 32.8063 7.89688 32.3343ZM9.98488 33.1143C10.4889 33.1143 10.8929 32.9783 11.1969 32.7063C11.5009 32.4343 11.6529 32.0023 11.6529 31.4103V31.1463L9.88888 31.4103C9.63288 31.4503 9.42888 31.5423 9.27688 31.6863C9.12488 31.8303 9.04888 32.0263 9.04888 32.2743C9.04888 32.4983 9.13288 32.6943 9.30088 32.8623C9.47688 33.0303 9.70488 33.1143 9.98488 33.1143ZM15.8609 36.2943H14.6249L16.0649 33.2463L13.5809 28.1103H14.8769L16.6769 32.0943L18.4049 28.1103H19.6169L15.8609 36.2943ZM23.9062 28.0503V29.2503C23.7382 29.2263 23.5742 29.2143 23.4142 29.2143C22.3582 29.2143 21.8302 29.8063 21.8302 30.9903V33.8823H20.7022V28.1103H21.8062V29.1183C22.1582 28.3823 22.7342 28.0143 23.5342 28.0143C23.6622 28.0143 23.7862 28.0263 23.9062 28.0503ZM26.2378 32.5143C26.5898 32.8743 27.0178 33.0543 27.5218 33.0543C28.0258 33.0543 28.4498 32.8743 28.7938 32.5143C29.1458 32.1463 29.3218 31.6383 29.3218 30.9903C29.3218 30.3503 29.1458 29.8503 28.7938 29.4903C28.4498 29.1223 28.0258 28.9383 27.5218 28.9383C27.0178 28.9383 26.5898 29.1223 26.2378 29.4903C25.8938 29.8503 25.7218 30.3503 25.7218 30.9903C25.7218 31.6383 25.8938 32.1463 26.2378 32.5143ZM25.3978 28.8063C25.9578 28.2223 26.6658 27.9303 27.5218 27.9303C28.3778 27.9303 29.0818 28.2223 29.6338 28.8063C30.1938 29.3823 30.4738 30.1103 30.4738 30.9903C30.4738 31.8783 30.1978 32.6143 29.6458 33.1983C29.0938 33.7743 28.3858 34.0623 27.5218 34.0623C26.6578 34.0623 25.9498 33.7743 25.3978 33.1983C24.8458 32.6143 24.5698 31.8783 24.5698 30.9903C24.5698 30.1103 24.8458 29.3823 25.3978 28.8063ZM33.045 33.8823H31.917V25.1943H33.045V33.8823ZM36.0919 33.8823H34.9639V25.1943H36.0919V33.8823Z" fill="#8D8E8D"/>
<defs>
<clipPath id="clip0_2098_3272">
<rect width="17.1512" height="20" fill="white" transform="translate(8.60583 -0.000488281)"/>
</clipPath>
</defs>
</svg>
