<svg width="171" height="80" viewBox="0 0 171 80" fill="none" xmlns="http://www.w3.org/2000/svg">
<rect width="171" height="80" rx="16" fill="#F2F1F1"/>
<path d="M16.35 22.2V23.32H19.528V32H20.746V23.32H23.924V22.2H16.35ZM25.4897 31.622C26.0217 31.93 26.6377 32.084 27.3377 32.084C28.0237 32.084 28.6397 31.93 29.1717 31.622C29.7037 31.314 30.1237 30.894 30.4317 30.334C30.7257 29.788 30.8797 29.158 30.8797 28.43C30.8797 27.716 30.7257 27.086 30.4317 26.526C30.1237 25.98 29.7037 25.546 29.1717 25.238C28.6397 24.93 28.0237 24.776 27.3377 24.776C26.6377 24.776 26.0217 24.93 25.4897 25.238C24.9577 25.546 24.5377 25.98 24.2437 26.526C23.9357 27.086 23.7957 27.716 23.7957 28.43C23.7957 29.158 23.9357 29.788 24.2437 30.334C24.5377 30.894 24.9577 31.314 25.4897 31.622ZM28.5697 30.726C28.2057 30.95 27.7997 31.062 27.3377 31.062C26.8617 31.062 26.4557 30.95 26.0917 30.726C25.7277 30.502 25.4617 30.194 25.2657 29.788C25.0697 29.396 24.9717 28.934 24.9717 28.43C24.9717 27.926 25.0697 27.478 25.2657 27.072C25.4617 26.68 25.7277 26.358 26.0917 26.134C26.4557 25.91 26.8617 25.798 27.3377 25.798C27.7997 25.798 28.2057 25.91 28.5697 26.134C28.9337 26.358 29.2137 26.68 29.4097 27.072C29.6057 27.478 29.7037 27.926 29.7037 28.43C29.7037 28.934 29.6057 29.396 29.4097 29.788C29.2137 30.194 28.9337 30.502 28.5697 30.726ZM32.8401 25.91V30.138C32.8401 30.782 32.9801 31.258 33.2601 31.552C33.5401 31.86 34.0301 32 34.7021 32H36.0181V30.95H34.7721C34.4781 30.95 34.2681 30.894 34.1561 30.768C34.0441 30.642 33.9881 30.432 33.9881 30.124V25.91H35.7941V24.86H33.9881V22.858H32.8401V24.86H31.5521V25.91H32.8401ZM43.6534 30.95H43.3034C42.9814 30.95 42.8274 30.782 42.8274 30.432V27.352C42.8274 26.526 42.5754 25.896 42.0714 25.448C41.5674 25 40.8674 24.776 39.9574 24.776C39.0894 24.776 38.3894 24.972 37.8574 25.364C37.3254 25.756 37.0174 26.302 36.9334 27.002H38.0814C38.1514 26.638 38.3474 26.358 38.6694 26.134C38.9914 25.91 39.3974 25.798 39.9014 25.798C40.4614 25.798 40.8954 25.938 41.2034 26.19C41.5114 26.456 41.6794 26.82 41.6794 27.282V27.772H39.5794C38.6414 27.772 37.9274 27.968 37.4374 28.346C36.9474 28.738 36.7094 29.284 36.7094 29.998C36.7094 30.642 36.9474 31.16 37.4234 31.524C37.8994 31.902 38.5434 32.084 39.3414 32.084C40.3774 32.084 41.1754 31.692 41.7354 30.894C41.7354 31.258 41.8474 31.538 42.0434 31.72C42.2394 31.916 42.5614 32 43.0234 32H43.6534V30.95ZM41.6794 28.738V29.088C41.6794 29.704 41.4694 30.194 41.0774 30.558C40.6714 30.922 40.1254 31.104 39.4254 31.104C38.9494 31.104 38.5714 31.006 38.2914 30.782C38.0114 30.572 37.8714 30.292 37.8714 29.928C37.8714 29.144 38.4034 28.738 39.4674 28.738H41.6794ZM44.786 22.2V32H45.934V22.2H44.786ZM51.8387 22.2V32H58.2647V30.88H53.0567V27.576H57.2427V26.456H53.0567V23.32H58.0827V22.2H51.8387ZM69.6257 25.532C69.1217 25.028 68.4777 24.776 67.6797 24.776C66.5317 24.776 65.7057 25.238 65.2017 26.134C65.0057 25.686 64.6977 25.35 64.3057 25.126C63.9137 24.902 63.4517 24.776 62.9477 24.776C62.0657 24.776 61.3657 25.14 60.8617 25.84L60.7077 24.86H59.7137V32H60.8617V28.234C60.8617 27.52 61.0297 26.946 61.3657 26.498C61.7017 26.05 62.1637 25.826 62.7517 25.826C63.2977 25.826 63.7177 26.008 64.0257 26.372C64.3197 26.736 64.4737 27.268 64.4737 27.954V32H65.6217V28.178C65.6217 27.45 65.7897 26.876 66.1257 26.456C66.4617 26.036 66.9377 25.826 67.5397 25.826C68.0717 25.826 68.4917 26.008 68.7857 26.372C69.0797 26.736 69.2337 27.268 69.2337 27.954V32H70.3817V27.884C70.3817 26.82 70.1297 26.036 69.6257 25.532ZM77.4663 25.21C76.9483 24.93 76.3603 24.776 75.7023 24.776C74.6663 24.776 73.8403 25.196 73.2523 26.008L73.0983 24.86H72.1043V34.8H73.2523V30.908C73.4763 31.272 73.7983 31.566 74.2183 31.776C74.6243 31.986 75.1143 32.084 75.7023 32.084C76.3463 32.084 76.9343 31.93 77.4663 31.622C77.9843 31.314 78.3903 30.894 78.6843 30.334C78.9783 29.788 79.1323 29.158 79.1323 28.43C79.1323 27.674 78.9783 27.03 78.6843 26.47C78.3903 25.924 77.9843 25.504 77.4663 25.21ZM77.2983 30.334C76.8643 30.824 76.2903 31.062 75.5903 31.062C75.1283 31.062 74.7223 30.95 74.3583 30.726C73.9943 30.502 73.7283 30.194 73.5323 29.788C73.3363 29.382 73.2383 28.92 73.2383 28.402C73.2383 27.898 73.3363 27.45 73.5323 27.058C73.7283 26.666 73.9943 26.358 74.3583 26.134C74.7223 25.91 75.1283 25.798 75.5903 25.798C76.2903 25.798 76.8643 26.05 77.2983 26.54C77.7323 27.03 77.9563 27.66 77.9563 28.43C77.9563 29.214 77.7323 29.844 77.2983 30.334ZM80.6942 22.2V32H81.8422V22.2H80.6942ZM85.1069 31.622C85.6389 31.93 86.2549 32.084 86.9549 32.084C87.6409 32.084 88.2569 31.93 88.7889 31.622C89.3209 31.314 89.7409 30.894 90.0489 30.334C90.3429 29.788 90.4969 29.158 90.4969 28.43C90.4969 27.716 90.3429 27.086 90.0489 26.526C89.7409 25.98 89.3209 25.546 88.7889 25.238C88.2569 24.93 87.6409 24.776 86.9549 24.776C86.2549 24.776 85.6389 24.93 85.1069 25.238C84.5749 25.546 84.1549 25.98 83.8609 26.526C83.5529 27.086 83.4129 27.716 83.4129 28.43C83.4129 29.158 83.5529 29.788 83.8609 30.334C84.1549 30.894 84.5749 31.314 85.1069 31.622ZM88.1869 30.726C87.8229 30.95 87.4169 31.062 86.9549 31.062C86.4789 31.062 86.0729 30.95 85.7089 30.726C85.3449 30.502 85.0789 30.194 84.8829 29.788C84.6869 29.396 84.5889 28.934 84.5889 28.43C84.5889 27.926 84.6869 27.478 84.8829 27.072C85.0789 26.68 85.3449 26.358 85.7089 26.134C86.0729 25.91 86.4789 25.798 86.9549 25.798C87.4169 25.798 87.8229 25.91 88.1869 26.134C88.5509 26.358 88.8309 26.68 89.0269 27.072C89.2229 27.478 89.3209 27.926 89.3209 28.43C89.3209 28.934 89.2229 29.396 89.0269 29.788C88.8309 30.194 88.5509 30.502 88.1869 30.726ZM92.2939 24.86H91.0759L93.8759 32.056L93.5119 32.91C93.3999 33.162 93.3159 33.344 93.2459 33.456C93.1759 33.568 93.0919 33.638 92.9799 33.68C92.8679 33.736 92.6999 33.75 92.4759 33.75H91.4539V34.8H92.8259C93.1479 34.8 93.4139 34.758 93.6099 34.646C93.8059 34.548 93.9599 34.394 94.0999 34.17C94.2259 33.96 94.3799 33.638 94.5479 33.204L97.8379 24.86H96.6199L94.4919 30.684L92.2939 24.86ZM98.8387 26.512C98.5587 27.072 98.4187 27.702 98.4187 28.43C98.4187 29.158 98.5587 29.788 98.8527 30.348C99.1467 30.908 99.5667 31.328 100.099 31.636C100.631 31.944 101.247 32.084 101.961 32.084C102.773 32.084 103.459 31.86 104.019 31.398C104.579 30.936 104.929 30.334 105.069 29.606H103.907C103.781 30.068 103.543 30.432 103.179 30.684C102.815 30.936 102.381 31.062 101.877 31.062C101.205 31.062 100.673 30.852 100.267 30.432C99.8467 30.012 99.6367 29.452 99.6227 28.752V28.654H105.167C105.181 28.43 105.195 28.276 105.195 28.164C105.167 27.478 105.013 26.876 104.733 26.358C104.439 25.854 104.047 25.462 103.543 25.182C103.039 24.916 102.451 24.776 101.807 24.776C101.135 24.776 100.547 24.93 100.043 25.238C99.5247 25.546 99.1187 25.966 98.8387 26.512ZM104.005 27.702H99.6927C99.7487 27.142 99.9727 26.68 100.393 26.316C100.799 25.966 101.275 25.784 101.821 25.784C102.423 25.784 102.927 25.952 103.319 26.288C103.711 26.624 103.949 27.1 104.005 27.702ZM106.923 26.512C106.643 27.072 106.503 27.702 106.503 28.43C106.503 29.158 106.643 29.788 106.937 30.348C107.231 30.908 107.651 31.328 108.183 31.636C108.715 31.944 109.331 32.084 110.045 32.084C110.857 32.084 111.543 31.86 112.103 31.398C112.663 30.936 113.013 30.334 113.153 29.606H111.991C111.865 30.068 111.627 30.432 111.263 30.684C110.899 30.936 110.465 31.062 109.961 31.062C109.289 31.062 108.757 30.852 108.351 30.432C107.931 30.012 107.721 29.452 107.707 28.752V28.654H113.251C113.265 28.43 113.279 28.276 113.279 28.164C113.251 27.478 113.097 26.876 112.817 26.358C112.523 25.854 112.131 25.462 111.627 25.182C111.123 24.916 110.535 24.776 109.891 24.776C109.219 24.776 108.631 24.93 108.127 25.238C107.609 25.546 107.203 25.966 106.923 26.512ZM112.089 27.702H107.777C107.833 27.142 108.057 26.68 108.477 26.316C108.883 25.966 109.359 25.784 109.905 25.784C110.507 25.784 111.011 25.952 111.403 26.288C111.795 26.624 112.033 27.1 112.089 27.702Z" fill="#515251"/>
<path d="M20.298 48.2H18.324V49.152C18.324 49.432 18.254 49.67 18.128 49.866C18.002 50.062 17.82 50.146 17.582 50.146H16.112V51.812H17.75C17.974 51.812 18.156 51.798 18.282 51.742V58H20.298V48.2ZM21.908 52.876V53.324C21.908 54.304 22.076 55.158 22.412 55.872C22.748 56.586 23.224 57.132 23.84 57.51C24.442 57.902 25.142 58.084 25.94 58.084C26.724 58.084 27.424 57.902 28.04 57.51C28.656 57.132 29.132 56.586 29.468 55.872C29.804 55.158 29.986 54.304 29.986 53.324V52.876C29.986 51.924 29.804 51.084 29.468 50.356C29.132 49.642 28.656 49.096 28.04 48.704C27.424 48.312 26.724 48.116 25.94 48.116C25.156 48.116 24.456 48.312 23.84 48.704C23.224 49.096 22.748 49.642 22.412 50.356C22.076 51.084 21.908 51.924 21.908 52.876ZM27.41 50.65C27.774 51.196 27.97 51.966 27.97 52.946V53.254C27.97 54.248 27.774 55.018 27.41 55.564C27.046 56.11 26.556 56.376 25.94 56.376C25.324 56.376 24.834 56.11 24.47 55.564C24.106 55.018 23.924 54.248 23.924 53.254V52.946C23.924 51.966 24.106 51.196 24.47 50.65C24.834 50.104 25.324 49.824 25.94 49.824C26.556 49.824 27.046 50.104 27.41 50.65ZM32.6815 56.306C32.4015 55.97 32.0515 55.788 31.6175 55.788C31.2675 55.788 30.9735 55.9 30.7355 56.124C30.4975 56.348 30.3855 56.6 30.3855 56.908C30.3855 57.258 30.4695 57.524 30.6515 57.706C30.8335 57.888 31.0575 57.972 31.3375 57.972C31.4775 57.972 31.6315 57.944 31.7855 57.86C31.7855 57.902 31.7995 57.972 31.7995 58.056C31.7995 58.336 31.6735 58.56 31.4495 58.728C31.2255 58.91 30.8895 59.008 30.4695 59.008V60.03C31.2815 60.03 31.9115 59.82 32.3875 59.4C32.8495 58.994 33.0875 58.406 33.0875 57.622C33.0875 57.09 32.9475 56.642 32.6815 56.306ZM33.5369 52.876V53.324C33.5369 54.304 33.7049 55.158 34.0409 55.872C34.3769 56.586 34.8529 57.132 35.4689 57.51C36.0709 57.902 36.7709 58.084 37.5689 58.084C38.3529 58.084 39.0529 57.902 39.6689 57.51C40.2849 57.132 40.7609 56.586 41.0969 55.872C41.4329 55.158 41.6149 54.304 41.6149 53.324V52.876C41.6149 51.924 41.4329 51.084 41.0969 50.356C40.7609 49.642 40.2849 49.096 39.6689 48.704C39.0529 48.312 38.3529 48.116 37.5689 48.116C36.7849 48.116 36.0849 48.312 35.4689 48.704C34.8529 49.096 34.3769 49.642 34.0409 50.356C33.7049 51.084 33.5369 51.924 33.5369 52.876ZM39.0389 50.65C39.4029 51.196 39.5989 51.966 39.5989 52.946V53.254C39.5989 54.248 39.4029 55.018 39.0389 55.564C38.6749 56.11 38.1849 56.376 37.5689 56.376C36.9529 56.376 36.4629 56.11 36.0989 55.564C35.7349 55.018 35.5529 54.248 35.5529 53.254V52.946C35.5529 51.966 35.7349 51.196 36.0989 50.65C36.4629 50.104 36.9529 49.824 37.5689 49.824C38.1849 49.824 38.6749 50.104 39.0389 50.65ZM42.8377 52.876V53.324C42.8377 54.304 43.0057 55.158 43.3417 55.872C43.6777 56.586 44.1537 57.132 44.7697 57.51C45.3717 57.902 46.0717 58.084 46.8697 58.084C47.6537 58.084 48.3537 57.902 48.9697 57.51C49.5857 57.132 50.0617 56.586 50.3977 55.872C50.7337 55.158 50.9157 54.304 50.9157 53.324V52.876C50.9157 51.924 50.7337 51.084 50.3977 50.356C50.0617 49.642 49.5857 49.096 48.9697 48.704C48.3537 48.312 47.6537 48.116 46.8697 48.116C46.0857 48.116 45.3857 48.312 44.7697 48.704C44.1537 49.096 43.6777 49.642 43.3417 50.356C43.0057 51.084 42.8377 51.924 42.8377 52.876ZM48.3397 50.65C48.7037 51.196 48.8997 51.966 48.8997 52.946V53.254C48.8997 54.248 48.7037 55.018 48.3397 55.564C47.9757 56.11 47.4857 56.376 46.8697 56.376C46.2537 56.376 45.7637 56.11 45.3997 55.564C45.0357 55.018 44.8537 54.248 44.8537 53.254V52.946C44.8537 51.966 45.0357 51.196 45.3997 50.65C45.7637 50.104 46.2537 49.824 46.8697 49.824C47.4857 49.824 47.9757 50.104 48.3397 50.65ZM52.1384 52.876V53.324C52.1384 54.304 52.3064 55.158 52.6424 55.872C52.9784 56.586 53.4544 57.132 54.0704 57.51C54.6724 57.902 55.3724 58.084 56.1704 58.084C56.9544 58.084 57.6544 57.902 58.2704 57.51C58.8864 57.132 59.3624 56.586 59.6984 55.872C60.0344 55.158 60.2164 54.304 60.2164 53.324V52.876C60.2164 51.924 60.0344 51.084 59.6984 50.356C59.3624 49.642 58.8864 49.096 58.2704 48.704C57.6544 48.312 56.9544 48.116 56.1704 48.116C55.3864 48.116 54.6864 48.312 54.0704 48.704C53.4544 49.096 52.9784 49.642 52.6424 50.356C52.3064 51.084 52.1384 51.924 52.1384 52.876ZM57.6404 50.65C58.0044 51.196 58.2004 51.966 58.2004 52.946V53.254C58.2004 54.248 58.0044 55.018 57.6404 55.564C57.2764 56.11 56.7864 56.376 56.1704 56.376C55.5544 56.376 55.0644 56.11 54.7004 55.564C54.3364 55.018 54.1544 54.248 54.1544 53.254V52.946C54.1544 51.966 54.3364 51.196 54.7004 50.65C55.0644 50.104 55.5544 49.824 56.1704 49.824C56.7864 49.824 57.2764 50.104 57.6404 50.65Z" fill="#515251"/>
</svg>
