<svg width="171" height="80" viewBox="0 0 171 80" fill="none" xmlns="http://www.w3.org/2000/svg">
<rect width="171" height="80" rx="16" fill="#F2F1F1"/>
<path d="M16.35 22.2V23.32H19.528V32H20.746V23.32H23.924V22.2H16.35ZM25.4897 31.622C26.0217 31.93 26.6377 32.084 27.3377 32.084C28.0237 32.084 28.6397 31.93 29.1717 31.622C29.7037 31.314 30.1237 30.894 30.4317 30.334C30.7257 29.788 30.8797 29.158 30.8797 28.43C30.8797 27.716 30.7257 27.086 30.4317 26.526C30.1237 25.98 29.7037 25.546 29.1717 25.238C28.6397 24.93 28.0237 24.776 27.3377 24.776C26.6377 24.776 26.0217 24.93 25.4897 25.238C24.9577 25.546 24.5377 25.98 24.2437 26.526C23.9357 27.086 23.7957 27.716 23.7957 28.43C23.7957 29.158 23.9357 29.788 24.2437 30.334C24.5377 30.894 24.9577 31.314 25.4897 31.622ZM28.5697 30.726C28.2057 30.95 27.7997 31.062 27.3377 31.062C26.8617 31.062 26.4557 30.95 26.0917 30.726C25.7277 30.502 25.4617 30.194 25.2657 29.788C25.0697 29.396 24.9717 28.934 24.9717 28.43C24.9717 27.926 25.0697 27.478 25.2657 27.072C25.4617 26.68 25.7277 26.358 26.0917 26.134C26.4557 25.91 26.8617 25.798 27.3377 25.798C27.7997 25.798 28.2057 25.91 28.5697 26.134C28.9337 26.358 29.2137 26.68 29.4097 27.072C29.6057 27.478 29.7037 27.926 29.7037 28.43C29.7037 28.934 29.6057 29.396 29.4097 29.788C29.2137 30.194 28.9337 30.502 28.5697 30.726ZM32.8401 25.91V30.138C32.8401 30.782 32.9801 31.258 33.2601 31.552C33.5401 31.86 34.0301 32 34.7021 32H36.0181V30.95H34.7721C34.4781 30.95 34.2681 30.894 34.1561 30.768C34.0441 30.642 33.9881 30.432 33.9881 30.124V25.91H35.7941V24.86H33.9881V22.858H32.8401V24.86H31.5521V25.91H32.8401ZM43.6534 30.95H43.3034C42.9814 30.95 42.8274 30.782 42.8274 30.432V27.352C42.8274 26.526 42.5754 25.896 42.0714 25.448C41.5674 25 40.8674 24.776 39.9574 24.776C39.0894 24.776 38.3894 24.972 37.8574 25.364C37.3254 25.756 37.0174 26.302 36.9334 27.002H38.0814C38.1514 26.638 38.3474 26.358 38.6694 26.134C38.9914 25.91 39.3974 25.798 39.9014 25.798C40.4614 25.798 40.8954 25.938 41.2034 26.19C41.5114 26.456 41.6794 26.82 41.6794 27.282V27.772H39.5794C38.6414 27.772 37.9274 27.968 37.4374 28.346C36.9474 28.738 36.7094 29.284 36.7094 29.998C36.7094 30.642 36.9474 31.16 37.4234 31.524C37.8994 31.902 38.5434 32.084 39.3414 32.084C40.3774 32.084 41.1754 31.692 41.7354 30.894C41.7354 31.258 41.8474 31.538 42.0434 31.72C42.2394 31.916 42.5614 32 43.0234 32H43.6534V30.95ZM41.6794 28.738V29.088C41.6794 29.704 41.4694 30.194 41.0774 30.558C40.6714 30.922 40.1254 31.104 39.4254 31.104C38.9494 31.104 38.5714 31.006 38.2914 30.782C38.0114 30.572 37.8714 30.292 37.8714 29.928C37.8714 29.144 38.4034 28.738 39.4674 28.738H41.6794ZM44.786 22.2V32H45.934V22.2H44.786ZM55.6047 22.2H51.8387V32H53.0567V28.234H55.6047C56.2487 28.234 56.8087 28.122 57.2987 27.87C57.7887 27.618 58.1667 27.268 58.4467 26.806C58.7127 26.358 58.8527 25.826 58.8527 25.21C58.8527 24.608 58.7127 24.076 58.4467 23.628C58.1807 23.18 57.8027 22.83 57.3127 22.578C56.8087 22.326 56.2487 22.2 55.6047 22.2ZM53.0567 27.114V23.32H55.5067C56.1507 23.32 56.6547 23.502 57.0327 23.838C57.4107 24.174 57.6067 24.636 57.6067 25.21C57.6067 25.798 57.4107 26.26 57.0327 26.596C56.6407 26.946 56.1367 27.114 55.4927 27.114H53.0567ZM66.4874 30.95H66.1374C65.8154 30.95 65.6614 30.782 65.6614 30.432V27.352C65.6614 26.526 65.4094 25.896 64.9054 25.448C64.4014 25 63.7014 24.776 62.7914 24.776C61.9234 24.776 61.2234 24.972 60.6914 25.364C60.1594 25.756 59.8514 26.302 59.7674 27.002H60.9154C60.9854 26.638 61.1814 26.358 61.5034 26.134C61.8254 25.91 62.2314 25.798 62.7354 25.798C63.2954 25.798 63.7294 25.938 64.0374 26.19C64.3454 26.456 64.5134 26.82 64.5134 27.282V27.772H62.4134C61.4754 27.772 60.7614 27.968 60.2714 28.346C59.7814 28.738 59.5434 29.284 59.5434 29.998C59.5434 30.642 59.7814 31.16 60.2574 31.524C60.7334 31.902 61.3774 32.084 62.1754 32.084C63.2114 32.084 64.0094 31.692 64.5694 30.894C64.5694 31.258 64.6814 31.538 64.8774 31.72C65.0734 31.916 65.3954 32 65.8574 32H66.4874V30.95ZM64.5134 28.738V29.088C64.5134 29.704 64.3034 30.194 63.9114 30.558C63.5054 30.922 62.9594 31.104 62.2594 31.104C61.7834 31.104 61.4054 31.006 61.1254 30.782C60.8454 30.572 60.7054 30.292 60.7054 29.928C60.7054 29.144 61.2374 28.738 62.3014 28.738H64.5134ZM67.9189 24.86H66.7009L69.5009 32.056L69.1369 32.91C69.0249 33.162 68.9409 33.344 68.8709 33.456C68.8009 33.568 68.7169 33.638 68.6049 33.68C68.4929 33.736 68.3249 33.75 68.1009 33.75H67.0789V34.8H68.4509C68.7729 34.8 69.0389 34.758 69.2349 34.646C69.4309 34.548 69.5849 34.394 69.7249 34.17C69.8509 33.96 70.0049 33.638 70.1729 33.204L73.4629 24.86H72.2449L70.1169 30.684L67.9189 24.86ZM78.1952 24.86H77.8732C77.2852 24.86 76.8372 24.958 76.5152 25.154C76.1792 25.35 75.9132 25.616 75.7172 25.938L75.5632 24.86H74.5692V32H75.7172V28.36C75.7172 27.688 75.8572 27.128 76.1512 26.666C76.4452 26.218 76.9352 25.98 77.6212 25.98H78.1952V24.86ZM80.5268 31.622C81.0588 31.93 81.6748 32.084 82.3748 32.084C83.0608 32.084 83.6768 31.93 84.2088 31.622C84.7408 31.314 85.1608 30.894 85.4688 30.334C85.7628 29.788 85.9168 29.158 85.9168 28.43C85.9168 27.716 85.7628 27.086 85.4688 26.526C85.1608 25.98 84.7408 25.546 84.2088 25.238C83.6768 24.93 83.0608 24.776 82.3748 24.776C81.6748 24.776 81.0588 24.93 80.5268 25.238C79.9948 25.546 79.5748 25.98 79.2808 26.526C78.9728 27.086 78.8328 27.716 78.8328 28.43C78.8328 29.158 78.9728 29.788 79.2808 30.334C79.5748 30.894 79.9948 31.314 80.5268 31.622ZM83.6068 30.726C83.2428 30.95 82.8368 31.062 82.3748 31.062C81.8988 31.062 81.4928 30.95 81.1288 30.726C80.7648 30.502 80.4988 30.194 80.3028 29.788C80.1068 29.396 80.0088 28.934 80.0088 28.43C80.0088 27.926 80.1068 27.478 80.3028 27.072C80.4988 26.68 80.7648 26.358 81.1288 26.134C81.4928 25.91 81.8988 25.798 82.3748 25.798C82.8368 25.798 83.2428 25.91 83.6068 26.134C83.9708 26.358 84.2508 26.68 84.4468 27.072C84.6428 27.478 84.7408 27.926 84.7408 28.43C84.7408 28.934 84.6428 29.396 84.4468 29.788C84.2508 30.194 83.9708 30.502 83.6068 30.726ZM87.4832 22.2V32H88.6312V22.2H87.4832ZM90.4539 22.2V32H91.6019V22.2H90.4539Z" fill="#515251"/>
<g clip-path="url(#clip0_4_6422)">
<path d="M22.5267 49.2008C22.5267 48.8736 22.5343 48.5456 22.5267 48.2184C22.5206 48.0452 22.5826 47.9984 22.7391 48.0007C23.1828 48.0095 23.6273 48.0127 24.0703 48.0007C24.2593 47.9952 24.313 48.0619 24.31 48.2549C24.3001 48.8696 24.3152 49.4851 24.3024 50.1007C24.2979 50.3262 24.3485 50.4183 24.5821 50.4088C25.0916 50.3961 25.0923 50.4088 25.0923 50.96C25.0923 51.2872 25.0855 51.6152 25.0923 51.9424C25.0969 52.1013 25.0568 52.1648 24.8898 52.168C24.3047 52.1807 24.3047 52.1887 24.3047 52.8185C24.3047 53.1258 24.3122 53.434 24.3047 53.7414C24.2994 53.9097 24.3538 53.9606 24.5141 53.9661C25.0923 53.9836 25.0923 53.9899 25.0923 54.5928C25.0923 54.9001 25.0855 55.2083 25.0923 55.5156C25.0976 55.6824 25.0447 55.734 24.883 55.7372C24.3039 55.7499 24.3047 55.7571 24.3047 56.3639C24.3047 56.8301 24.2979 57.2971 24.3047 57.7625C24.3047 57.9467 24.2465 58.0007 24.0779 57.9968C23.5873 57.9864 23.0952 57.9857 22.6046 57.9968C22.5355 58.0038 22.466 57.9885 22.4055 57.9528C22.345 57.9172 22.2963 57.863 22.2659 57.7974C21.9151 57.1859 21.5493 56.5839 21.2015 55.9707C21.1048 55.7992 21.0012 55.7221 20.8016 55.7261C20.1311 55.7412 19.4606 55.738 18.7901 55.7261C18.6041 55.7261 18.5497 55.7825 18.5535 55.9763C18.5648 56.5616 18.5489 57.147 18.5618 57.7323C18.5663 57.9451 18.5006 58.0023 18.3048 57.9952C17.8799 57.9809 17.4543 57.9777 17.0303 57.9952C16.8073 58.0055 16.7612 57.9158 16.7649 57.7053C16.777 57.1398 16.7596 56.5743 16.7733 56.0088C16.7785 55.7912 16.7264 55.7174 16.5079 55.7229C16.0052 55.7356 16.0045 55.7229 16.0045 55.2011C16.0045 54.8541 16.0105 54.5062 16.0045 54.1591C16.0045 54.0003 16.0566 53.9598 16.201 53.9542C16.7717 53.9304 16.7717 53.9248 16.7717 53.3188C16.7717 53.0115 16.7634 52.7033 16.7717 52.3959C16.7778 52.218 16.7256 52.1577 16.5495 52.1577C16.0045 52.1521 16.0045 52.1442 16.0045 51.5604C16.0045 51.2531 16.0135 50.9449 16.0045 50.6375C15.9969 50.4565 16.0513 50.3993 16.2267 50.3993C16.7732 50.3905 16.7733 50.3818 16.7733 49.7925C16.7733 49.2763 16.7785 48.76 16.7733 48.2446C16.7733 48.0706 16.8141 47.9968 16.9955 48.0015C17.477 48.0135 17.9586 48.0119 18.4401 48.0015C18.5049 47.9961 18.5698 48.0116 18.626 48.0459C18.6822 48.0803 18.727 48.1318 18.7546 48.1937C19.1325 48.8561 19.5271 49.5106 19.9051 50.1745C19.9973 50.3334 20.0948 50.4128 20.2831 50.4128C20.9536 50.4001 21.6241 50.4017 22.2946 50.4128C22.4791 50.4128 22.5433 50.3564 22.535 50.1594C22.5206 49.8417 22.535 49.5241 22.535 49.2064L22.5267 49.2008ZM21.064 52.1632C21.4155 52.7661 21.7375 53.3212 22.0641 53.874C22.154 54.0257 22.3044 53.9582 22.4277 53.9534C22.5789 53.9471 22.5229 53.8073 22.5237 53.7207C22.529 53.2744 22.5237 52.828 22.5237 52.3817C22.5237 52.2736 22.5433 52.1593 22.3778 52.1617C21.9597 52.1672 21.5387 52.1632 21.064 52.1632ZM20.0109 53.9598L19.0101 52.2554C18.9194 52.1005 18.772 52.164 18.6502 52.1696C18.4991 52.1775 18.561 52.3181 18.5603 52.4023C18.5542 52.8479 18.5603 53.2934 18.5603 53.739C18.5603 53.8438 18.5331 53.9637 18.7016 53.9613C19.1189 53.9566 19.5385 53.9598 20.0109 53.9598Z" fill="#515251"/>
</g>
<path d="M34.144 53.366L30.434 56.446V58H37.616V56.306H33.346L35.544 54.514C36.23 53.954 36.734 53.436 37.07 52.946C37.406 52.456 37.574 51.868 37.574 51.196C37.574 50.258 37.252 49.502 36.622 48.942C35.992 48.382 35.11 48.102 33.962 48.102C33.248 48.102 32.618 48.256 32.086 48.536C31.54 48.816 31.12 49.208 30.826 49.712C30.532 50.216 30.392 50.776 30.392 51.392V51.658H32.422V51.504C32.422 50.986 32.562 50.566 32.842 50.258C33.122 49.95 33.5 49.796 33.962 49.796C34.438 49.796 34.816 49.936 35.096 50.188C35.376 50.44 35.53 50.804 35.53 51.28C35.53 51.658 35.418 52.008 35.194 52.316C34.97 52.638 34.62 52.988 34.144 53.366ZM40.9764 56.306C40.6964 55.97 40.3464 55.788 39.9124 55.788C39.5624 55.788 39.2684 55.9 39.0304 56.124C38.7924 56.348 38.6804 56.6 38.6804 56.908C38.6804 57.258 38.7644 57.524 38.9464 57.706C39.1284 57.888 39.3524 57.972 39.6324 57.972C39.7724 57.972 39.9264 57.944 40.0804 57.86C40.0804 57.902 40.0944 57.972 40.0944 58.056C40.0944 58.336 39.9684 58.56 39.7444 58.728C39.5204 58.91 39.1844 59.008 38.7644 59.008V60.03C39.5764 60.03 40.2064 59.82 40.6824 59.4C41.1444 58.994 41.3824 58.406 41.3824 57.622C41.3824 57.09 41.2424 56.642 40.9764 56.306ZM46.1831 53.366L42.4731 56.446V58H49.6551V56.306H45.3851L47.5831 54.514C48.2691 53.954 48.7731 53.436 49.1091 52.946C49.4451 52.456 49.6131 51.868 49.6131 51.196C49.6131 50.258 49.2911 49.502 48.6611 48.942C48.0311 48.382 47.1491 48.102 46.0011 48.102C45.2871 48.102 44.6571 48.256 44.1251 48.536C43.5791 48.816 43.1591 49.208 42.8651 49.712C42.5711 50.216 42.4311 50.776 42.4311 51.392V51.658H44.4611V51.504C44.4611 50.986 44.6011 50.566 44.8811 50.258C45.1611 49.95 45.5391 49.796 46.0011 49.796C46.4771 49.796 46.8551 49.936 47.1351 50.188C47.4151 50.44 47.5691 50.804 47.5691 51.28C47.5691 51.658 47.4571 52.008 47.2331 52.316C47.0091 52.638 46.6591 52.988 46.1831 53.366ZM58.2515 51.056C58.0835 50.468 57.8315 49.95 57.5235 49.53C57.1735 49.082 56.7395 48.732 56.2355 48.48C55.7315 48.228 55.1435 48.102 54.4995 48.102C53.7715 48.102 53.1415 48.256 52.5815 48.536C52.0215 48.816 51.6015 49.222 51.2935 49.726C50.9855 50.23 50.8455 50.804 50.8455 51.448C50.8455 52.106 50.9715 52.68 51.2515 53.17C51.5315 53.674 51.9235 54.052 52.4275 54.318C52.9315 54.598 53.5055 54.724 54.1635 54.724C54.6255 54.724 55.0455 54.64 55.4235 54.458C55.8015 54.276 56.1095 54.024 56.3475 53.688C56.3615 53.674 56.4315 53.576 56.5715 53.38V53.632C56.5715 54.528 56.3895 55.228 56.0535 55.718C55.7175 56.222 55.2135 56.46 54.5695 56.46C54.1215 56.46 53.7435 56.362 53.4635 56.138C53.1835 55.928 52.9875 55.62 52.9035 55.228H50.9295C51.0415 56.138 51.4055 56.838 52.0215 57.342C52.6375 57.846 53.4635 58.084 54.4715 58.084C55.7595 58.084 56.7535 57.65 57.4535 56.754C58.1535 55.872 58.5035 54.612 58.5035 52.988C58.5035 52.288 58.4195 51.644 58.2515 51.056ZM53.2955 52.666C52.9875 52.344 52.8475 51.924 52.8475 51.42C52.8475 50.916 53.0015 50.51 53.3095 50.174C53.6175 49.852 54.0095 49.684 54.5135 49.684C55.0035 49.684 55.3955 49.852 55.7035 50.174C56.0115 50.51 56.1655 50.916 56.1655 51.42C56.1655 51.924 55.9975 52.344 55.6895 52.666C55.3815 53.002 54.9755 53.156 54.4855 53.156C53.9815 53.156 53.5895 53.002 53.2955 52.666ZM66.7081 53.716C66.3021 53.324 65.7841 53.058 65.1541 52.904C65.7281 52.764 66.1901 52.512 66.5401 52.148C66.8901 51.784 67.0721 51.322 67.0721 50.734C67.0721 49.95 66.7501 49.306 66.1201 48.83C65.4901 48.354 64.6081 48.116 63.4881 48.116C62.4101 48.116 61.5561 48.396 60.9121 48.928C60.2681 49.474 59.9461 50.216 59.9461 51.154H61.9201C61.9201 50.706 62.0881 50.356 62.3961 50.09C62.7041 49.838 63.0961 49.698 63.5721 49.698C64.0061 49.698 64.3561 49.81 64.6361 50.02C64.9021 50.244 65.0421 50.538 65.0421 50.916C65.0421 51.322 64.8881 51.644 64.5941 51.882C64.3001 52.12 63.8801 52.232 63.3481 52.232H62.4941V53.842H63.4601C64.0341 53.842 64.4821 53.954 64.7901 54.178C65.0981 54.402 65.2521 54.71 65.2521 55.102C65.2521 55.536 65.0841 55.872 64.7761 56.124C64.4681 56.376 64.0761 56.502 63.6001 56.502C63.0401 56.502 62.5921 56.348 62.2421 56.026C61.8781 55.718 61.6961 55.284 61.6961 54.738H59.6941C59.6941 55.788 60.0301 56.614 60.7161 57.202C61.3881 57.79 62.3121 58.084 63.4881 58.084C64.2441 58.084 64.9161 57.972 65.5041 57.734C66.0781 57.51 66.5261 57.174 66.8341 56.754C67.1421 56.334 67.3101 55.83 67.3101 55.27C67.3101 54.626 67.1001 54.108 66.7081 53.716ZM70.4549 56.306C70.1749 55.97 69.8249 55.788 69.3909 55.788C69.0409 55.788 68.7469 55.9 68.5089 56.124C68.2709 56.348 68.1589 56.6 68.1589 56.908C68.1589 57.258 68.2429 57.524 68.4249 57.706C68.6069 57.888 68.8309 57.972 69.1109 57.972C69.2509 57.972 69.4049 57.944 69.5589 57.86C69.5589 57.902 69.5729 57.972 69.5729 58.056C69.5729 58.336 69.4469 58.56 69.2229 58.728C68.9989 58.91 68.6629 59.008 68.2429 59.008V60.03C69.0549 60.03 69.6849 59.82 70.1609 59.4C70.6229 58.994 70.8609 58.406 70.8609 57.622C70.8609 57.09 70.7209 56.642 70.4549 56.306ZM71.3103 52.876V53.324C71.3103 54.304 71.4783 55.158 71.8143 55.872C72.1503 56.586 72.6263 57.132 73.2423 57.51C73.8443 57.902 74.5443 58.084 75.3423 58.084C76.1263 58.084 76.8263 57.902 77.4423 57.51C78.0583 57.132 78.5343 56.586 78.8703 55.872C79.2063 55.158 79.3883 54.304 79.3883 53.324V52.876C79.3883 51.924 79.2063 51.084 78.8703 50.356C78.5343 49.642 78.0583 49.096 77.4423 48.704C76.8263 48.312 76.1263 48.116 75.3423 48.116C74.5583 48.116 73.8583 48.312 73.2423 48.704C72.6263 49.096 72.1503 49.642 71.8143 50.356C71.4783 51.084 71.3103 51.924 71.3103 52.876ZM76.8123 50.65C77.1763 51.196 77.3723 51.966 77.3723 52.946V53.254C77.3723 54.248 77.1763 55.018 76.8123 55.564C76.4483 56.11 75.9583 56.376 75.3423 56.376C74.7263 56.376 74.2363 56.11 73.8723 55.564C73.5083 55.018 73.3263 54.248 73.3263 53.254V52.946C73.3263 51.966 73.5083 51.196 73.8723 50.65C74.2363 50.104 74.7263 49.824 75.3423 49.824C75.9583 49.824 76.4483 50.104 76.8123 50.65ZM80.4151 54.234V55.9H85.2591V58H87.2331V55.9H88.5911V54.22H87.2331V48.2H84.7411L80.4151 54.234ZM82.3331 54.22L85.2591 50.16V54.22H82.3331ZM89.4288 54.234V55.9H94.2728V58H96.2468V55.9H97.6048V54.22H96.2468V48.2H93.7548L89.4288 54.234ZM91.3468 54.22L94.2728 50.16V54.22H91.3468ZM100.644 56.306C100.364 55.97 100.014 55.788 99.5804 55.788C99.2304 55.788 98.9364 55.9 98.6984 56.124C98.4604 56.348 98.3484 56.6 98.3484 56.908C98.3484 57.258 98.4324 57.524 98.6144 57.706C98.7964 57.888 99.0204 57.972 99.3004 57.972C99.4404 57.972 99.5944 57.944 99.7484 57.86C99.7484 57.902 99.7624 57.972 99.7624 58.056C99.7624 58.336 99.6364 58.56 99.4124 58.728C99.1884 58.91 98.8524 59.008 98.4324 59.008V60.03C99.2444 60.03 99.8744 59.82 100.35 59.4C100.812 58.994 101.05 58.406 101.05 57.622C101.05 57.09 100.91 56.642 100.644 56.306ZM108.759 53.716C108.353 53.324 107.835 53.058 107.205 52.904C107.779 52.764 108.241 52.512 108.591 52.148C108.941 51.784 109.123 51.322 109.123 50.734C109.123 49.95 108.801 49.306 108.171 48.83C107.541 48.354 106.659 48.116 105.539 48.116C104.461 48.116 103.607 48.396 102.963 48.928C102.319 49.474 101.997 50.216 101.997 51.154H103.971C103.971 50.706 104.139 50.356 104.447 50.09C104.755 49.838 105.147 49.698 105.623 49.698C106.057 49.698 106.407 49.81 106.687 50.02C106.953 50.244 107.093 50.538 107.093 50.916C107.093 51.322 106.939 51.644 106.645 51.882C106.351 52.12 105.931 52.232 105.399 52.232H104.545V53.842H105.511C106.085 53.842 106.533 53.954 106.841 54.178C107.149 54.402 107.303 54.71 107.303 55.102C107.303 55.536 107.135 55.872 106.827 56.124C106.519 56.376 106.127 56.502 105.651 56.502C105.091 56.502 104.643 56.348 104.293 56.026C103.929 55.718 103.747 55.284 103.747 54.738H101.745C101.745 55.788 102.081 56.614 102.767 57.202C103.439 57.79 104.363 58.084 105.539 58.084C106.295 58.084 106.967 57.972 107.555 57.734C108.129 57.51 108.577 57.174 108.885 56.754C109.193 56.334 109.361 55.83 109.361 55.27C109.361 54.626 109.151 54.108 108.759 53.716ZM110.386 54.234V55.9H115.23V58H117.204V55.9H118.562V54.22H117.204V48.2H114.712L110.386 54.234ZM112.304 54.22L115.23 50.16V54.22H112.304ZM125.475 51.756C124.971 51.476 124.425 51.322 123.809 51.322C122.983 51.322 122.311 51.574 121.779 52.078L121.891 49.894H126.483V48.2H120.057L119.777 53.94H121.723C121.849 53.576 122.073 53.31 122.395 53.156C122.703 53.002 123.039 52.918 123.375 52.918C123.879 52.918 124.285 53.086 124.593 53.422C124.901 53.758 125.055 54.178 125.055 54.682C125.055 55.242 124.887 55.676 124.551 55.984C124.215 56.292 123.823 56.432 123.375 56.432C122.899 56.432 122.507 56.292 122.185 55.984C121.863 55.69 121.681 55.312 121.625 54.85H119.623C119.651 55.466 119.819 56.012 120.127 56.502C120.435 56.992 120.869 57.384 121.429 57.664C121.989 57.944 122.633 58.084 123.375 58.084C124.061 58.084 124.691 57.958 125.251 57.692C125.811 57.44 126.245 57.048 126.581 56.544C126.917 56.04 127.085 55.41 127.085 54.682C127.085 54.038 126.931 53.45 126.651 52.946C126.371 52.442 125.979 52.036 125.475 51.756ZM128.345 56.082C128.121 56.306 128.009 56.586 128.009 56.922C128.009 57.258 128.121 57.538 128.345 57.762C128.569 57.986 128.849 58.084 129.199 58.084C129.535 58.084 129.815 57.986 130.039 57.762C130.263 57.538 130.389 57.258 130.389 56.922C130.389 56.586 130.263 56.306 130.039 56.082C129.815 55.858 129.535 55.746 129.199 55.746C128.849 55.746 128.569 55.858 128.345 56.082ZM130.978 52.876V53.324C130.978 54.304 131.146 55.158 131.482 55.872C131.818 56.586 132.294 57.132 132.91 57.51C133.512 57.902 134.212 58.084 135.01 58.084C135.794 58.084 136.494 57.902 137.11 57.51C137.726 57.132 138.202 56.586 138.538 55.872C138.874 55.158 139.056 54.304 139.056 53.324V52.876C139.056 51.924 138.874 51.084 138.538 50.356C138.202 49.642 137.726 49.096 137.11 48.704C136.494 48.312 135.794 48.116 135.01 48.116C134.226 48.116 133.526 48.312 132.91 48.704C132.294 49.096 131.818 49.642 131.482 50.356C131.146 51.084 130.978 51.924 130.978 52.876ZM136.48 50.65C136.844 51.196 137.04 51.966 137.04 52.946V53.254C137.04 54.248 136.844 55.018 136.48 55.564C136.116 56.11 135.626 56.376 135.01 56.376C134.394 56.376 133.904 56.11 133.54 55.564C133.176 55.018 132.994 54.248 132.994 53.254V52.946C132.994 51.966 133.176 51.196 133.54 50.65C133.904 50.104 134.394 49.824 135.01 49.824C135.626 49.824 136.116 50.104 136.48 50.65ZM146.159 51.756C145.655 51.476 145.109 51.322 144.493 51.322C143.667 51.322 142.995 51.574 142.463 52.078L142.575 49.894H147.167V48.2H140.741L140.461 53.94H142.407C142.533 53.576 142.757 53.31 143.079 53.156C143.387 53.002 143.723 52.918 144.059 52.918C144.563 52.918 144.969 53.086 145.277 53.422C145.585 53.758 145.739 54.178 145.739 54.682C145.739 55.242 145.571 55.676 145.235 55.984C144.899 56.292 144.507 56.432 144.059 56.432C143.583 56.432 143.191 56.292 142.869 55.984C142.547 55.69 142.365 55.312 142.309 54.85H140.307C140.335 55.466 140.503 56.012 140.811 56.502C141.119 56.992 141.553 57.384 142.113 57.664C142.673 57.944 143.317 58.084 144.059 58.084C144.745 58.084 145.375 57.958 145.935 57.692C146.495 57.44 146.929 57.048 147.265 56.544C147.601 56.04 147.769 55.41 147.769 54.682C147.769 54.038 147.615 53.45 147.335 52.946C147.055 52.442 146.663 52.036 146.159 51.756Z" fill="#515251"/>
<defs>
<clipPath id="clip0_4_6422">
<rect width="9.09091" height="10" fill="white" transform="translate(16 48)"/>
</clipPath>
</defs>
</svg>
