<svg width="777" height="250" viewBox="0 0 866 250" fill="none" xmlns="http://www.w3.org/2000/svg">
<g filter="url(#filter0_d_1_1234)">
<g clip-path="url(#clip0_1_1234)">
<rect x="48" y="28" width="770" height="154" rx="24" fill="#11453B"/>
<g clip-path="url(#clip1_1_1234)">
<path d="M330.491 115.513C333.55 115.502 336.141 116.693 338.465 118.552C339.315 119.247 340.113 120 340.853 120.807C341.029 120.995 341.064 121.114 340.866 121.327C338.236 124.143 335.128 126.116 331.157 126.462C328.545 126.689 326.19 125.903 324.03 124.493C322.561 123.53 321.302 122.328 320.144 121.025C319.941 120.797 319.959 120.662 320.158 120.453C322.709 117.77 325.726 115.94 329.514 115.517C329.839 115.498 330.165 115.496 330.491 115.513ZM333.768 121.047C333.768 119.04 332.195 117.429 330.226 117.426C328.258 117.423 326.655 119.04 326.661 121.032C326.666 123.024 328.293 124.662 330.242 124.634C332.19 124.606 333.768 123.018 333.768 121.047ZM332.68 125.072C332.711 125.081 332.747 125.105 332.776 125.098C335.374 124.463 337.511 123.055 339.426 121.26C339.59 121.106 339.541 121.003 339.405 120.868C337.563 119.032 335.509 117.537 332.915 116.884C332.83 116.855 332.743 116.831 332.655 116.812C332.566 116.8 332.462 116.74 332.371 116.841C335.455 118.583 335.835 122.888 332.68 125.072ZM327.73 117.016C327.677 117.004 327.621 116.999 327.566 117.001C325.264 117.684 323.314 118.934 321.582 120.547C321.376 120.739 321.433 120.853 321.603 121.011C322.074 121.453 322.518 121.924 323.005 122.347C324.346 123.502 325.825 124.437 327.621 124.986C324.8 122.813 324.972 118.974 327.73 117.016Z" fill="#D9EBCD"/>
<path d="M330.647 123.436C329.483 123.64 328.471 123.116 327.998 122.093C327.511 121.041 327.808 119.752 328.7 119.057C329.098 118.745 329.588 118.568 330.098 118.553C330.607 118.539 331.107 118.688 331.522 118.978C332.51 119.686 332.817 120.9 332.29 122.17C332.014 121.774 331.731 121.4 331.209 121.399C330.953 121.401 330.706 121.498 330.519 121.669C330.025 122.099 330.06 122.707 330.647 123.436Z" fill="#D9EBCD"/>
</g>
<g filter="url(#filter1_d_1_1234)">
<path d="M682.896 115.2H689.154V116.628H684.506V119.47H688.342V120.856H684.506V125H682.896V115.2ZM696.418 117.832V125H695.088L694.92 124.09C694.374 124.762 693.632 125.084 692.708 125.084C691.868 125.084 691.182 124.832 690.664 124.3C690.132 123.782 689.88 122.942 689.88 121.78V117.832H691.392V121.626C691.392 122.326 691.532 122.858 691.812 123.222C692.092 123.586 692.498 123.768 693.058 123.768C693.632 123.768 694.08 123.558 694.416 123.138C694.738 122.718 694.906 122.13 694.906 121.388V117.832H696.418ZM703.86 118.532C704.392 119.064 704.672 119.904 704.672 121.052V125H703.146V121.136C703.146 120.464 702.992 119.946 702.712 119.582C702.418 119.232 701.998 119.05 701.438 119.05C700.836 119.05 700.36 119.26 700.024 119.68C699.688 120.1 699.52 120.66 699.52 121.388V125H698.008V117.832H699.324L699.492 118.77C700.024 118.098 700.794 117.748 701.788 117.748C702.628 117.748 703.328 118.014 703.86 118.532ZM713.105 115.2V125H711.789L711.607 123.922C711.033 124.706 710.249 125.084 709.269 125.084C708.611 125.084 708.023 124.944 707.519 124.65C707.001 124.356 706.595 123.936 706.315 123.376C706.021 122.816 705.881 122.172 705.881 121.416C705.881 120.688 706.021 120.058 706.315 119.498C706.609 118.938 707.015 118.518 707.533 118.21C708.037 117.902 708.625 117.748 709.269 117.748C709.787 117.748 710.249 117.846 710.641 118.042C711.033 118.238 711.341 118.49 711.593 118.826V115.2H713.105ZM711.033 123.152C711.411 122.718 711.607 122.144 711.607 121.444C711.607 120.73 711.411 120.156 711.033 119.708C710.641 119.26 710.137 119.036 709.521 119.036C708.891 119.036 708.387 119.26 708.009 119.708C707.617 120.156 707.435 120.716 707.435 121.416C707.435 122.13 707.617 122.704 708.009 123.152C708.387 123.6 708.891 123.81 709.521 123.81C710.137 123.81 710.641 123.6 711.033 123.152ZM717.889 115.2L719.569 115.186L721.655 122.956L723.839 115.2H725.365L727.479 122.956L729.593 115.2H731.231L728.431 125H726.541L724.539 117.79L722.579 125H720.689L717.889 115.2ZM738.464 123.684V125H737.666C737.19 125 736.854 124.902 736.658 124.706C736.448 124.51 736.35 124.23 736.35 123.852C735.804 124.678 735.02 125.084 733.984 125.084C733.172 125.084 732.528 124.902 732.052 124.524C731.562 124.16 731.324 123.642 731.324 122.984C731.324 122.256 731.576 121.682 732.108 121.29C732.626 120.898 733.382 120.688 734.39 120.688H736.196V120.254C736.196 119.862 736.056 119.54 735.776 119.316C735.496 119.092 735.104 118.966 734.614 118.966C734.166 118.966 733.802 119.064 733.522 119.26C733.242 119.456 733.074 119.708 733.018 120.016H731.534C731.604 119.302 731.926 118.742 732.486 118.35C733.046 117.958 733.774 117.748 734.684 117.748C735.636 117.748 736.378 117.972 736.91 118.42C737.428 118.868 737.694 119.512 737.694 120.352V123.18C737.694 123.516 737.848 123.684 738.17 123.684H738.464ZM736.196 121.808H734.32C733.844 121.808 733.494 121.906 733.242 122.088C732.99 122.27 732.864 122.536 732.864 122.886C732.864 123.194 732.976 123.446 733.214 123.628C733.452 123.824 733.774 123.908 734.194 123.908C734.81 123.908 735.3 123.74 735.65 123.404C736 123.068 736.182 122.62 736.196 122.06V121.808ZM739.387 115.2H740.899V125H739.387V115.2ZM742.481 115.2H743.993V125H742.481V115.2ZM745.744 119.498C746.038 118.938 746.444 118.518 746.976 118.21C747.508 117.902 748.11 117.748 748.796 117.748C749.482 117.748 750.084 117.888 750.616 118.168C751.148 118.448 751.554 118.854 751.862 119.358C752.17 119.876 752.324 120.478 752.338 121.164C752.338 121.36 752.324 121.542 752.296 121.738H746.892V121.822C746.92 122.452 747.116 122.942 747.48 123.306C747.83 123.67 748.306 123.852 748.894 123.852C749.356 123.852 749.748 123.754 750.07 123.53C750.378 123.306 750.588 122.998 750.7 122.592H752.212C752.072 123.32 751.722 123.922 751.148 124.384C750.574 124.86 749.86 125.084 749.006 125.084C748.25 125.084 747.606 124.944 747.046 124.636C746.486 124.328 746.066 123.908 745.758 123.348C745.45 122.802 745.31 122.158 745.31 121.43C745.31 120.702 745.45 120.058 745.744 119.498ZM750.798 120.632C750.728 120.114 750.518 119.708 750.168 119.414C749.818 119.12 749.384 118.966 748.852 118.966C748.348 118.966 747.928 119.12 747.564 119.428C747.2 119.736 747.004 120.128 746.948 120.632H750.798ZM754.067 119.162H752.821V117.832H754.067V115.83H755.593V117.832H757.315V119.162H755.593V122.9C755.593 123.18 755.649 123.39 755.761 123.502C755.873 123.614 756.055 123.67 756.335 123.67H757.483V125H756.027C755.341 125 754.837 124.846 754.529 124.524C754.221 124.216 754.067 123.726 754.067 123.054V119.162Z" fill="#11453B"/>
</g>
<g opacity="0.1">
<path d="M170.747 190.834V308.376C260.676 256.898 314.883 263.499 414.96 308.145C516.127 356.629 569.681 357.158 659.174 307.915V190.834C567.251 240.225 514.261 239.923 417.267 190.834C314.511 144.996 259.998 140.797 170.747 190.834Z" fill="#D9EBCD" fill-opacity="0.7"/>
<path d="M659.173 190.834V308.376C749.102 256.898 803.309 263.499 903.386 308.145C1004.55 356.629 1058.11 357.158 1147.6 307.915V190.834C1055.68 240.225 1002.69 239.923 905.693 190.834C802.937 144.996 748.424 140.797 659.173 190.834Z" fill="#D9EBCD" fill-opacity="0.7"/>
<path d="M408.433 12.8537V130.395C318.504 78.9173 264.297 85.5183 164.22 130.165C63.0536 178.648 9.49911 179.178 -79.9933 129.935V12.8537C11.9298 62.2447 64.9191 61.9425 161.914 12.8537C264.669 -32.9841 319.182 -37.1836 408.433 12.8537Z" fill="#D9EBCD" fill-opacity="0.7"/>
<path d="M896.859 12.8537V130.395C806.93 78.9173 752.723 85.5183 652.646 130.165C551.479 178.648 497.925 179.178 408.432 129.935V12.8537C500.355 62.2447 553.345 61.9425 650.339 12.8537C753.095 -32.9841 807.608 -37.1836 896.859 12.8537Z" fill="#D9EBCD" fill-opacity="0.7"/>
</g>
</g>
<rect x="48.5" y="28.5" width="769" height="153" rx="23.5" stroke="#E7E8E7"/>
</g>
<defs>
<filter id="filter0_d_1_1234" x="0" y="0" width="866" height="250" filterUnits="userSpaceOnUse" color-interpolation-filters="sRGB">
<feFlood flood-opacity="0" result="BackgroundImageFix"/>
<feColorMatrix in="SourceAlpha" type="matrix" values="0 0 0 0 0 0 0 0 0 0 0 0 0 0 0 0 0 0 127 0" result="hardAlpha"/>
<feOffset dy="20"/>
<feGaussianBlur stdDeviation="24"/>
<feColorMatrix type="matrix" values="0 0 0 0 0.666667 0 0 0 0 0.666667 0 0 0 0 0.666667 0 0 0 0.29 0"/>
<feBlend mode="normal" in2="BackgroundImageFix" result="effect1_dropShadow_1_1234"/>
<feBlend mode="normal" in="SourceGraphic" in2="effect1_dropShadow_1_1234" result="shape"/>
</filter>
<filter id="filter1_d_1_1234" x="642" y="91" width="156" height="68" filterUnits="userSpaceOnUse" color-interpolation-filters="sRGB">
<feFlood flood-opacity="0" result="BackgroundImageFix"/>
<feColorMatrix in="SourceAlpha" type="matrix" values="0 0 0 0 0 0 0 0 0 0 0 0 0 0 0 0 0 0 127 0" result="hardAlpha"/>
<feOffset dy="6"/>
<feGaussianBlur stdDeviation="6"/>
<feColorMatrix type="matrix" values="0 0 0 0 0 0 0 0 0 0 0 0 0 0 0 0 0 0 0.2 0"/>
<feBlend mode="normal" in2="BackgroundImageFix" result="effect1_dropShadow_1_1234"/>
<feBlend mode="normal" in="SourceGraphic" in2="effect1_dropShadow_1_1234" result="shape"/>
</filter>
<clipPath id="clip0_1_1234">
<rect x="48" y="28" width="770" height="154" rx="24" fill="white"/>
</clipPath>
<clipPath id="clip1_1_1234">
</clipPath>
</defs>
</svg>
