<svg width="770" height="154" viewBox="0 0 770 154" fill="none" xmlns="http://www.w3.org/2000/svg">
<g filter="url(#filter0_d_1_1234)">
<g clip-path="url(#clip0_1_1234)">
<rect width="770" height="154" rx="24" fill="#11453B"/>
<path d="M32.304 47.8L35.504 59H37.664L39.904 50.76L42.192 59H44.352L47.552 47.8H45.68L43.264 56.664L40.848 47.8H39.104L36.608 56.664L34.224 47.784L32.304 47.8ZM55.7036 57.496H55.3676C54.9996 57.496 54.8236 57.304 54.8236 56.92V53.688C54.8236 52.728 54.5196 51.992 53.9276 51.48C53.3196 50.968 52.4716 50.712 51.3836 50.712C50.3436 50.712 49.5116 50.952 48.8716 51.4C48.2316 51.848 47.8636 52.488 47.7836 53.304H49.4796C49.5436 52.952 49.7356 52.664 50.0556 52.44C50.3756 52.216 50.7916 52.104 51.3036 52.104C51.8636 52.104 52.3116 52.248 52.6316 52.504C52.9516 52.76 53.1116 53.128 53.1116 53.576V54.072H51.0476C49.8956 54.072 49.0316 54.312 48.4396 54.76C47.8316 55.208 47.5436 55.864 47.5436 56.696C47.5436 57.448 47.8156 58.04 48.3756 58.456C48.9196 58.888 49.6556 59.096 50.5836 59.096C51.7676 59.096 52.6636 58.632 53.2876 57.688C53.2876 58.12 53.3996 58.44 53.6396 58.664C53.8636 58.888 54.2476 59 54.7916 59H55.7036V57.496ZM53.1116 55.352V55.64C53.0956 56.28 52.8876 56.792 52.4876 57.176C52.0876 57.56 51.5276 57.752 50.8236 57.752C50.3436 57.752 49.9756 57.656 49.7036 57.432C49.4316 57.224 49.3036 56.936 49.3036 56.584C49.3036 56.184 49.4476 55.88 49.7356 55.672C50.0236 55.464 50.4236 55.352 50.9676 55.352H53.1116ZM56.6449 47.8V59H58.3729V47.8H56.6449ZM60.0668 47.8V59H61.7948V47.8H60.0668ZM63.6806 52.712C63.3446 53.352 63.1846 54.088 63.1846 54.92C63.1846 55.752 63.3446 56.488 63.6966 57.112C64.0486 57.752 64.5286 58.232 65.1686 58.584C65.8086 58.936 66.5446 59.096 67.4086 59.096C68.3846 59.096 69.2006 58.84 69.8566 58.296C70.5126 57.768 70.9126 57.08 71.0726 56.248H69.3446C69.2166 56.712 68.9766 57.064 68.6246 57.32C68.2566 57.576 67.8086 57.688 67.2806 57.688C66.6086 57.688 66.0646 57.48 65.6646 57.064C65.2486 56.648 65.0246 56.088 64.9926 55.368V55.272H71.1686C71.2006 55.048 71.2166 54.84 71.2166 54.616C71.2006 53.832 71.0246 53.144 70.6726 52.552C70.3206 51.976 69.8566 51.512 69.2486 51.192C68.6406 50.872 67.9526 50.712 67.1686 50.712C66.3846 50.712 65.6966 50.888 65.0886 51.24C64.4806 51.592 64.0166 52.072 63.6806 52.712ZM69.4566 54.008H65.0566C65.1206 53.432 65.3446 52.984 65.7606 52.632C66.1766 52.28 66.6566 52.104 67.2326 52.104C67.8406 52.104 68.3366 52.28 68.7366 52.616C69.1366 52.952 69.3766 53.416 69.4566 54.008ZM73.0791 52.328V56.776C73.0791 57.544 73.2551 58.104 73.6071 58.456C73.9591 58.824 74.5351 59 75.3191 59H76.9831V57.48H75.6711C75.3511 57.48 75.1431 57.416 75.0151 57.288C74.8871 57.16 74.8231 56.92 74.8231 56.6V52.328H76.7911V50.808H74.8231V48.52H73.0791V50.808H71.6551V52.328H73.0791ZM86.2923 47.8H82.1803V59H86.4363C87.7643 59 88.7883 58.728 89.5083 58.168C90.2283 57.624 90.5963 56.856 90.5963 55.88C90.5963 54.408 89.7483 53.528 88.0843 53.24C88.7563 53.096 89.2683 52.808 89.6203 52.376C89.9722 51.944 90.1643 51.384 90.1643 50.712C90.1643 49.8 89.8123 49.08 89.1403 48.568C88.4683 48.056 87.5083 47.8 86.2923 47.8ZM84.0203 52.552V49.336H86.3403C86.9643 49.336 87.4443 49.48 87.7963 49.768C88.1483 50.056 88.3243 50.44 88.3243 50.936C88.3243 51.448 88.1483 51.832 87.7963 52.12C87.4443 52.408 86.9643 52.552 86.3403 52.552H84.0203ZM84.0203 57.448V54.072H86.4523C87.1563 54.072 87.7163 54.232 88.1163 54.52C88.5003 54.824 88.7083 55.24 88.7083 55.784C88.7083 56.312 88.5003 56.728 88.1163 57.016C87.7323 57.304 87.1723 57.448 86.4523 57.448H84.0203ZM99.9693 57.496H99.6333C99.2653 57.496 99.0893 57.304 99.0893 56.92V53.688C99.0893 52.728 98.7853 51.992 98.1933 51.48C97.5853 50.968 96.7373 50.712 95.6493 50.712C94.6093 50.712 93.7773 50.952 93.1373 51.4C92.4973 51.848 92.1293 52.488 92.0493 53.304H93.7453C93.8093 52.952 94.0013 52.664 94.3213 52.44C94.6413 52.216 95.0573 52.104 95.5693 52.104C96.1293 52.104 96.5773 52.248 96.8973 52.504C97.2173 52.76 97.3773 53.128 97.3773 53.576V54.072H95.3133C94.1613 54.072 93.2973 54.312 92.7053 54.76C92.0973 55.208 91.8092 55.864 91.8092 56.696C91.8092 57.448 92.0813 58.04 92.6413 58.456C93.1853 58.888 93.9213 59.096 94.8493 59.096C96.0333 59.096 96.9293 58.632 97.5533 57.688C97.5533 58.12 97.6653 58.44 97.9053 58.664C98.1293 58.888 98.5133 59 99.0573 59H99.9693V57.496ZM97.3773 55.352V55.64C97.3613 56.28 97.1533 56.792 96.7533 57.176C96.3533 57.56 95.7933 57.752 95.0893 57.752C94.6093 57.752 94.2413 57.656 93.9693 57.432C93.6973 57.224 93.5693 56.936 93.5693 56.584C93.5693 56.184 93.7133 55.88 94.0013 55.672C94.2893 55.464 94.6893 55.352 95.2333 55.352H97.3773ZM100.911 47.8V59H102.639V47.8H100.911ZM112.172 57.496H111.836C111.468 57.496 111.292 57.304 111.292 56.92V53.688C111.292 52.728 110.988 51.992 110.396 51.48C109.788 50.968 108.94 50.712 107.852 50.712C106.812 50.712 105.98 50.952 105.34 51.4C104.7 51.848 104.332 52.488 104.252 53.304H105.948C106.012 52.952 106.204 52.664 106.524 52.44C106.844 52.216 107.26 52.104 107.772 52.104C108.332 52.104 108.78 52.248 109.1 52.504C109.42 52.76 109.58 53.128 109.58 53.576V54.072H107.516C106.364 54.072 105.5 54.312 104.908 54.76C104.3 55.208 104.012 55.864 104.012 56.696C104.012 57.448 104.284 58.04 104.844 58.456C105.388 58.888 106.124 59.096 107.052 59.096C108.236 59.096 109.132 58.632 109.756 57.688C109.756 58.12 109.868 58.44 110.108 58.664C110.332 58.888 110.716 59 111.26 59H112.172V57.496ZM109.58 55.352V55.64C109.564 56.28 109.356 56.792 108.956 57.176C108.556 57.56 107.996 57.752 107.292 57.752C106.812 57.752 106.444 57.656 106.172 57.432C105.9 57.224 105.772 56.936 105.772 56.584C105.772 56.184 105.916 55.88 106.204 55.672C106.492 55.464 106.892 55.352 107.436 55.352H109.58ZM119.802 51.608C119.194 51.016 118.394 50.712 117.434 50.712C116.298 50.712 115.418 51.112 114.81 51.88L114.618 50.808H113.114V59H114.842V54.872C114.842 54.04 115.034 53.4 115.418 52.92C115.802 52.44 116.346 52.2 117.034 52.2C117.674 52.2 118.154 52.408 118.49 52.808C118.81 53.224 118.986 53.816 118.986 54.584V59H120.73V54.488C120.73 53.176 120.41 52.216 119.802 51.608ZM128.621 58.296C129.277 57.752 129.693 57.016 129.853 56.056H128.093C127.981 56.536 127.757 56.92 127.405 57.208C127.053 57.496 126.605 57.624 126.077 57.624C125.373 57.624 124.813 57.384 124.397 56.872C123.981 56.36 123.773 55.704 123.773 54.888C123.773 54.088 123.981 53.448 124.397 52.936C124.813 52.44 125.373 52.184 126.077 52.184C126.589 52.184 127.021 52.328 127.373 52.6C127.725 52.888 127.949 53.256 128.077 53.72H129.853C129.693 52.792 129.277 52.072 128.637 51.528C127.981 50.984 127.149 50.712 126.125 50.712C125.293 50.712 124.573 50.888 123.949 51.24C123.325 51.592 122.845 52.072 122.509 52.696C122.157 53.336 121.997 54.056 121.997 54.888C121.997 55.72 122.157 56.456 122.493 57.096C122.829 57.736 123.309 58.232 123.933 58.584C124.541 58.936 125.261 59.096 126.077 59.096C127.101 59.096 127.949 58.84 128.621 58.296ZM131.29 52.712C130.954 53.352 130.794 54.088 130.794 54.92C130.794 55.752 130.954 56.488 131.306 57.112C131.658 57.752 132.138 58.232 132.778 58.584C133.418 58.936 134.154 59.096 135.018 59.096C135.994 59.096 136.81 58.84 137.466 58.296C138.122 57.768 138.522 57.08 138.682 56.248H136.954C136.826 56.712 136.586 57.064 136.234 57.32C135.866 57.576 135.418 57.688 134.89 57.688C134.218 57.688 133.674 57.48 133.274 57.064C132.858 56.648 132.634 56.088 132.602 55.368V55.272H138.778C138.81 55.048 138.826 54.84 138.826 54.616C138.81 53.832 138.634 53.144 138.282 52.552C137.93 51.976 137.466 51.512 136.858 51.192C136.25 50.872 135.562 50.712 134.778 50.712C133.994 50.712 133.306 50.888 132.698 51.24C132.09 51.592 131.626 52.072 131.29 52.712ZM137.066 54.008H132.666C132.73 53.432 132.954 52.984 133.37 52.632C133.786 52.28 134.266 52.104 134.842 52.104C135.45 52.104 135.946 52.28 136.346 52.616C136.746 52.952 136.986 53.416 137.066 54.008Z" fill="#D9EBCD"/>
<path d="M33.92 106H38.624V91.888L48.128 106H52.512V83.6H47.776V97.712L38.272 83.6H33.92V106ZM64.2303 83.6H59.7183V85.776C59.7183 86.416 59.5583 86.96 59.2703 87.408C58.9823 87.856 58.5663 88.048 58.0223 88.048H54.6623V91.856H58.4062C58.9183 91.856 59.3343 91.824 59.6223 91.696V106H64.2303V83.6ZM75.6908 95.408L67.2108 102.448V106H83.6268V102.128H73.8668L78.8908 98.032C80.4588 96.752 81.6108 95.568 82.3787 94.448C83.1468 93.328 83.5308 91.984 83.5308 90.448C83.5308 88.304 82.7948 86.576 81.3548 85.296C79.9148 84.016 77.8988 83.376 75.2748 83.376C73.6428 83.376 72.2028 83.728 70.9868 84.368C69.7388 85.008 68.7788 85.904 68.1068 87.056C67.4348 88.208 67.1148 89.488 67.1148 90.896V91.504H71.7548V91.152C71.7548 89.968 72.0748 89.008 72.7148 88.304C73.3548 87.6 74.2188 87.248 75.2748 87.248C76.3628 87.248 77.2268 87.568 77.8668 88.144C78.5068 88.72 78.8588 89.552 78.8588 90.64C78.8588 91.504 78.6028 92.304 78.0908 93.008C77.5788 93.744 76.7788 94.544 75.6908 95.408ZM90.7363 102.128C90.0963 101.36 89.2963 100.944 88.3043 100.944C87.5043 100.944 86.8323 101.2 86.2883 101.712C85.7443 102.224 85.4883 102.8 85.4883 103.504C85.4883 104.304 85.6803 104.912 86.0963 105.328C86.5123 105.744 87.0243 105.936 87.6643 105.936C87.9843 105.936 88.3363 105.872 88.6883 105.68C88.6883 105.776 88.7203 105.936 88.7203 106.128C88.7203 106.768 88.4323 107.28 87.9203 107.664C87.4083 108.08 86.6403 108.304 85.6803 108.304V110.64C87.5363 110.64 88.9763 110.16 90.0643 109.2C91.1203 108.272 91.6643 106.928 91.6643 105.136C91.6643 103.92 91.3443 102.896 90.7363 102.128ZM106.123 91.728C104.971 91.088 103.723 90.736 102.315 90.736C100.427 90.736 98.8905 91.312 97.6745 92.464L97.9305 87.472H108.427V83.6H93.7385L93.0985 96.72H97.5465C97.8345 95.888 98.3465 95.28 99.0825 94.928C99.7865 94.576 100.555 94.384 101.323 94.384C102.475 94.384 103.403 94.768 104.107 95.536C104.811 96.304 105.163 97.264 105.163 98.416C105.163 99.696 104.779 100.688 104.011 101.392C103.243 102.096 102.347 102.416 101.323 102.416C100.235 102.416 99.3385 102.096 98.6025 101.392C97.8665 100.72 97.4505 99.856 97.3225 98.8H92.7465C92.8105 100.208 93.1945 101.456 93.8985 102.576C94.6025 103.696 95.5945 104.592 96.8745 105.232C98.1545 105.872 99.6265 106.192 101.323 106.192C102.891 106.192 104.331 105.904 105.611 105.296C106.891 104.72 107.883 103.824 108.651 102.672C109.419 101.52 109.803 100.08 109.803 98.416C109.803 96.944 109.451 95.6 108.811 94.448C108.171 93.296 107.275 92.368 106.123 91.728ZM112.288 99.28C112.64 100.592 113.152 101.712 113.824 102.672C114.592 103.824 115.584 104.688 116.8 105.296C118.016 105.904 119.392 106.192 120.928 106.192C122.56 106.192 124 105.904 125.28 105.264C126.56 104.624 127.52 103.728 128.224 102.576C128.928 101.424 129.28 100.112 129.28 98.576C129.28 97.104 128.96 95.792 128.32 94.64C127.68 93.488 126.784 92.592 125.632 91.952C124.48 91.312 123.168 90.992 121.696 90.992C120.544 90.992 119.52 91.248 118.592 91.696C117.664 92.176 116.928 92.816 116.416 93.616L116.128 94.096V93.552C116.128 91.504 116.512 89.904 117.28 88.784C118.048 87.664 119.168 87.088 120.64 87.088C121.632 87.088 122.464 87.344 123.136 87.824C123.776 88.336 124.224 89.008 124.448 89.904H128.992C128.736 87.92 127.872 86.32 126.4 85.136C124.928 83.984 123.104 83.376 120.992 83.376C119.104 83.376 117.472 83.856 116.096 84.752C114.688 85.648 113.632 86.992 112.896 88.72C112.128 90.48 111.776 92.592 111.776 95.024C111.776 96.56 111.936 98 112.288 99.28ZM123.68 95.696C124.352 96.464 124.704 97.424 124.704 98.576C124.704 99.728 124.352 100.688 123.648 101.456C122.944 102.224 122.016 102.576 120.896 102.576C119.744 102.576 118.848 102.224 118.144 101.456C117.44 100.72 117.12 99.76 117.12 98.576C117.12 97.424 117.472 96.464 118.176 95.696C118.88 94.96 119.808 94.576 120.96 94.576C122.08 94.576 122.976 94.96 123.68 95.696ZM131.526 94.288V95.312C131.526 97.552 131.91 99.504 132.678 101.136C133.446 102.768 134.534 104.016 135.942 104.88C137.318 105.776 138.918 106.192 140.742 106.192C142.534 106.192 144.134 105.776 145.542 104.88C146.95 104.016 148.038 102.768 148.806 101.136C149.574 99.504 149.99 97.552 149.99 95.312V94.288C149.99 92.112 149.574 90.192 148.806 88.528C148.038 86.896 146.95 85.648 145.542 84.752C144.134 83.856 142.534 83.408 140.742 83.408C138.95 83.408 137.35 83.856 135.942 84.752C134.534 85.648 133.446 86.896 132.678 88.528C131.91 90.192 131.526 92.112 131.526 94.288ZM144.102 89.2C144.934 90.448 145.382 92.208 145.382 94.448V95.152C145.382 97.424 144.934 99.184 144.102 100.432C143.27 101.68 142.15 102.288 140.742 102.288C139.334 102.288 138.214 101.68 137.382 100.432C136.55 99.184 136.134 97.424 136.134 95.152V94.448C136.134 92.208 136.55 90.448 137.382 89.2C138.214 87.952 139.334 87.312 140.742 87.312C142.15 87.312 143.27 87.952 144.102 89.2ZM155.58 102.128C154.94 101.36 154.14 100.944 153.148 100.944C152.348 100.944 151.676 101.2 151.132 101.712C150.588 102.224 150.332 102.8 150.332 103.504C150.332 104.304 150.524 104.912 150.94 105.328C151.356 105.744 151.868 105.936 152.508 105.936C152.828 105.936 153.18 105.872 153.532 105.68C153.532 105.776 153.564 105.936 153.564 106.128C153.564 106.768 153.276 107.28 152.764 107.664C152.252 108.08 151.484 108.304 150.524 108.304V110.64C152.38 110.64 153.82 110.16 154.908 109.2C155.964 108.272 156.508 106.928 156.508 105.136C156.508 103.92 156.188 102.896 155.58 102.128ZM156.964 94.288V95.312C156.964 97.552 157.348 99.504 158.116 101.136C158.884 102.768 159.972 104.016 161.38 104.88C162.756 105.776 164.356 106.192 166.18 106.192C167.972 106.192 169.572 105.776 170.98 104.88C172.388 104.016 173.476 102.768 174.244 101.136C175.012 99.504 175.428 97.552 175.428 95.312V94.288C175.428 92.112 175.012 90.192 174.244 88.528C173.476 86.896 172.388 85.648 170.98 84.752C169.572 83.856 167.972 83.408 166.18 83.408C164.388 83.408 162.788 83.856 161.38 84.752C159.972 85.648 158.884 86.896 158.116 88.528C157.348 90.192 156.964 92.112 156.964 94.288ZM169.54 89.2C170.372 90.448 170.82 92.208 170.82 94.448V95.152C170.82 97.424 170.372 99.184 169.54 100.432C168.708 101.68 167.588 102.288 166.18 102.288C164.772 102.288 163.652 101.68 162.82 100.432C161.988 99.184 161.572 97.424 161.572 95.152V94.448C161.572 92.208 161.988 90.448 162.82 89.2C163.652 87.952 164.772 87.312 166.18 87.312C167.588 87.312 168.708 87.952 169.54 89.2ZM176.321 83.6V87.504H187.681L177.889 106H182.881L192.737 86.576V83.6H176.321ZM210.055 96.144C209.159 95.216 208.071 94.608 206.727 94.32C207.847 94.032 208.807 93.424 209.575 92.528C210.343 91.632 210.759 90.544 210.759 89.296C210.759 88.144 210.439 87.088 209.799 86.192C209.159 85.296 208.263 84.624 207.047 84.112C205.831 83.632 204.423 83.376 202.791 83.376C201.127 83.376 199.719 83.632 198.503 84.112C197.286 84.624 196.391 85.296 195.751 86.192C195.111 87.088 194.823 88.144 194.823 89.296C194.823 90.64 195.207 91.728 195.975 92.56C196.743 93.424 197.703 94 198.855 94.32C197.479 94.64 196.359 95.248 195.495 96.176C194.599 97.136 194.183 98.384 194.183 99.92C194.183 101.168 194.503 102.256 195.174 103.216C195.847 104.176 196.839 104.912 198.119 105.424C199.399 105.936 200.967 106.192 202.791 106.192C204.583 106.192 206.151 105.936 207.431 105.424C208.711 104.912 209.703 104.176 210.375 103.216C211.047 102.256 211.399 101.168 211.399 99.92C211.399 98.352 210.951 97.104 210.055 96.144ZM200.295 87.44C200.935 86.928 201.767 86.64 202.791 86.64C203.783 86.64 204.615 86.928 205.255 87.44C205.895 87.984 206.247 88.688 206.247 89.52C206.247 90.384 205.895 91.088 205.255 91.632C204.615 92.208 203.783 92.464 202.791 92.464C201.767 92.464 200.935 92.208 200.295 91.664C199.655 91.12 199.335 90.416 199.335 89.52C199.335 88.688 199.655 87.984 200.295 87.44ZM205.639 102.032C204.871 102.672 203.911 102.96 202.791 102.96C201.639 102.96 200.679 102.672 199.911 102.032C199.143 101.392 198.759 100.592 198.759 99.632C198.759 98.672 199.143 97.84 199.911 97.2C200.679 96.56 201.639 96.208 202.791 96.208C203.911 96.208 204.871 96.56 205.639 97.2C206.407 97.84 206.791 98.672 206.791 99.632C206.791 100.592 206.407 101.392 205.639 102.032ZM214.11 101.616C213.598 102.128 213.342 102.768 213.342 103.536C213.342 104.304 213.598 104.944 214.11 105.456C214.622 105.968 215.262 106.192 216.062 106.192C216.83 106.192 217.47 105.968 217.982 105.456C218.494 104.944 218.782 104.304 218.782 103.536C218.782 102.768 218.494 102.128 217.982 101.616C217.47 101.104 216.83 100.848 216.062 100.848C215.262 100.848 214.622 101.104 214.11 101.616ZM219.558 94.288V95.312C219.558 97.552 219.942 99.504 220.71 101.136C221.478 102.768 222.566 104.016 223.974 104.88C225.35 105.776 226.95 106.192 228.774 106.192C230.566 106.192 232.166 105.776 233.574 104.88C234.982 104.016 236.069 102.768 236.838 101.136C237.606 99.504 238.022 97.552 238.022 95.312V94.288C238.022 92.112 237.606 90.192 236.838 88.528C236.069 86.896 234.982 85.648 233.574 84.752C232.166 83.856 230.566 83.408 228.774 83.408C226.982 83.408 225.382 83.856 223.974 84.752C222.566 85.648 221.478 86.896 220.71 88.528C219.942 90.192 219.558 92.112 219.558 94.288ZM232.134 89.2C232.966 90.448 233.414 92.208 233.414 94.448V95.152C233.414 97.424 232.966 99.184 232.134 100.432C231.302 101.68 230.182 102.288 228.774 102.288C227.366 102.288 226.246 101.68 225.414 100.432C224.582 99.184 224.166 97.424 224.166 95.152V94.448C224.166 92.208 224.582 90.448 225.414 89.2C226.246 87.952 227.366 87.312 228.774 87.312C230.182 87.312 231.302 87.952 232.134 89.2ZM240.245 94.288V95.312C240.245 97.552 240.629 99.504 241.397 101.136C242.165 102.768 243.253 104.016 244.661 104.88C246.037 105.776 247.637 106.192 249.461 106.192C251.253 106.192 252.853 105.776 254.261 104.88C255.669 104.016 256.757 102.768 257.525 101.136C258.293 99.504 258.709 97.552 258.709 95.312V94.288C258.709 92.112 258.293 90.192 257.525 88.528C256.757 86.896 255.669 85.648 254.261 84.752C252.853 83.856 251.253 83.408 249.461 83.408C247.669 83.408 246.069 83.856 244.661 84.752C243.253 85.648 242.165 86.896 241.397 88.528C240.629 90.192 240.245 92.112 240.245 94.288ZM252.821 89.2C253.653 90.448 254.101 92.208 254.101 94.448V95.152C254.101 97.424 253.653 99.184 252.821 100.432C251.989 101.68 250.869 102.288 249.461 102.288C248.053 102.288 246.933 101.68 246.101 100.432C245.269 99.184 244.853 97.424 244.853 95.152V94.448C244.853 92.208 245.269 90.448 246.101 89.2C246.933 87.952 248.053 87.312 249.461 87.312C250.869 87.312 251.989 87.952 252.821 89.2Z" fill="white"/>
<g clip-path="url(#clip1_1_1234)">
<path d="M282.491 87.5128C285.55 87.5021 288.141 88.6935 290.465 90.5521C291.315 91.2469 292.113 92.0003 292.853 92.8068C293.029 92.9946 293.064 93.1142 292.866 93.3266C290.236 96.1428 287.128 98.1157 283.157 98.4615C280.545 98.6889 278.19 97.9032 276.03 96.493C274.561 95.5301 273.302 94.328 272.144 93.0245C271.941 92.7971 271.959 92.6616 272.158 92.4534C274.709 89.7696 277.726 87.9398 281.514 87.5171C281.839 87.4977 282.165 87.4963 282.491 87.5128ZM285.768 93.047C285.768 91.04 284.195 89.429 282.226 89.4258C280.258 89.4226 278.655 91.04 278.661 93.032C278.666 95.024 280.293 96.6617 282.242 96.6339C284.19 96.6062 285.768 95.0176 285.768 93.047ZM284.68 97.0716C284.711 97.0812 284.747 97.1047 284.776 97.0983C287.374 96.4631 289.511 95.055 291.426 93.2605C291.59 93.1057 291.541 93.0032 291.405 92.8676C289.563 91.0325 287.509 89.5369 284.915 88.8835C284.83 88.8548 284.743 88.831 284.655 88.812C284.566 88.8003 284.462 88.7405 284.371 88.8408C287.455 90.5831 287.835 94.8885 284.68 97.0716ZM279.73 89.0159C279.677 89.0041 279.621 88.9991 279.566 89.001C277.264 89.6842 275.314 90.9343 273.582 92.5473C273.376 92.7395 273.433 92.8527 273.603 93.0107C274.074 93.4526 274.518 93.9245 275.005 94.3472C276.346 95.5023 277.825 96.4375 279.621 96.9862C276.8 94.8127 276.972 90.9738 279.73 89.0159Z" fill="#D9EBCD"/>
<path d="M282.647 95.4362C281.483 95.6401 280.471 95.1159 279.998 94.0932C279.511 93.0406 279.808 91.7521 280.7 91.0571C281.098 90.7445 281.588 90.5677 282.098 90.5535C282.607 90.5392 283.107 90.6883 283.522 90.9781C284.51 91.6859 284.817 92.8997 284.29 94.17C284.014 93.774 283.731 93.4003 283.209 93.3993C282.953 93.4014 282.706 93.4978 282.519 93.6694C282.025 94.0985 282.06 94.707 282.647 95.4362Z" fill="#D9EBCD"/>
</g>
<g filter="url(#filter1_d_1_1234)">
<rect x="606" y="69" width="132" height="44" rx="22" fill="#D9EBCD"/>
<path d="M634.896 87.2H641.154V88.628H636.506V91.47H640.342V92.856H636.506V97H634.896V87.2ZM648.418 89.832V97H647.088L646.92 96.09C646.374 96.762 645.632 97.084 644.708 97.084C643.868 97.084 643.182 96.832 642.664 96.3C642.132 95.782 641.88 94.942 641.88 93.78V89.832H643.392V93.626C643.392 94.326 643.532 94.858 643.812 95.222C644.092 95.586 644.498 95.768 645.058 95.768C645.632 95.768 646.08 95.558 646.416 95.138C646.738 94.718 646.906 94.13 646.906 93.388V89.832H648.418ZM655.86 90.532C656.392 91.064 656.672 91.904 656.672 93.052V97H655.146V93.136C655.146 92.464 654.992 91.946 654.712 91.582C654.418 91.232 653.998 91.05 653.438 91.05C652.836 91.05 652.36 91.26 652.024 91.68C651.688 92.1 651.52 92.66 651.52 93.388V97H650.008V89.832H651.324L651.492 90.77C652.024 90.098 652.794 89.748 653.788 89.748C654.628 89.748 655.328 90.014 655.86 90.532ZM665.105 87.2V97H663.789L663.607 95.922C663.033 96.706 662.249 97.084 661.269 97.084C660.611 97.084 660.023 96.944 659.519 96.65C659.001 96.356 658.595 95.936 658.315 95.376C658.021 94.816 657.881 94.172 657.881 93.416C657.881 92.688 658.021 92.058 658.315 91.498C658.609 90.938 659.015 90.518 659.533 90.21C660.037 89.902 660.625 89.748 661.269 89.748C661.787 89.748 662.249 89.846 662.641 90.042C663.033 90.238 663.341 90.49 663.593 90.826V87.2H665.105ZM663.033 95.152C663.411 94.718 663.607 94.144 663.607 93.444C663.607 92.73 663.411 92.156 663.033 91.708C662.641 91.26 662.137 91.036 661.521 91.036C660.891 91.036 660.387 91.26 660.009 91.708C659.617 92.156 659.435 92.716 659.435 93.416C659.435 94.13 659.617 94.704 660.009 95.152C660.387 95.6 660.891 95.81 661.521 95.81C662.137 95.81 662.641 95.6 663.033 95.152ZM669.889 87.2L671.569 87.186L673.655 94.956L675.839 87.2H677.365L679.479 94.956L681.593 87.2H683.231L680.431 97H678.541L676.539 89.79L674.579 97H672.689L669.889 87.2ZM690.464 95.684V97H689.666C689.19 97 688.854 96.902 688.658 96.706C688.448 96.51 688.35 96.23 688.35 95.852C687.804 96.678 687.02 97.084 685.984 97.084C685.172 97.084 684.528 96.902 684.052 96.524C683.562 96.16 683.324 95.642 683.324 94.984C683.324 94.256 683.576 93.682 684.108 93.29C684.626 92.898 685.382 92.688 686.39 92.688H688.196V92.254C688.196 91.862 688.056 91.54 687.776 91.316C687.496 91.092 687.104 90.966 686.614 90.966C686.166 90.966 685.802 91.064 685.522 91.26C685.242 91.456 685.074 91.708 685.018 92.016H683.534C683.604 91.302 683.926 90.742 684.486 90.35C685.046 89.958 685.774 89.748 686.684 89.748C687.636 89.748 688.378 89.972 688.91 90.42C689.428 90.868 689.694 91.512 689.694 92.352V95.18C689.694 95.516 689.848 95.684 690.17 95.684H690.464ZM688.196 93.808H686.32C685.844 93.808 685.494 93.906 685.242 94.088C684.99 94.27 684.864 94.536 684.864 94.886C684.864 95.194 684.976 95.446 685.214 95.628C685.452 95.824 685.774 95.908 686.194 95.908C686.81 95.908 687.3 95.74 687.65 95.404C688 95.068 688.182 94.62 688.196 94.06V93.808ZM691.387 87.2H692.899V97H691.387V87.2ZM694.481 87.2H695.993V97H694.481V87.2ZM697.744 91.498C698.038 90.938 698.444 90.518 698.976 90.21C699.508 89.902 700.11 89.748 700.796 89.748C701.482 89.748 702.084 89.888 702.616 90.168C703.148 90.448 703.554 90.854 703.862 91.358C704.17 91.876 704.324 92.478 704.338 93.164C704.338 93.36 704.324 93.542 704.296 93.738H698.892V93.822C698.92 94.452 699.116 94.942 699.48 95.306C699.83 95.67 700.306 95.852 700.894 95.852C701.356 95.852 701.748 95.754 702.07 95.53C702.378 95.306 702.588 94.998 702.7 94.592H704.212C704.072 95.32 703.722 95.922 703.148 96.384C702.574 96.86 701.86 97.084 701.006 97.084C700.25 97.084 699.606 96.944 699.046 96.636C698.486 96.328 698.066 95.908 697.758 95.348C697.45 94.802 697.31 94.158 697.31 93.43C697.31 92.702 697.45 92.058 697.744 91.498ZM702.798 92.632C702.728 92.114 702.518 91.708 702.168 91.414C701.818 91.12 701.384 90.966 700.852 90.966C700.348 90.966 699.928 91.12 699.564 91.428C699.2 91.736 699.004 92.128 698.948 92.632H702.798ZM706.067 91.162H704.821V89.832H706.067V87.83H707.593V89.832H709.315V91.162H707.593V94.9C707.593 95.18 707.649 95.39 707.761 95.502C707.873 95.614 708.055 95.67 708.335 95.67H709.483V97H708.027C707.341 97 706.837 96.846 706.529 96.524C706.221 96.216 706.067 95.726 706.067 95.054V91.162Z" fill="#11453B"/>
</g>
<g opacity="0.1">
<path d="M122.747 162.834V280.376C212.676 228.898 266.883 235.499 366.96 280.145C468.127 328.629 521.681 329.158 611.174 279.915V162.834C519.251 212.225 466.261 211.923 369.267 162.834C266.511 116.996 211.998 112.797 122.747 162.834Z" fill="#D9EBCD" fill-opacity="0.7"/>
<path d="M611.173 162.834V280.376C701.102 228.898 755.309 235.499 855.386 280.145C956.553 328.629 1010.11 329.158 1099.6 279.915V162.834C1007.68 212.225 954.687 211.923 857.693 162.834C754.937 116.996 700.424 112.797 611.173 162.834Z" fill="#D9EBCD" fill-opacity="0.7"/>
<path d="M360.433 -15.1463V102.395C270.504 50.9173 216.297 57.5183 116.22 102.165C15.0536 150.648 -38.5009 151.178 -127.993 101.935V-15.1463C-36.0702 34.2447 16.9191 33.9425 113.914 -15.1463C216.669 -60.9841 271.182 -65.1836 360.433 -15.1463Z" fill="#D9EBCD" fill-opacity="0.7"/>
<path d="M848.859 -15.1463V102.395C758.93 50.9173 704.723 57.5183 604.646 102.165C503.479 150.648 449.925 151.178 360.432 101.935V-15.1463C452.355 34.2447 505.345 33.9425 602.339 -15.1463C705.095 -60.9841 759.608 -65.1836 848.859 -15.1463Z" fill="#D9EBCD" fill-opacity="0.7"/>
</g>
</g>
<rect x="0.5" y="0.5" width="769" height="153" rx="23.5" stroke="#E7E8E7"/>
</g>
<defs>
<filter id="filter0_d_1_1234" x="-48" y="-28" width="866" height="250" filterUnits="userSpaceOnUse" color-interpolation-filters="sRGB">
<feFlood flood-opacity="0" result="BackgroundImageFix"/>
<feColorMatrix in="SourceAlpha" type="matrix" values="0 0 0 0 0 0 0 0 0 0 0 0 0 0 0 0 0 0 127 0" result="hardAlpha"/>
<feOffset dy="20"/>
<feGaussianBlur stdDeviation="24"/>
<feColorMatrix type="matrix" values="0 0 0 0 0.666667 0 0 0 0 0.666667 0 0 0 0 0.666667 0 0 0 0.29 0"/>
<feBlend mode="normal" in2="BackgroundImageFix" result="effect1_dropShadow_1_1234"/>
<feBlend mode="normal" in="SourceGraphic" in2="effect1_dropShadow_1_1234" result="shape"/>
</filter>
<filter id="filter1_d_1_1234" x="594" y="63" width="156" height="68" filterUnits="userSpaceOnUse" color-interpolation-filters="sRGB">
<feFlood flood-opacity="0" result="BackgroundImageFix"/>
<feColorMatrix in="SourceAlpha" type="matrix" values="0 0 0 0 0 0 0 0 0 0 0 0 0 0 0 0 0 0 127 0" result="hardAlpha"/>
<feOffset dy="6"/>
<feGaussianBlur stdDeviation="6"/>
<feColorMatrix type="matrix" values="0 0 0 0 0 0 0 0 0 0 0 0 0 0 0 0 0 0 0.2 0"/>
<feBlend mode="normal" in2="BackgroundImageFix" result="effect1_dropShadow_1_1234"/>
<feBlend mode="normal" in="SourceGraphic" in2="effect1_dropShadow_1_1234" result="shape"/>
</filter>
<clipPath id="clip0_1_1234">
<rect width="770" height="154" rx="24" fill="white"/>
</clipPath>
<clipPath id="clip1_1_1234">
<rect width="21" height="11" fill="white" transform="translate(272 87.5)"/>
</clipPath>
</defs>
</svg>
