<svg width="770" height="154" viewBox="0 0 770 154" fill="none" xmlns="http://www.w3.org/2000/svg">
<g filter="url(#filter0_d_1_1234)">
<g clip-path="url(#clip0_1_1234)">
<rect width="770" height="154" rx="24" fill="#11453B"/>
<g clip-path="url(#clip1_1_1234)">
<path d="M282.491 87.5128C285.55 87.5021 288.141 88.6935 290.465 90.5521C291.315 91.2469 292.113 92.0003 292.853 92.8068C293.029 92.9946 293.064 93.1142 292.866 93.3266C290.236 96.1428 287.128 98.1157 283.157 98.4615C280.545 98.6889 278.19 97.9032 276.03 96.493C274.561 95.5301 273.302 94.328 272.144 93.0245C271.941 92.7971 271.959 92.6616 272.158 92.4534C274.709 89.7696 277.726 87.9398 281.514 87.5171C281.839 87.4977 282.165 87.4963 282.491 87.5128ZM285.768 93.047C285.768 91.04 284.195 89.429 282.226 89.4258C280.258 89.4226 278.655 91.04 278.661 93.032C278.666 95.024 280.293 96.6617 282.242 96.6339C284.19 96.6062 285.768 95.0176 285.768 93.047ZM284.68 97.0716C284.711 97.0812 284.747 97.1047 284.776 97.0983C287.374 96.4631 289.511 95.055 291.426 93.2605C291.59 93.1057 291.541 93.0032 291.405 92.8676C289.563 91.0325 287.509 89.5369 284.915 88.8835C284.83 88.8548 284.743 88.831 284.655 88.812C284.566 88.8003 284.462 88.7405 284.371 88.8408C287.455 90.5831 287.835 94.8885 284.68 97.0716ZM279.73 89.0159C279.677 89.0041 279.621 88.9991 279.566 89.001C277.264 89.6842 275.314 90.9343 273.582 92.5473C273.376 92.7395 273.433 92.8527 273.603 93.0107C274.074 93.4526 274.518 93.9245 275.005 94.3472C276.346 95.5023 277.825 96.4375 279.621 96.9862C276.8 94.8127 276.972 90.9738 279.73 89.0159Z" fill="#D9EBCD"/>
<path d="M282.647 95.4362C281.483 95.6401 280.471 95.1159 279.998 94.0932C279.511 93.0406 279.808 91.7521 280.7 91.0571C281.098 90.7445 281.588 90.5677 282.098 90.5535C282.607 90.5392 283.107 90.6883 283.522 90.9781C284.51 91.6859 284.817 92.8997 284.29 94.17C284.014 93.774 283.731 93.4003 283.209 93.3993C282.953 93.4014 282.706 93.4978 282.519 93.6694C282.025 94.0985 282.06 94.707 282.647 95.4362Z" fill="#D9EBCD"/>
</g>
<g filter="url(#filter1_d_1_1234)">
<path d="M634.896 87.2H641.154V88.628H636.506V91.47H640.342V92.856H636.506V97H634.896V87.2ZM648.418 89.832V97H647.088L646.92 96.09C646.374 96.762 645.632 97.084 644.708 97.084C643.868 97.084 643.182 96.832 642.664 96.3C642.132 95.782 641.88 94.942 641.88 93.78V89.832H643.392V93.626C643.392 94.326 643.532 94.858 643.812 95.222C644.092 95.586 644.498 95.768 645.058 95.768C645.632 95.768 646.08 95.558 646.416 95.138C646.738 94.718 646.906 94.13 646.906 93.388V89.832H648.418ZM655.86 90.532C656.392 91.064 656.672 91.904 656.672 93.052V97H655.146V93.136C655.146 92.464 654.992 91.946 654.712 91.582C654.418 91.232 653.998 91.05 653.438 91.05C652.836 91.05 652.36 91.26 652.024 91.68C651.688 92.1 651.52 92.66 651.52 93.388V97H650.008V89.832H651.324L651.492 90.77C652.024 90.098 652.794 89.748 653.788 89.748C654.628 89.748 655.328 90.014 655.86 90.532ZM665.105 87.2V97H663.789L663.607 95.922C663.033 96.706 662.249 97.084 661.269 97.084C660.611 97.084 660.023 96.944 659.519 96.65C659.001 96.356 658.595 95.936 658.315 95.376C658.021 94.816 657.881 94.172 657.881 93.416C657.881 92.688 658.021 92.058 658.315 91.498C658.609 90.938 659.015 90.518 659.533 90.21C660.037 89.902 660.625 89.748 661.269 89.748C661.787 89.748 662.249 89.846 662.641 90.042C663.033 90.238 663.341 90.49 663.593 90.826V87.2H665.105ZM663.033 95.152C663.411 94.718 663.607 94.144 663.607 93.444C663.607 92.73 663.411 92.156 663.033 91.708C662.641 91.26 662.137 91.036 661.521 91.036C660.891 91.036 660.387 91.26 660.009 91.708C659.617 92.156 659.435 92.716 659.435 93.416C659.435 94.13 659.617 94.704 660.009 95.152C660.387 95.6 660.891 95.81 661.521 95.81C662.137 95.81 662.641 95.6 663.033 95.152ZM669.889 87.2L671.569 87.186L673.655 94.956L675.839 87.2H677.365L679.479 94.956L681.593 87.2H683.231L680.431 97H678.541L676.539 89.79L674.579 97H672.689L669.889 87.2ZM690.464 95.684V97H689.666C689.19 97 688.854 96.902 688.658 96.706C688.448 96.51 688.35 96.23 688.35 95.852C687.804 96.678 687.02 97.084 685.984 97.084C685.172 97.084 684.528 96.902 684.052 96.524C683.562 96.16 683.324 95.642 683.324 94.984C683.324 94.256 683.576 93.682 684.108 93.29C684.626 92.898 685.382 92.688 686.39 92.688H688.196V92.254C688.196 91.862 688.056 91.54 687.776 91.316C687.496 91.092 687.104 90.966 686.614 90.966C686.166 90.966 685.802 91.064 685.522 91.26C685.242 91.456 685.074 91.708 685.018 92.016H683.534C683.604 91.302 683.926 90.742 684.486 90.35C685.046 89.958 685.774 89.748 686.684 89.748C687.636 89.748 688.378 89.972 688.91 90.42C689.428 90.868 689.694 91.512 689.694 92.352V95.18C689.694 95.516 689.848 95.684 690.17 95.684H690.464ZM688.196 93.808H686.32C685.844 93.808 685.494 93.906 685.242 94.088C684.99 94.27 684.864 94.536 684.864 94.886C684.864 95.194 684.976 95.446 685.214 95.628C685.452 95.824 685.774 95.908 686.194 95.908C686.81 95.908 687.3 95.74 687.65 95.404C688 95.068 688.182 94.62 688.196 94.06V93.808ZM691.387 87.2H692.899V97H691.387V87.2ZM694.481 87.2H695.993V97H694.481V87.2ZM697.744 91.498C698.038 90.938 698.444 90.518 698.976 90.21C699.508 89.902 700.11 89.748 700.796 89.748C701.482 89.748 702.084 89.888 702.616 90.168C703.148 90.448 703.554 90.854 703.862 91.358C704.17 91.876 704.324 92.478 704.338 93.164C704.338 93.36 704.324 93.542 704.296 93.738H698.892V93.822C698.92 94.452 699.116 94.942 699.48 95.306C699.83 95.67 700.306 95.852 700.894 95.852C701.356 95.852 701.748 95.754 702.07 95.53C702.378 95.306 702.588 94.998 702.7 94.592H704.212C704.072 95.32 703.722 95.922 703.148 96.384C702.574 96.86 701.86 97.084 701.006 97.084C700.25 97.084 699.606 96.944 699.046 96.636C698.486 96.328 698.066 95.908 697.758 95.348C697.45 94.802 697.31 94.158 697.31 93.43C697.31 92.702 697.45 92.058 697.744 91.498ZM702.798 92.632C702.728 92.114 702.518 91.708 702.168 91.414C701.818 91.12 701.384 90.966 700.852 90.966C700.348 90.966 699.928 91.12 699.564 91.428C699.2 91.736 699.004 92.128 698.948 92.632H702.798ZM706.067 91.162H704.821V89.832H706.067V87.83H707.593V89.832H709.315V91.162H707.593V94.9C707.593 95.18 707.649 95.39 707.761 95.502C707.873 95.614 708.055 95.67 708.335 95.67H709.483V97H708.027C707.341 97 706.837 96.846 706.529 96.524C706.221 96.216 706.067 95.726 706.067 95.054V91.162Z" fill="#11453B"/>
</g>
<g opacity="0.1">
<path d="M122.747 162.834V280.376C212.676 228.898 266.883 235.499 366.96 280.145C468.127 328.629 521.681 329.158 611.174 279.915V162.834C519.251 212.225 466.261 211.923 369.267 162.834C266.511 116.996 211.998 112.797 122.747 162.834Z" fill="#D9EBCD" fill-opacity="0.7"/>
<path d="M611.173 162.834V280.376C701.102 228.898 755.309 235.499 855.386 280.145C956.553 328.629 1010.11 329.158 1099.6 279.915V162.834C1007.68 212.225 954.687 211.923 857.693 162.834C754.937 116.996 700.424 112.797 611.173 162.834Z" fill="#D9EBCD" fill-opacity="0.7"/>
<path d="M360.433 -15.1463V102.395C270.504 50.9173 216.297 57.5183 116.22 102.165C15.0536 150.648 -38.5009 151.178 -127.993 101.935V-15.1463C-36.0702 34.2447 16.9191 33.9425 113.914 -15.1463C216.669 -60.9841 271.182 -65.1836 360.433 -15.1463Z" fill="#D9EBCD" fill-opacity="0.7"/>
<path d="M848.859 -15.1463V102.395C758.93 50.9173 704.723 57.5183 604.646 102.165C503.479 150.648 449.925 151.178 360.432 101.935V-15.1463C452.355 34.2447 505.345 33.9425 602.339 -15.1463C705.095 -60.9841 759.608 -65.1836 848.859 -15.1463Z" fill="#D9EBCD" fill-opacity="0.7"/>
</g>
</g>
</g>
<defs>
<filter id="filter0_d_1_1234" x="-48" y="-28" width="866" height="250" filterUnits="userSpaceOnUse" color-interpolation-filters="sRGB">
<feFlood flood-opacity="0" result="BackgroundImageFix"/>
<feColorMatrix in="SourceAlpha" type="matrix" values="0 0 0 0 0 0 0 0 0 0 0 0 0 0 0 0 0 0 127 0" result="hardAlpha"/>
<feOffset dy="20"/>
<feGaussianBlur stdDeviation="24"/>
<feColorMatrix type="matrix" values="0 0 0 0 0.666667 0 0 0 0 0.666667 0 0 0 0 0.666667 0 0 0 0.29 0"/>
<feBlend mode="normal" in2="BackgroundImageFix" result="effect1_dropShadow_1_1234"/>
<feBlend mode="normal" in="SourceGraphic" in2="effect1_dropShadow_1_1234" result="shape"/>
</filter>
<filter id="filter1_d_1_1234" x="594" y="63" width="156" height="68" filterUnits="userSpaceOnUse" color-interpolation-filters="sRGB">
<feFlood flood-opacity="0" result="BackgroundImageFix"/>
<feColorMatrix in="SourceAlpha" type="matrix" values="0 0 0 0 0 0 0 0 0 0 0 0 0 0 0 0 0 0 127 0" result="hardAlpha"/>
<feOffset dy="6"/>
<feGaussianBlur stdDeviation="6"/>
<feColorMatrix type="matrix" values="0 0 0 0 0 0 0 0 0 0 0 0 0 0 0 0 0 0 0.2 0"/>
<feBlend mode="normal" in2="BackgroundImageFix" result="effect1_dropShadow_1_1234"/>
<feBlend mode="normal" in="SourceGraphic" in2="effect1_dropShadow_1_1234" result="shape"/>
</filter>
<clipPath id="clip0_1_1234">
<rect width="770" height="154" rx="24" fill="white"/>
</clipPath>
<clipPath id="clip1_1_1234">
</clipPath>
</defs>
</svg>
